G04 #@! TF.GenerationSoftware,KiCad,Pcbnew,(5.1.5)-3*
G04 #@! TF.CreationDate,2020-04-08T13:55:35-05:00*
G04 #@! TF.ProjectId,Cheap FOCer 2 60mm,43686561-7020-4464-9f43-657220322036,1*
G04 #@! TF.SameCoordinates,PX6979f40PYa1135a0*
G04 #@! TF.FileFunction,Legend,Top*
G04 #@! TF.FilePolarity,Positive*
%FSLAX46Y46*%
G04 Gerber Fmt 4.6, Leading zero omitted, Abs format (unit mm)*
G04 Created by KiCad (PCBNEW (5.1.5)-3) date 2020-04-08 13:55:35*
%MOMM*%
%LPD*%
G04 APERTURE LIST*
%ADD10C,0.150000*%
%ADD11C,0.175000*%
%ADD12C,0.187500*%
%ADD13C,0.100000*%
%ADD14C,0.300000*%
%ADD15C,0.120000*%
%ADD16C,0.381000*%
%ADD17C,0.500000*%
G04 APERTURE END LIST*
D10*
X9900000Y32600000D02*
X8000000Y32600000D01*
X9900000Y29700000D02*
X9900000Y32600000D01*
X10000000Y39000000D02*
X8000000Y36000000D01*
D11*
X7116666Y17800000D02*
X7116666Y18133334D01*
X7316666Y17733334D02*
X6616666Y17966667D01*
X7316666Y18200000D01*
X7316666Y18433334D02*
X6616666Y18433334D01*
X6616666Y18600000D01*
X6650000Y18700000D01*
X6716666Y18766667D01*
X6783333Y18800000D01*
X6916666Y18833334D01*
X7016666Y18833334D01*
X7150000Y18800000D01*
X7216666Y18766667D01*
X7283333Y18700000D01*
X7316666Y18600000D01*
X7316666Y18433334D01*
X7250000Y19533334D02*
X7283333Y19500000D01*
X7316666Y19400000D01*
X7316666Y19333334D01*
X7283333Y19233334D01*
X7216666Y19166667D01*
X7150000Y19133334D01*
X7016666Y19100000D01*
X6916666Y19100000D01*
X6783333Y19133334D01*
X6716666Y19166667D01*
X6650000Y19233334D01*
X6616666Y19333334D01*
X6616666Y19400000D01*
X6650000Y19500000D01*
X6683333Y19533334D01*
X6683333Y19800000D02*
X6650000Y19833334D01*
X6616666Y19900000D01*
X6616666Y20066667D01*
X6650000Y20133334D01*
X6683333Y20166667D01*
X6750000Y20200000D01*
X6816666Y20200000D01*
X6916666Y20166667D01*
X7316666Y19766667D01*
X7316666Y20200000D01*
X7116666Y21000000D02*
X7116666Y21333334D01*
X7316666Y20933334D02*
X6616666Y21166667D01*
X7316666Y21400000D01*
X7316666Y21633334D02*
X6616666Y21633334D01*
X6616666Y21800000D01*
X6650000Y21900000D01*
X6716666Y21966667D01*
X6783333Y22000000D01*
X6916666Y22033334D01*
X7016666Y22033334D01*
X7150000Y22000000D01*
X7216666Y21966667D01*
X7283333Y21900000D01*
X7316666Y21800000D01*
X7316666Y21633334D01*
X7250000Y22733334D02*
X7283333Y22700000D01*
X7316666Y22600000D01*
X7316666Y22533334D01*
X7283333Y22433334D01*
X7216666Y22366667D01*
X7150000Y22333334D01*
X7016666Y22300000D01*
X6916666Y22300000D01*
X6783333Y22333334D01*
X6716666Y22366667D01*
X6650000Y22433334D01*
X6616666Y22533334D01*
X6616666Y22600000D01*
X6650000Y22700000D01*
X6683333Y22733334D01*
X7316666Y23400000D02*
X7316666Y23000000D01*
X7316666Y23200000D02*
X6616666Y23200000D01*
X6716666Y23133334D01*
X6783333Y23066667D01*
X6816666Y23000000D01*
D10*
X14400000Y20500000D02*
X6300000Y20500000D01*
D12*
X13028571Y20860715D02*
X13028571Y21610715D01*
X13314285Y21610715D01*
X13385714Y21575000D01*
X13421428Y21539286D01*
X13457142Y21467858D01*
X13457142Y21360715D01*
X13421428Y21289286D01*
X13385714Y21253572D01*
X13314285Y21217858D01*
X13028571Y21217858D01*
X13778571Y20860715D02*
X13778571Y21610715D01*
X13957142Y21610715D01*
X14064285Y21575000D01*
X14135714Y21503572D01*
X14171428Y21432143D01*
X14207142Y21289286D01*
X14207142Y21182143D01*
X14171428Y21039286D01*
X14135714Y20967858D01*
X14064285Y20896429D01*
X13957142Y20860715D01*
X13778571Y20860715D01*
X13028571Y19360715D02*
X13028571Y20110715D01*
X13314285Y20110715D01*
X13385714Y20075000D01*
X13421428Y20039286D01*
X13457142Y19967858D01*
X13457142Y19860715D01*
X13421428Y19789286D01*
X13385714Y19753572D01*
X13314285Y19717858D01*
X13028571Y19717858D01*
X13778571Y19360715D02*
X13778571Y20110715D01*
X13957142Y20110715D01*
X14064285Y20075000D01*
X14135714Y20003572D01*
X14171428Y19932143D01*
X14207142Y19789286D01*
X14207142Y19682143D01*
X14171428Y19539286D01*
X14135714Y19467858D01*
X14064285Y19396429D01*
X13957142Y19360715D01*
X13778571Y19360715D01*
X13010714Y17860715D02*
X13010714Y18610715D01*
X13296428Y18610715D01*
X13367857Y18575000D01*
X13403571Y18539286D01*
X13439285Y18467858D01*
X13439285Y18360715D01*
X13403571Y18289286D01*
X13367857Y18253572D01*
X13296428Y18217858D01*
X13010714Y18217858D01*
X13760714Y18610715D02*
X13760714Y18003572D01*
X13796428Y17932143D01*
X13832142Y17896429D01*
X13903571Y17860715D01*
X14046428Y17860715D01*
X14117857Y17896429D01*
X14153571Y17932143D01*
X14189285Y18003572D01*
X14189285Y18610715D01*
X13010714Y22260715D02*
X13010714Y23010715D01*
X13296428Y23010715D01*
X13367857Y22975000D01*
X13403571Y22939286D01*
X13439285Y22867858D01*
X13439285Y22760715D01*
X13403571Y22689286D01*
X13367857Y22653572D01*
X13296428Y22617858D01*
X13010714Y22617858D01*
X13760714Y23010715D02*
X13760714Y22403572D01*
X13796428Y22332143D01*
X13832142Y22296429D01*
X13903571Y22260715D01*
X14046428Y22260715D01*
X14117857Y22296429D01*
X14153571Y22332143D01*
X14189285Y22403572D01*
X14189285Y23010715D01*
D10*
X7600000Y17400000D02*
X7600000Y23700000D01*
X14400000Y23700000D02*
X7600000Y23700000D01*
X14400000Y17400000D02*
X14400000Y23700000D01*
X7600000Y17400000D02*
X14400000Y17400000D01*
X9900000Y34300000D02*
X9800000Y34300000D01*
D12*
X9339285Y30378572D02*
X8589285Y30378572D01*
X9339285Y30735715D02*
X8589285Y30735715D01*
X9125000Y30985715D01*
X8589285Y31235715D01*
X9339285Y31235715D01*
X8589285Y31592858D02*
X9196428Y31592858D01*
X9267857Y31628572D01*
X9303571Y31664286D01*
X9339285Y31735715D01*
X9339285Y31878572D01*
X9303571Y31950000D01*
X9267857Y31985715D01*
X9196428Y32021429D01*
X8589285Y32021429D01*
D10*
X14800000Y39000000D02*
X10000000Y39000000D01*
X14800000Y29700000D02*
X14800000Y39000000D01*
X8100000Y29700000D02*
X14800000Y29700000D01*
X8000000Y36000000D02*
X8000000Y29700000D01*
D12*
X40139285Y9782143D02*
X39389285Y9782143D01*
X39925000Y10032143D01*
X39389285Y10282143D01*
X40139285Y10282143D01*
X40067857Y11067858D02*
X40103571Y11032143D01*
X40139285Y10925000D01*
X40139285Y10853572D01*
X40103571Y10746429D01*
X40032142Y10675000D01*
X39960714Y10639286D01*
X39817857Y10603572D01*
X39710714Y10603572D01*
X39567857Y10639286D01*
X39496428Y10675000D01*
X39425000Y10746429D01*
X39389285Y10853572D01*
X39389285Y10925000D01*
X39425000Y11032143D01*
X39460714Y11067858D01*
X39389285Y11389286D02*
X39996428Y11389286D01*
X40067857Y11425000D01*
X40103571Y11460715D01*
X40139285Y11532143D01*
X40139285Y11675000D01*
X40103571Y11746429D01*
X40067857Y11782143D01*
X39996428Y11817858D01*
X39389285Y11817858D01*
X43246428Y9103572D02*
X43246428Y8853572D01*
X43639285Y8853572D02*
X42889285Y8853572D01*
X42889285Y9210715D01*
X43425000Y9460715D02*
X43425000Y9817858D01*
X43639285Y9389286D02*
X42889285Y9639286D01*
X43639285Y9889286D01*
X42889285Y10139286D02*
X43496428Y10139286D01*
X43567857Y10175000D01*
X43603571Y10210715D01*
X43639285Y10282143D01*
X43639285Y10425000D01*
X43603571Y10496429D01*
X43567857Y10532143D01*
X43496428Y10567858D01*
X42889285Y10567858D01*
X43639285Y11282143D02*
X43639285Y10925000D01*
X42889285Y10925000D01*
X42889285Y11425000D02*
X42889285Y11853572D01*
X43639285Y11639286D02*
X42889285Y11639286D01*
X41939285Y9800000D02*
X41189285Y9800000D01*
X41189285Y10085715D01*
X41225000Y10157143D01*
X41260714Y10192858D01*
X41332142Y10228572D01*
X41439285Y10228572D01*
X41510714Y10192858D01*
X41546428Y10157143D01*
X41582142Y10085715D01*
X41582142Y9800000D01*
X41189285Y10478572D02*
X41939285Y10657143D01*
X41403571Y10800000D01*
X41939285Y10942858D01*
X41189285Y11121429D01*
X41939285Y11835715D02*
X41582142Y11585715D01*
X41939285Y11407143D02*
X41189285Y11407143D01*
X41189285Y11692858D01*
X41225000Y11764286D01*
X41260714Y11800000D01*
X41332142Y11835715D01*
X41439285Y11835715D01*
X41510714Y11800000D01*
X41546428Y11764286D01*
X41582142Y11692858D01*
X41582142Y11407143D01*
D13*
X49090476Y15173810D02*
X49185714Y15173810D01*
X49233333Y15150000D01*
X49280952Y15102381D01*
X49304761Y15007143D01*
X49304761Y14840477D01*
X49280952Y14745239D01*
X49233333Y14697620D01*
X49185714Y14673810D01*
X49090476Y14673810D01*
X49042857Y14697620D01*
X48995238Y14745239D01*
X48971428Y14840477D01*
X48971428Y15007143D01*
X48995238Y15102381D01*
X49042857Y15150000D01*
X49090476Y15173810D01*
X49519047Y14673810D02*
X49519047Y15173810D01*
X49804761Y14673810D01*
X49804761Y15173810D01*
D10*
X49741421Y13100000D02*
G75*
G03X49741421Y13100000I-141421J0D01*
G01*
X47941421Y13100000D02*
G75*
G03X47941421Y13100000I-141421J0D01*
G01*
X49600000Y13100000D02*
X52100000Y13100000D01*
X47800000Y13100000D02*
X49500000Y14400000D01*
X45300000Y13100000D02*
X47800000Y13100000D01*
D13*
X58450000Y3519048D02*
X58426190Y3471429D01*
X58426190Y3400000D01*
X58450000Y3328572D01*
X58497619Y3280953D01*
X58545238Y3257143D01*
X58640476Y3233334D01*
X58711904Y3233334D01*
X58807142Y3257143D01*
X58854761Y3280953D01*
X58902380Y3328572D01*
X58926190Y3400000D01*
X58926190Y3447620D01*
X58902380Y3519048D01*
X58878571Y3542858D01*
X58711904Y3542858D01*
X58711904Y3447620D01*
X58926190Y3757143D02*
X58426190Y3757143D01*
X58926190Y4042858D01*
X58426190Y4042858D01*
X58926190Y4280953D02*
X58426190Y4280953D01*
X58426190Y4400000D01*
X58450000Y4471429D01*
X58497619Y4519048D01*
X58545238Y4542858D01*
X58640476Y4566667D01*
X58711904Y4566667D01*
X58807142Y4542858D01*
X58854761Y4519048D01*
X58902380Y4471429D01*
X58926190Y4400000D01*
X58926190Y4280953D01*
X58526190Y1104762D02*
X58526190Y866667D01*
X58764285Y842858D01*
X58740476Y866667D01*
X58716666Y914286D01*
X58716666Y1033334D01*
X58740476Y1080953D01*
X58764285Y1104762D01*
X58811904Y1128572D01*
X58930952Y1128572D01*
X58978571Y1104762D01*
X59002380Y1080953D01*
X59026190Y1033334D01*
X59026190Y914286D01*
X59002380Y866667D01*
X58978571Y842858D01*
X58526190Y1271429D02*
X59026190Y1438096D01*
X58526190Y1604762D01*
D12*
X54353571Y15910715D02*
X54353571Y15303572D01*
X54389285Y15232143D01*
X54425000Y15196429D01*
X54496428Y15160715D01*
X54639285Y15160715D01*
X54710714Y15196429D01*
X54746428Y15232143D01*
X54782142Y15303572D01*
X54782142Y15910715D01*
X55103571Y15196429D02*
X55210714Y15160715D01*
X55389285Y15160715D01*
X55460714Y15196429D01*
X55496428Y15232143D01*
X55532142Y15303572D01*
X55532142Y15375000D01*
X55496428Y15446429D01*
X55460714Y15482143D01*
X55389285Y15517858D01*
X55246428Y15553572D01*
X55175000Y15589286D01*
X55139285Y15625000D01*
X55103571Y15696429D01*
X55103571Y15767858D01*
X55139285Y15839286D01*
X55175000Y15875000D01*
X55246428Y15910715D01*
X55425000Y15910715D01*
X55532142Y15875000D01*
X56103571Y15553572D02*
X56210714Y15517858D01*
X56246428Y15482143D01*
X56282142Y15410715D01*
X56282142Y15303572D01*
X56246428Y15232143D01*
X56210714Y15196429D01*
X56139285Y15160715D01*
X55853571Y15160715D01*
X55853571Y15910715D01*
X56103571Y15910715D01*
X56175000Y15875000D01*
X56210714Y15839286D01*
X56246428Y15767858D01*
X56246428Y15696429D01*
X56210714Y15625000D01*
X56175000Y15589286D01*
X56103571Y15553572D01*
X55853571Y15553572D01*
X46907142Y12110715D02*
X47050000Y12110715D01*
X47121428Y12075000D01*
X47192857Y12003572D01*
X47228571Y11860715D01*
X47228571Y11610715D01*
X47192857Y11467858D01*
X47121428Y11396429D01*
X47050000Y11360715D01*
X46907142Y11360715D01*
X46835714Y11396429D01*
X46764285Y11467858D01*
X46728571Y11610715D01*
X46728571Y11860715D01*
X46764285Y12003572D01*
X46835714Y12075000D01*
X46907142Y12110715D01*
X47550000Y11360715D02*
X47550000Y12110715D01*
X47978571Y11360715D01*
X47978571Y12110715D01*
X48871428Y12146429D02*
X48228571Y11182143D01*
X49264285Y12110715D02*
X49407142Y12110715D01*
X49478571Y12075000D01*
X49550000Y12003572D01*
X49585714Y11860715D01*
X49585714Y11610715D01*
X49550000Y11467858D01*
X49478571Y11396429D01*
X49407142Y11360715D01*
X49264285Y11360715D01*
X49192857Y11396429D01*
X49121428Y11467858D01*
X49085714Y11610715D01*
X49085714Y11860715D01*
X49121428Y12003572D01*
X49192857Y12075000D01*
X49264285Y12110715D01*
X50157142Y11753572D02*
X49907142Y11753572D01*
X49907142Y11360715D02*
X49907142Y12110715D01*
X50264285Y12110715D01*
X50800000Y11753572D02*
X50550000Y11753572D01*
X50550000Y11360715D02*
X50550000Y12110715D01*
X50907142Y12110715D01*
X51717857Y5232143D02*
X51682142Y5196429D01*
X51575000Y5160715D01*
X51503571Y5160715D01*
X51396428Y5196429D01*
X51325000Y5267858D01*
X51289285Y5339286D01*
X51253571Y5482143D01*
X51253571Y5589286D01*
X51289285Y5732143D01*
X51325000Y5803572D01*
X51396428Y5875000D01*
X51503571Y5910715D01*
X51575000Y5910715D01*
X51682142Y5875000D01*
X51717857Y5839286D01*
X52003571Y5375000D02*
X52360714Y5375000D01*
X51932142Y5160715D02*
X52182142Y5910715D01*
X52432142Y5160715D01*
X52682142Y5160715D02*
X52682142Y5910715D01*
X53110714Y5160715D01*
X53110714Y5910715D01*
X40157142Y5660715D02*
X40157142Y6410715D01*
X40157142Y6053572D02*
X40585714Y6053572D01*
X40585714Y5660715D02*
X40585714Y6410715D01*
X40907142Y5875000D02*
X41264285Y5875000D01*
X40835714Y5660715D02*
X41085714Y6410715D01*
X41335714Y5660715D01*
X41942857Y5660715D02*
X41585714Y5660715D01*
X41585714Y6410715D01*
X42550000Y5660715D02*
X42192857Y5660715D01*
X42192857Y6410715D01*
X19357142Y5396429D02*
X19464285Y5360715D01*
X19642857Y5360715D01*
X19714285Y5396429D01*
X19750000Y5432143D01*
X19785714Y5503572D01*
X19785714Y5575000D01*
X19750000Y5646429D01*
X19714285Y5682143D01*
X19642857Y5717858D01*
X19500000Y5753572D01*
X19428571Y5789286D01*
X19392857Y5825000D01*
X19357142Y5896429D01*
X19357142Y5967858D01*
X19392857Y6039286D01*
X19428571Y6075000D01*
X19500000Y6110715D01*
X19678571Y6110715D01*
X19785714Y6075000D01*
X20107142Y5753572D02*
X20357142Y5753572D01*
X20464285Y5360715D02*
X20107142Y5360715D01*
X20107142Y6110715D01*
X20464285Y6110715D01*
X21214285Y5360715D02*
X20964285Y5717858D01*
X20785714Y5360715D02*
X20785714Y6110715D01*
X21071428Y6110715D01*
X21142857Y6075000D01*
X21178571Y6039286D01*
X21214285Y5967858D01*
X21214285Y5860715D01*
X21178571Y5789286D01*
X21142857Y5753572D01*
X21071428Y5717858D01*
X20785714Y5717858D01*
X21428571Y6110715D02*
X21678571Y5360715D01*
X21928571Y6110715D01*
X22321428Y6110715D02*
X22464285Y6110715D01*
X22535714Y6075000D01*
X22607142Y6003572D01*
X22642857Y5860715D01*
X22642857Y5610715D01*
X22607142Y5467858D01*
X22535714Y5396429D01*
X22464285Y5360715D01*
X22321428Y5360715D01*
X22250000Y5396429D01*
X22178571Y5467858D01*
X22142857Y5610715D01*
X22142857Y5860715D01*
X22178571Y6003572D01*
X22250000Y6075000D01*
X22321428Y6110715D01*
X7082142Y5432143D02*
X7046428Y5396429D01*
X6939285Y5360715D01*
X6867857Y5360715D01*
X6760714Y5396429D01*
X6689285Y5467858D01*
X6653571Y5539286D01*
X6617857Y5682143D01*
X6617857Y5789286D01*
X6653571Y5932143D01*
X6689285Y6003572D01*
X6760714Y6075000D01*
X6867857Y6110715D01*
X6939285Y6110715D01*
X7046428Y6075000D01*
X7082142Y6039286D01*
X7546428Y6110715D02*
X7689285Y6110715D01*
X7760714Y6075000D01*
X7832142Y6003572D01*
X7867857Y5860715D01*
X7867857Y5610715D01*
X7832142Y5467858D01*
X7760714Y5396429D01*
X7689285Y5360715D01*
X7546428Y5360715D01*
X7475000Y5396429D01*
X7403571Y5467858D01*
X7367857Y5610715D01*
X7367857Y5860715D01*
X7403571Y6003572D01*
X7475000Y6075000D01*
X7546428Y6110715D01*
X8189285Y5360715D02*
X8189285Y6110715D01*
X8439285Y5575000D01*
X8689285Y6110715D01*
X8689285Y5360715D01*
X9046428Y5360715D02*
X9046428Y6110715D01*
X9296428Y5575000D01*
X9546428Y6110715D01*
X9546428Y5360715D01*
D10*
X59100000Y99900000D02*
X25000Y99900000D01*
X0Y0D02*
X59100000Y0D01*
X25000Y99900000D02*
X0Y0D01*
X59100000Y0D02*
X59100000Y99900000D01*
D12*
X3928571Y15325000D02*
X3857142Y15360715D01*
X3750000Y15360715D01*
X3642857Y15325000D01*
X3571428Y15253572D01*
X3535714Y15182143D01*
X3500000Y15039286D01*
X3500000Y14932143D01*
X3535714Y14789286D01*
X3571428Y14717858D01*
X3642857Y14646429D01*
X3750000Y14610715D01*
X3821428Y14610715D01*
X3928571Y14646429D01*
X3964285Y14682143D01*
X3964285Y14932143D01*
X3821428Y14932143D01*
X4285714Y14610715D02*
X4285714Y15360715D01*
X4714285Y14610715D01*
X4714285Y15360715D01*
X5071428Y14610715D02*
X5071428Y15360715D01*
X5250000Y15360715D01*
X5357142Y15325000D01*
X5428571Y15253572D01*
X5464285Y15182143D01*
X5500000Y15039286D01*
X5500000Y14932143D01*
X5464285Y14789286D01*
X5428571Y14717858D01*
X5357142Y14646429D01*
X5250000Y14610715D01*
X5071428Y14610715D01*
D11*
X3450000Y19683334D02*
X3450000Y20383334D01*
X3850000Y19683334D01*
X3850000Y20383334D01*
X4583333Y19683334D02*
X4350000Y20016667D01*
X4183333Y19683334D02*
X4183333Y20383334D01*
X4450000Y20383334D01*
X4516666Y20350000D01*
X4550000Y20316667D01*
X4583333Y20250000D01*
X4583333Y20150000D01*
X4550000Y20083334D01*
X4516666Y20050000D01*
X4450000Y20016667D01*
X4183333Y20016667D01*
X4850000Y19716667D02*
X4950000Y19683334D01*
X5116666Y19683334D01*
X5183333Y19716667D01*
X5216666Y19750000D01*
X5250000Y19816667D01*
X5250000Y19883334D01*
X5216666Y19950000D01*
X5183333Y19983334D01*
X5116666Y20016667D01*
X4983333Y20050000D01*
X4916666Y20083334D01*
X4883333Y20116667D01*
X4850000Y20183334D01*
X4850000Y20250000D01*
X4883333Y20316667D01*
X4916666Y20350000D01*
X4983333Y20383334D01*
X5150000Y20383334D01*
X5250000Y20350000D01*
X5450000Y20383334D02*
X5850000Y20383334D01*
X5650000Y19683334D02*
X5650000Y20383334D01*
D14*
X40776190Y93995239D02*
X40776190Y95995239D01*
X41538095Y95995239D01*
X41728571Y95900000D01*
X41823809Y95804762D01*
X41919047Y95614286D01*
X41919047Y95328572D01*
X41823809Y95138096D01*
X41728571Y95042858D01*
X41538095Y94947620D01*
X40776190Y94947620D01*
X43157142Y95995239D02*
X43538095Y95995239D01*
X43728571Y95900000D01*
X43919047Y95709524D01*
X44014285Y95328572D01*
X44014285Y94661905D01*
X43919047Y94280953D01*
X43728571Y94090477D01*
X43538095Y93995239D01*
X43157142Y93995239D01*
X42966666Y94090477D01*
X42776190Y94280953D01*
X42680952Y94661905D01*
X42680952Y95328572D01*
X42776190Y95709524D01*
X42966666Y95900000D01*
X43157142Y95995239D01*
X44776190Y94090477D02*
X45061904Y93995239D01*
X45538095Y93995239D01*
X45728571Y94090477D01*
X45823809Y94185715D01*
X45919047Y94376191D01*
X45919047Y94566667D01*
X45823809Y94757143D01*
X45728571Y94852381D01*
X45538095Y94947620D01*
X45157142Y95042858D01*
X44966666Y95138096D01*
X44871428Y95233334D01*
X44776190Y95423810D01*
X44776190Y95614286D01*
X44871428Y95804762D01*
X44966666Y95900000D01*
X45157142Y95995239D01*
X45633333Y95995239D01*
X45919047Y95900000D01*
D12*
X3700000Y10260715D02*
X3950000Y9510715D01*
X4200000Y10260715D01*
X4878571Y9582143D02*
X4842857Y9546429D01*
X4735714Y9510715D01*
X4664285Y9510715D01*
X4557142Y9546429D01*
X4485714Y9617858D01*
X4450000Y9689286D01*
X4414285Y9832143D01*
X4414285Y9939286D01*
X4450000Y10082143D01*
X4485714Y10153572D01*
X4557142Y10225000D01*
X4664285Y10260715D01*
X4735714Y10260715D01*
X4842857Y10225000D01*
X4878571Y10189286D01*
X5628571Y9582143D02*
X5592857Y9546429D01*
X5485714Y9510715D01*
X5414285Y9510715D01*
X5307142Y9546429D01*
X5235714Y9617858D01*
X5200000Y9689286D01*
X5164285Y9832143D01*
X5164285Y9939286D01*
X5200000Y10082143D01*
X5235714Y10153572D01*
X5307142Y10225000D01*
X5414285Y10260715D01*
X5485714Y10260715D01*
X5592857Y10225000D01*
X5628571Y10189286D01*
D14*
X13523809Y93995239D02*
X13523809Y95995239D01*
X14666666Y93995239D01*
X14666666Y95995239D01*
X15619047Y95042858D02*
X16285714Y95042858D01*
X16571428Y93995239D02*
X15619047Y93995239D01*
X15619047Y95995239D01*
X16571428Y95995239D01*
X18476190Y95900000D02*
X18285714Y95995239D01*
X18000000Y95995239D01*
X17714285Y95900000D01*
X17523809Y95709524D01*
X17428571Y95519048D01*
X17333333Y95138096D01*
X17333333Y94852381D01*
X17428571Y94471429D01*
X17523809Y94280953D01*
X17714285Y94090477D01*
X18000000Y93995239D01*
X18190476Y93995239D01*
X18476190Y94090477D01*
X18571428Y94185715D01*
X18571428Y94852381D01*
X18190476Y94852381D01*
D10*
X3516666Y12116667D02*
X3616666Y12083334D01*
X3783333Y12083334D01*
X3850000Y12116667D01*
X3883333Y12150000D01*
X3916666Y12216667D01*
X3916666Y12283334D01*
X3883333Y12350000D01*
X3850000Y12383334D01*
X3783333Y12416667D01*
X3650000Y12450000D01*
X3583333Y12483334D01*
X3550000Y12516667D01*
X3516666Y12583334D01*
X3516666Y12650000D01*
X3550000Y12716667D01*
X3583333Y12750000D01*
X3650000Y12783334D01*
X3816666Y12783334D01*
X3916666Y12750000D01*
X4150000Y12783334D02*
X4316666Y12083334D01*
X4450000Y12583334D01*
X4583333Y12083334D01*
X4750000Y12783334D01*
X5416666Y12150000D02*
X5383333Y12116667D01*
X5283333Y12083334D01*
X5216666Y12083334D01*
X5116666Y12116667D01*
X5050000Y12183334D01*
X5016666Y12250000D01*
X4983333Y12383334D01*
X4983333Y12483334D01*
X5016666Y12616667D01*
X5050000Y12683334D01*
X5116666Y12750000D01*
X5216666Y12783334D01*
X5283333Y12783334D01*
X5383333Y12750000D01*
X5416666Y12716667D01*
X6050000Y12083334D02*
X5716666Y12083334D01*
X5716666Y12783334D01*
X6283333Y12083334D02*
X6283333Y12783334D01*
X6683333Y12083334D02*
X6383333Y12483334D01*
X6683333Y12783334D02*
X6283333Y12383334D01*
D11*
X3416666Y17216667D02*
X3516666Y17183334D01*
X3683333Y17183334D01*
X3750000Y17216667D01*
X3783333Y17250000D01*
X3816666Y17316667D01*
X3816666Y17383334D01*
X3783333Y17450000D01*
X3750000Y17483334D01*
X3683333Y17516667D01*
X3550000Y17550000D01*
X3483333Y17583334D01*
X3450000Y17616667D01*
X3416666Y17683334D01*
X3416666Y17750000D01*
X3450000Y17816667D01*
X3483333Y17850000D01*
X3550000Y17883334D01*
X3716666Y17883334D01*
X3816666Y17850000D01*
X4050000Y17883334D02*
X4216666Y17183334D01*
X4350000Y17683334D01*
X4483333Y17183334D01*
X4650000Y17883334D01*
X4916666Y17183334D02*
X4916666Y17883334D01*
X5083333Y17883334D01*
X5183333Y17850000D01*
X5250000Y17783334D01*
X5283333Y17716667D01*
X5316666Y17583334D01*
X5316666Y17483334D01*
X5283333Y17350000D01*
X5250000Y17283334D01*
X5183333Y17216667D01*
X5083333Y17183334D01*
X4916666Y17183334D01*
X5616666Y17183334D02*
X5616666Y17883334D01*
X6083333Y17883334D02*
X6216666Y17883334D01*
X6283333Y17850000D01*
X6350000Y17783334D01*
X6383333Y17650000D01*
X6383333Y17416667D01*
X6350000Y17283334D01*
X6283333Y17216667D01*
X6216666Y17183334D01*
X6083333Y17183334D01*
X6016666Y17216667D01*
X5950000Y17283334D01*
X5916666Y17416667D01*
X5916666Y17650000D01*
X5950000Y17783334D01*
X6016666Y17850000D01*
X6083333Y17883334D01*
D15*
X17750000Y54700000D02*
X17750000Y49300000D01*
X14450000Y54700000D02*
X14450000Y49300000D01*
X17750000Y54700000D02*
X14450000Y54700000D01*
X20997936Y51490000D02*
X22202064Y51490000D01*
X20997936Y54210000D02*
X22202064Y54210000D01*
X11662779Y23210000D02*
X11337221Y23210000D01*
X11662779Y22190000D02*
X11337221Y22190000D01*
X11340953Y20756268D02*
X11666511Y20756268D01*
X11340953Y21776268D02*
X11666511Y21776268D01*
X11290953Y19256268D02*
X11616511Y19256268D01*
X11290953Y20276268D02*
X11616511Y20276268D01*
X11287221Y17790000D02*
X11612779Y17790000D01*
X11287221Y18810000D02*
X11612779Y18810000D01*
X47790000Y59562779D02*
X47790000Y59237221D01*
X48810000Y59562779D02*
X48810000Y59237221D01*
X50162779Y76660000D02*
X49837221Y76660000D01*
X50162779Y75640000D02*
X49837221Y75640000D01*
X28490000Y59662779D02*
X28490000Y59337221D01*
X29510000Y59662779D02*
X29510000Y59337221D01*
X30812779Y76760000D02*
X30487221Y76760000D01*
X30812779Y75740000D02*
X30487221Y75740000D01*
X8340000Y59762779D02*
X8340000Y59437221D01*
X9360000Y59762779D02*
X9360000Y59437221D01*
X10662779Y76710000D02*
X10337221Y76710000D01*
X10662779Y75690000D02*
X10337221Y75690000D01*
D13*
X10550000Y33510000D02*
X10550000Y33730000D01*
X11270000Y33510000D02*
X10550000Y33510000D01*
X10550000Y36210000D02*
X11270000Y36210000D01*
X10550000Y35990000D02*
X10550000Y36210000D01*
X13750000Y36210000D02*
X13750000Y35990000D01*
X13750000Y36210000D02*
X13030000Y36210000D01*
X13850000Y33510000D02*
X13030000Y33510000D01*
D15*
X12237221Y30540000D02*
X12562779Y30540000D01*
X12237221Y31560000D02*
X12562779Y31560000D01*
X12562779Y33010000D02*
X12237221Y33010000D01*
X12562779Y31990000D02*
X12237221Y31990000D01*
X11737221Y36890000D02*
X12062779Y36890000D01*
X11737221Y37910000D02*
X12062779Y37910000D01*
X10010000Y34837221D02*
X10010000Y35162779D01*
X8990000Y34837221D02*
X8990000Y35162779D01*
X16460000Y-10000D02*
X16460000Y1240000D01*
X15210000Y-10000D02*
X16460000Y-10000D01*
X3100000Y4400000D02*
X3100000Y3900000D01*
X3000000Y3900000D02*
X3000000Y4400000D01*
X3200000Y3900000D02*
X3000000Y3900000D01*
X3200000Y4400000D02*
X3200000Y3900000D01*
X5100000Y4400000D02*
X5100000Y3900000D01*
X5000000Y3900000D02*
X5000000Y4400000D01*
X5200000Y3900000D02*
X5000000Y3900000D01*
X5200000Y4400000D02*
X5200000Y3900000D01*
X7100000Y4400000D02*
X7100000Y3900000D01*
X7000000Y3900000D02*
X7000000Y4400000D01*
X7200000Y3900000D02*
X7000000Y3900000D01*
X7200000Y4400000D02*
X7200000Y3900000D01*
X9100000Y4400000D02*
X9100000Y3900000D01*
X9000000Y3900000D02*
X9000000Y4400000D01*
X9200000Y3900000D02*
X9000000Y3900000D01*
X9200000Y4400000D02*
X9200000Y3900000D01*
X11100000Y4400000D02*
X11100000Y3900000D01*
X11000000Y3900000D02*
X11000000Y4400000D01*
X11200000Y3900000D02*
X11000000Y3900000D01*
X11200000Y4400000D02*
X11200000Y3900000D01*
X13100000Y4400000D02*
X13100000Y3900000D01*
X13000000Y3900000D02*
X13000000Y4400000D01*
X13200000Y3900000D02*
X13000000Y3900000D01*
X13200000Y4400000D02*
X13200000Y3900000D01*
X40000Y2900000D02*
X650000Y2900000D01*
X40000Y1600000D02*
X650000Y1600000D01*
X16160000Y2900000D02*
X15550000Y2900000D01*
X16160000Y1600000D02*
X15550000Y1600000D01*
X2600000Y900000D02*
X2600000Y290000D01*
X650000Y900000D02*
X2600000Y900000D01*
X650000Y4400000D02*
X650000Y900000D01*
X15550000Y4400000D02*
X650000Y4400000D01*
X15550000Y900000D02*
X15550000Y4400000D01*
X13600000Y900000D02*
X15550000Y900000D01*
X13600000Y290000D02*
X13600000Y900000D01*
X14400000Y190000D02*
X14700000Y190000D01*
X14700000Y90000D02*
X14700000Y290000D01*
X14400000Y90000D02*
X14700000Y90000D01*
X14400000Y290000D02*
X14400000Y90000D01*
X40000Y290000D02*
X16160000Y290000D01*
X40000Y5010000D02*
X40000Y290000D01*
X16160000Y5010000D02*
X40000Y5010000D01*
X16160000Y290000D02*
X16160000Y5010000D01*
X25360000Y-10000D02*
X25360000Y1240000D01*
X24110000Y-10000D02*
X25360000Y-10000D01*
X20000000Y4400000D02*
X20000000Y3900000D01*
X19900000Y3900000D02*
X19900000Y4400000D01*
X20100000Y3900000D02*
X19900000Y3900000D01*
X20100000Y4400000D02*
X20100000Y3900000D01*
X22000000Y4400000D02*
X22000000Y3900000D01*
X21900000Y3900000D02*
X21900000Y4400000D01*
X22100000Y3900000D02*
X21900000Y3900000D01*
X22100000Y4400000D02*
X22100000Y3900000D01*
X16940000Y2900000D02*
X17550000Y2900000D01*
X16940000Y1600000D02*
X17550000Y1600000D01*
X25060000Y2900000D02*
X24450000Y2900000D01*
X25060000Y1600000D02*
X24450000Y1600000D01*
X19500000Y900000D02*
X19500000Y290000D01*
X17550000Y900000D02*
X19500000Y900000D01*
X17550000Y4400000D02*
X17550000Y900000D01*
X24450000Y4400000D02*
X17550000Y4400000D01*
X24450000Y900000D02*
X24450000Y4400000D01*
X22500000Y900000D02*
X24450000Y900000D01*
X22500000Y290000D02*
X22500000Y900000D01*
X23300000Y190000D02*
X23600000Y190000D01*
X23600000Y90000D02*
X23600000Y290000D01*
X23300000Y90000D02*
X23600000Y90000D01*
X23300000Y290000D02*
X23300000Y90000D01*
X16940000Y290000D02*
X25060000Y290000D01*
X16940000Y5010000D02*
X16940000Y290000D01*
X25060000Y5010000D02*
X16940000Y5010000D01*
X25060000Y290000D02*
X25060000Y5010000D01*
X48360000Y290000D02*
X48360000Y5010000D01*
X48360000Y5010000D02*
X34240000Y5010000D01*
X34240000Y5010000D02*
X34240000Y290000D01*
X34240000Y290000D02*
X48360000Y290000D01*
X46600000Y290000D02*
X46600000Y90000D01*
X46600000Y90000D02*
X46900000Y90000D01*
X46900000Y90000D02*
X46900000Y290000D01*
X46600000Y190000D02*
X46900000Y190000D01*
X45800000Y290000D02*
X45800000Y900000D01*
X45800000Y900000D02*
X47750000Y900000D01*
X47750000Y900000D02*
X47750000Y4400000D01*
X47750000Y4400000D02*
X34850000Y4400000D01*
X34850000Y4400000D02*
X34850000Y900000D01*
X34850000Y900000D02*
X36800000Y900000D01*
X36800000Y900000D02*
X36800000Y290000D01*
X48360000Y1600000D02*
X47750000Y1600000D01*
X48360000Y2900000D02*
X47750000Y2900000D01*
X34240000Y1600000D02*
X34850000Y1600000D01*
X34240000Y2900000D02*
X34850000Y2900000D01*
X45400000Y4400000D02*
X45400000Y3900000D01*
X45400000Y3900000D02*
X45200000Y3900000D01*
X45200000Y3900000D02*
X45200000Y4400000D01*
X45300000Y4400000D02*
X45300000Y3900000D01*
X43400000Y4400000D02*
X43400000Y3900000D01*
X43400000Y3900000D02*
X43200000Y3900000D01*
X43200000Y3900000D02*
X43200000Y4400000D01*
X43300000Y4400000D02*
X43300000Y3900000D01*
X41400000Y4400000D02*
X41400000Y3900000D01*
X41400000Y3900000D02*
X41200000Y3900000D01*
X41200000Y3900000D02*
X41200000Y4400000D01*
X41300000Y4400000D02*
X41300000Y3900000D01*
X39400000Y4400000D02*
X39400000Y3900000D01*
X39400000Y3900000D02*
X39200000Y3900000D01*
X39200000Y3900000D02*
X39200000Y4400000D01*
X39300000Y4400000D02*
X39300000Y3900000D01*
X37400000Y4400000D02*
X37400000Y3900000D01*
X37400000Y3900000D02*
X37200000Y3900000D01*
X37200000Y3900000D02*
X37200000Y4400000D01*
X37300000Y4400000D02*
X37300000Y3900000D01*
X47410000Y-10000D02*
X48660000Y-10000D01*
X48660000Y-10000D02*
X48660000Y1240000D01*
X55260000Y290000D02*
X55260000Y5010000D01*
X55260000Y5010000D02*
X49140000Y5010000D01*
X49140000Y5010000D02*
X49140000Y290000D01*
X49140000Y290000D02*
X55260000Y290000D01*
X53500000Y290000D02*
X53500000Y90000D01*
X53500000Y90000D02*
X53800000Y90000D01*
X53800000Y90000D02*
X53800000Y290000D01*
X53500000Y190000D02*
X53800000Y190000D01*
X52700000Y290000D02*
X52700000Y900000D01*
X52700000Y900000D02*
X54650000Y900000D01*
X54650000Y900000D02*
X54650000Y4400000D01*
X54650000Y4400000D02*
X49750000Y4400000D01*
X49750000Y4400000D02*
X49750000Y900000D01*
X49750000Y900000D02*
X51700000Y900000D01*
X51700000Y900000D02*
X51700000Y290000D01*
X55260000Y1600000D02*
X54650000Y1600000D01*
X55260000Y2900000D02*
X54650000Y2900000D01*
X49140000Y1600000D02*
X49750000Y1600000D01*
X49140000Y2900000D02*
X49750000Y2900000D01*
X52300000Y4400000D02*
X52300000Y3900000D01*
X52300000Y3900000D02*
X52100000Y3900000D01*
X52100000Y3900000D02*
X52100000Y4400000D01*
X52200000Y4400000D02*
X52200000Y3900000D01*
X54310000Y-10000D02*
X55560000Y-10000D01*
X55560000Y-10000D02*
X55560000Y1240000D01*
X52060000Y6040000D02*
X52060000Y7290000D01*
X50810000Y6040000D02*
X52060000Y6040000D01*
X48700000Y10450000D02*
X48700000Y9950000D01*
X48600000Y9950000D02*
X48600000Y10450000D01*
X48800000Y9950000D02*
X48600000Y9950000D01*
X48800000Y10450000D02*
X48800000Y9950000D01*
X45640000Y8950000D02*
X46250000Y8950000D01*
X45640000Y7650000D02*
X46250000Y7650000D01*
X51760000Y8950000D02*
X51150000Y8950000D01*
X51760000Y7650000D02*
X51150000Y7650000D01*
X48200000Y6950000D02*
X48200000Y6340000D01*
X46250000Y6950000D02*
X48200000Y6950000D01*
X46250000Y10450000D02*
X46250000Y6950000D01*
X51150000Y10450000D02*
X46250000Y10450000D01*
X51150000Y6950000D02*
X51150000Y10450000D01*
X49200000Y6950000D02*
X51150000Y6950000D01*
X49200000Y6340000D02*
X49200000Y6950000D01*
X50000000Y6240000D02*
X50300000Y6240000D01*
X50300000Y6140000D02*
X50300000Y6340000D01*
X50000000Y6140000D02*
X50300000Y6140000D01*
X50000000Y6340000D02*
X50000000Y6140000D01*
X45640000Y6340000D02*
X51760000Y6340000D01*
X45640000Y11060000D02*
X45640000Y6340000D01*
X51760000Y11060000D02*
X45640000Y11060000D01*
X51760000Y6340000D02*
X51760000Y11060000D01*
X50310000Y59237221D02*
X50310000Y59562779D01*
X49290000Y59237221D02*
X49290000Y59562779D01*
D16*
X49836600Y100137300D02*
X49836600Y121137300D01*
X50136600Y100137300D02*
X50136600Y121137300D01*
X50436600Y100137300D02*
X50436600Y121137300D01*
X43236600Y98137300D02*
X43236600Y100137300D01*
X48236600Y98137300D02*
X48236600Y100137300D01*
X51036600Y121137300D02*
X51036600Y100137300D01*
X50736600Y100137300D02*
X50736600Y121137300D01*
X40436600Y100137300D02*
X51036600Y100137300D01*
X40436600Y121137300D02*
X40436600Y100137300D01*
X51036600Y121137300D02*
X40436600Y121137300D01*
D17*
X50336600Y97137300D02*
X50336600Y99137300D01*
D15*
X37158578Y63210000D02*
X36641422Y63210000D01*
X37158578Y61790000D02*
X36641422Y61790000D01*
D17*
X18336600Y97087300D02*
X18336600Y99087300D01*
D16*
X19036600Y121087300D02*
X8436600Y121087300D01*
X8436600Y121087300D02*
X8436600Y100087300D01*
X8436600Y100087300D02*
X19036600Y100087300D01*
X18736600Y100087300D02*
X18736600Y121087300D01*
X19036600Y121087300D02*
X19036600Y100087300D01*
X16236600Y98087300D02*
X16236600Y100087300D01*
X11236600Y98087300D02*
X11236600Y100087300D01*
X18436600Y100087300D02*
X18436600Y121087300D01*
X18136600Y100087300D02*
X18136600Y121087300D01*
X17836600Y100087300D02*
X17836600Y121087300D01*
D15*
X24390001Y27480293D02*
X24390001Y27154735D01*
X25410001Y27480293D02*
X25410001Y27154735D01*
X16512779Y29560000D02*
X16187221Y29560000D01*
X16512779Y28540000D02*
X16187221Y28540000D01*
X17810000Y32037221D02*
X17810000Y32362779D01*
X16790000Y32037221D02*
X16790000Y32362779D01*
X30910000Y30337221D02*
X30910000Y30662779D01*
X29890000Y30337221D02*
X29890000Y30662779D01*
X29835358Y22652513D02*
X29835358Y23992513D01*
X30785358Y22652513D02*
X29835358Y22652513D01*
X30785358Y21702513D02*
X30785358Y22652513D01*
X30785358Y12432513D02*
X29835358Y12432513D01*
X30785358Y13382513D02*
X30785358Y12432513D01*
X20565358Y22652513D02*
X21515358Y22652513D01*
X20565358Y21702513D02*
X20565358Y22652513D01*
X20565358Y12432513D02*
X21515358Y12432513D01*
X20565358Y13382513D02*
X20565358Y12432513D01*
X26390000Y26362779D02*
X26390000Y26037221D01*
X27410000Y26362779D02*
X27410000Y26037221D01*
X29990000Y59337221D02*
X29990000Y59662779D01*
X31010000Y59337221D02*
X31010000Y59662779D01*
X56087779Y21310000D02*
X55762221Y21310000D01*
X56087779Y20290000D02*
X55762221Y20290000D01*
X3230000Y8570000D02*
X1900000Y8570000D01*
X3230000Y9900000D02*
X3230000Y8570000D01*
X3230000Y11170000D02*
X570000Y11170000D01*
X570000Y11170000D02*
X570000Y21390000D01*
X3230000Y11170000D02*
X3230000Y21390000D01*
X3230000Y21390000D02*
X570000Y21390000D01*
X22862779Y10527515D02*
X22537221Y10527515D01*
X22862779Y9507515D02*
X22537221Y9507515D01*
X27412221Y53590000D02*
X27737779Y53590000D01*
X27412221Y54610000D02*
X27737779Y54610000D01*
X10810000Y59775279D02*
X10810000Y59449721D01*
X9790000Y59775279D02*
X9790000Y59449721D01*
X16737221Y21339999D02*
X17062779Y21339999D01*
X16737221Y22359999D02*
X17062779Y22359999D01*
X21310000Y43837221D02*
X21310000Y44162779D01*
X20290000Y43837221D02*
X20290000Y44162779D01*
X19912221Y42310000D02*
X20237779Y42310000D01*
X19912221Y41290000D02*
X20237779Y41290000D01*
X26810000Y39637221D02*
X26810000Y39962779D01*
X25790000Y39637221D02*
X25790000Y39962779D01*
X15385000Y42041422D02*
X15385000Y42558578D01*
X13965000Y42041422D02*
X13965000Y42558578D01*
X43637221Y42140000D02*
X43962779Y42140000D01*
X43637221Y43160000D02*
X43962779Y43160000D01*
X10790000Y82253248D02*
X10790000Y79421752D01*
X16010000Y82253248D02*
X16010000Y79421752D01*
X4460000Y22340000D02*
X3400000Y22340000D01*
X4460000Y23400000D02*
X4460000Y22340000D01*
X2400000Y22340000D02*
X340000Y22340000D01*
X2400000Y24400000D02*
X2400000Y22340000D01*
X4460000Y24400000D02*
X2400000Y24400000D01*
X340000Y22340000D02*
X340000Y32460000D01*
X4460000Y24400000D02*
X4460000Y32460000D01*
X4460000Y32460000D02*
X340000Y32460000D01*
X16810000Y16437221D02*
X16810000Y16762779D01*
X15790000Y16437221D02*
X15790000Y16762779D01*
D10*
X26112834Y96800000D02*
G75*
G03X26112834Y96800000I-3512834J0D01*
G01*
D15*
X42540000Y45062779D02*
X42540000Y44737221D01*
X43560000Y45062779D02*
X43560000Y44737221D01*
X53090000Y58162779D02*
X53090000Y57837221D01*
X54110000Y58162779D02*
X54110000Y57837221D01*
X46765000Y34758578D02*
X46765000Y34241422D01*
X48185000Y34758578D02*
X48185000Y34241422D01*
X25390000Y9262779D02*
X25390000Y8937221D01*
X26410000Y9262779D02*
X26410000Y8937221D01*
X49837221Y74140000D02*
X50162779Y74140000D01*
X49837221Y75160000D02*
X50162779Y75160000D01*
X35760000Y40162779D02*
X35760000Y39837221D01*
X34740000Y40162779D02*
X34740000Y39837221D01*
X24662779Y59710000D02*
X24337221Y59710000D01*
X24662779Y58690000D02*
X24337221Y58690000D01*
X23010000Y43837221D02*
X23010000Y44162779D01*
X21990000Y43837221D02*
X21990000Y44162779D01*
X16937779Y9110000D02*
X16612221Y9110000D01*
X16937779Y8090000D02*
X16612221Y8090000D01*
D10*
X15812834Y67450000D02*
G75*
G03X15812834Y67450000I-3512834J0D01*
G01*
D15*
X23490000Y40375279D02*
X23490000Y40049721D01*
X24510000Y40375279D02*
X24510000Y40049721D01*
X28735000Y74552064D02*
X28735000Y70447936D01*
X25315000Y74552064D02*
X25315000Y70447936D01*
X20190000Y32362779D02*
X20190000Y32037221D01*
X21210000Y32362779D02*
X21210000Y32037221D01*
X36690000Y39837221D02*
X36690000Y40162779D01*
X37710000Y39837221D02*
X37710000Y40162779D01*
X44815000Y34758578D02*
X44815000Y34241422D01*
X46235000Y34758578D02*
X46235000Y34241422D01*
X44135000Y74552064D02*
X44135000Y70447936D01*
X40715000Y74552064D02*
X40715000Y70447936D01*
X14462779Y44390000D02*
X14137221Y44390000D01*
X14462779Y45410000D02*
X14137221Y45410000D01*
X30837779Y34810000D02*
X30512221Y34810000D01*
X30837779Y33790000D02*
X30512221Y33790000D01*
X33749721Y53090000D02*
X34075279Y53090000D01*
X33749721Y54110000D02*
X34075279Y54110000D01*
X31790000Y23562779D02*
X31790000Y23237221D01*
X32810000Y23562779D02*
X32810000Y23237221D01*
X19537779Y7610000D02*
X19212221Y7610000D01*
X19537779Y6590000D02*
X19212221Y6590000D01*
D10*
X36187834Y67400000D02*
G75*
G03X36187834Y67400000I-3512834J0D01*
G01*
D15*
X18310000Y16437221D02*
X18310000Y16762779D01*
X17290000Y16437221D02*
X17290000Y16762779D01*
X27785000Y34737221D02*
X27785000Y35062779D01*
X26765000Y34737221D02*
X26765000Y35062779D01*
X48890000Y26562779D02*
X48890000Y26237221D01*
X49910000Y26562779D02*
X49910000Y26237221D01*
X16737221Y18389999D02*
X17062779Y18389999D01*
X16737221Y19409999D02*
X17062779Y19409999D01*
X21990000Y32362779D02*
X21990000Y32037221D01*
X23010000Y32362779D02*
X23010000Y32037221D01*
X42010000Y16637221D02*
X42010000Y16962779D01*
X40990000Y16637221D02*
X40990000Y16962779D01*
X23010000Y40037221D02*
X23010000Y40362779D01*
X21990000Y40037221D02*
X21990000Y40362779D01*
X30487221Y74290000D02*
X30812779Y74290000D01*
X30487221Y75310000D02*
X30812779Y75310000D01*
X31137221Y9190000D02*
X31462779Y9190000D01*
X31137221Y10210000D02*
X31462779Y10210000D01*
X10662779Y75210000D02*
X10337221Y75210000D01*
X10662779Y74190000D02*
X10337221Y74190000D01*
X19510000Y32037221D02*
X19510000Y32362779D01*
X18490000Y32037221D02*
X18490000Y32362779D01*
X17337221Y12390000D02*
X17662779Y12390000D01*
X17337221Y13410000D02*
X17662779Y13410000D01*
X29590000Y40162779D02*
X29590000Y39837221D01*
X30610000Y40162779D02*
X30610000Y39837221D01*
X32110000Y40162779D02*
X32110000Y39837221D01*
X31090000Y40162779D02*
X31090000Y39837221D01*
X3390000Y59762779D02*
X3390000Y59437221D01*
X4410000Y59762779D02*
X4410000Y59437221D01*
X14290000Y16762779D02*
X14290000Y16437221D01*
X15310000Y16762779D02*
X15310000Y16437221D01*
X16937779Y10610000D02*
X16612221Y10610000D01*
X16937779Y9590000D02*
X16612221Y9590000D01*
D10*
X55387834Y67500000D02*
G75*
G03X55387834Y67500000I-3512834J0D01*
G01*
D15*
X50325000Y24760000D02*
X46875000Y24760000D01*
X50325000Y24760000D02*
X52275000Y24760000D01*
X50325000Y19640000D02*
X48375000Y19640000D01*
X50325000Y19640000D02*
X52275000Y19640000D01*
X17062778Y20910000D02*
X16737220Y20910000D01*
X17062778Y19890000D02*
X16737220Y19890000D01*
X22862779Y7510000D02*
X22537221Y7510000D01*
X22862779Y6490000D02*
X22537221Y6490000D01*
X40210000Y16637221D02*
X40210000Y16962779D01*
X39190000Y16637221D02*
X39190000Y16962779D01*
X56087779Y24335000D02*
X55762221Y24335000D01*
X56087779Y23315000D02*
X55762221Y23315000D01*
X21962779Y30260000D02*
X21637221Y30260000D01*
X21962779Y29240000D02*
X21637221Y29240000D01*
X26890000Y9262779D02*
X26890000Y8937221D01*
X27910000Y9262779D02*
X27910000Y8937221D01*
X57150000Y26790000D02*
X51140000Y26790000D01*
X54900000Y33610000D02*
X51140000Y33610000D01*
X51140000Y26790000D02*
X51140000Y28050000D01*
X51140000Y33610000D02*
X51140000Y32350000D01*
X16010000Y32037221D02*
X16010000Y32362779D01*
X14990000Y32037221D02*
X14990000Y32362779D01*
X30787221Y55090000D02*
X31112779Y55090000D01*
X30787221Y56110000D02*
X31112779Y56110000D01*
X17638136Y14852516D02*
X17312578Y14852516D01*
X17638136Y13832516D02*
X17312578Y13832516D01*
X28090000Y40162779D02*
X28090000Y39837221D01*
X29110000Y40162779D02*
X29110000Y39837221D01*
X24510000Y37037221D02*
X24510000Y37362779D01*
X23490000Y37037221D02*
X23490000Y37362779D01*
X22862779Y9010000D02*
X22537221Y9010000D01*
X22862779Y7990000D02*
X22537221Y7990000D01*
X25610000Y53337221D02*
X25610000Y53662779D01*
X24590000Y53337221D02*
X24590000Y53662779D01*
X46335000Y22037221D02*
X46335000Y22362779D01*
X45315000Y22037221D02*
X45315000Y22362779D01*
X57262779Y35110000D02*
X56937221Y35110000D01*
X57262779Y34090000D02*
X56937221Y34090000D01*
X44590000Y16962779D02*
X44590000Y16637221D01*
X45610000Y16962779D02*
X45610000Y16637221D01*
X28990000Y25762779D02*
X28990000Y25437221D01*
X30010000Y25762779D02*
X30010000Y25437221D01*
X18662779Y23860000D02*
X18337221Y23860000D01*
X18662779Y22840000D02*
X18337221Y22840000D01*
X21390357Y27480295D02*
X21390357Y27154737D01*
X22410357Y27480295D02*
X22410357Y27154737D01*
X33290000Y19762779D02*
X33290000Y19437221D01*
X34310000Y19762779D02*
X34310000Y19437221D01*
X21262779Y49710000D02*
X20937221Y49710000D01*
X21262779Y48690000D02*
X20937221Y48690000D01*
X22790357Y27480296D02*
X22790357Y27154738D01*
X23810357Y27480296D02*
X23810357Y27154738D01*
X55762221Y21789999D02*
X56087779Y21789999D01*
X55762221Y22809999D02*
X56087779Y22809999D01*
X31462779Y12109999D02*
X31137221Y12109999D01*
X31462779Y11089999D02*
X31137221Y11089999D01*
X56558578Y61210000D02*
X56041422Y61210000D01*
X56558578Y59790000D02*
X56041422Y59790000D01*
X45890000Y41637221D02*
X45890000Y41962779D01*
X46910000Y41637221D02*
X46910000Y41962779D01*
X37710000Y36437221D02*
X37710000Y36762779D01*
X36690000Y36437221D02*
X36690000Y36762779D01*
X38160000Y33137221D02*
X38160000Y33462779D01*
X37140000Y33137221D02*
X37140000Y33462779D01*
X46410000Y26241422D02*
X46410000Y26758578D01*
X44990000Y26241422D02*
X44990000Y26758578D01*
X56558578Y63110000D02*
X56041422Y63110000D01*
X56558578Y61690000D02*
X56041422Y61690000D01*
X48410000Y41637221D02*
X48410000Y41962779D01*
X47390000Y41637221D02*
X47390000Y41962779D01*
X49837221Y53790000D02*
X50162779Y53790000D01*
X49837221Y54810000D02*
X50162779Y54810000D01*
X55770000Y5330000D02*
X57100000Y5330000D01*
X55770000Y4000000D02*
X55770000Y5330000D01*
X55770000Y2730000D02*
X58430000Y2730000D01*
X58430000Y2730000D02*
X58430000Y130000D01*
X55770000Y2730000D02*
X55770000Y130000D01*
X55770000Y130000D02*
X58430000Y130000D01*
X39660000Y33137221D02*
X39660000Y33462779D01*
X38640000Y33137221D02*
X38640000Y33462779D01*
D10*
X23535000Y49975000D02*
X23542500Y49975000D01*
X37785000Y49975000D02*
X37777500Y49975000D01*
X37785000Y43625000D02*
X37777500Y43625000D01*
X23460000Y42550000D02*
X23460000Y49975000D01*
X37785000Y43625000D02*
X37785000Y49975000D01*
D15*
X52941422Y74190000D02*
X53458578Y74190000D01*
X52941422Y75610000D02*
X53458578Y75610000D01*
X37158578Y61310000D02*
X36641422Y61310000D01*
X37158578Y59890000D02*
X36641422Y59890000D01*
X13390000Y61958578D02*
X13390000Y61441422D01*
X14810000Y61958578D02*
X14810000Y61441422D01*
X33590000Y62058578D02*
X33590000Y61541422D01*
X35010000Y62058578D02*
X35010000Y61541422D01*
X39210000Y36437221D02*
X39210000Y36762779D01*
X38190000Y36437221D02*
X38190000Y36762779D01*
X46910000Y38637221D02*
X46910000Y38962779D01*
X45890000Y38637221D02*
X45890000Y38962779D01*
X48337221Y49490000D02*
X48662779Y49490000D01*
X48337221Y50510000D02*
X48662779Y50510000D01*
X41060000Y48497936D02*
X41060000Y49702064D01*
X38340000Y48497936D02*
X38340000Y49702064D01*
X43810001Y16637221D02*
X43810001Y16962779D01*
X42790001Y16637221D02*
X42790001Y16962779D01*
X44090000Y45075278D02*
X44090000Y44749720D01*
X45110000Y45075278D02*
X45110000Y44749720D01*
X44035001Y12315000D02*
X44035001Y14600000D01*
X42565001Y12315000D02*
X44035001Y12315000D01*
X42565001Y14600000D02*
X42565001Y12315000D01*
X52990000Y61958578D02*
X52990000Y61441422D01*
X54410000Y61958578D02*
X54410000Y61441422D01*
X16958578Y61310000D02*
X16441422Y61310000D01*
X16958578Y59890000D02*
X16441422Y59890000D01*
X49100000Y48760000D02*
X47150000Y48760000D01*
X49100000Y48760000D02*
X51050000Y48760000D01*
X49100000Y43640000D02*
X47150000Y43640000D01*
X49100000Y43640000D02*
X52550000Y43640000D01*
X16958578Y63210000D02*
X16441422Y63210000D01*
X16958578Y61790000D02*
X16441422Y61790000D01*
X53290000Y45037221D02*
X53290000Y45362779D01*
X54310000Y45037221D02*
X54310000Y45362779D01*
X46310000Y53037221D02*
X46310000Y53362779D01*
X45290000Y53037221D02*
X45290000Y53362779D01*
X43790000Y53049721D02*
X43790000Y53375279D01*
X44810000Y53049721D02*
X44810000Y53375279D01*
X33541422Y75710000D02*
X34058578Y75710000D01*
X33541422Y74290000D02*
X34058578Y74290000D01*
X31490000Y59621078D02*
X31490000Y59103922D01*
X32910000Y59621078D02*
X32910000Y59103922D01*
X17790000Y44558578D02*
X17790000Y44041422D01*
X19210000Y44558578D02*
X19210000Y44041422D01*
X7800000Y54200000D02*
X7800000Y46200000D01*
X14000000Y54200000D02*
X14000000Y46200000D01*
X13441422Y74090000D02*
X13958578Y74090000D01*
X13441422Y75510000D02*
X13958578Y75510000D01*
D10*
X53420000Y8050000D02*
X53420000Y10050000D01*
X56920000Y14500000D02*
X56445000Y14500000D01*
X56920000Y6200000D02*
X56920000Y14500000D01*
X56445000Y6200000D02*
X56920000Y6200000D01*
X53720000Y14500000D02*
X54195000Y14500000D01*
X53720000Y6200000D02*
X53720000Y14500000D01*
X54195000Y6200000D02*
X53720000Y6200000D01*
D15*
X42235000Y12315000D02*
X42235000Y14600000D01*
X40765000Y12315000D02*
X42235000Y12315000D01*
X40765000Y14600000D02*
X40765000Y12315000D01*
X24885000Y74552064D02*
X24885000Y70447936D01*
X21465000Y74552064D02*
X21465000Y70447936D01*
X23450000Y28900000D02*
X29200000Y28900000D01*
X23450000Y32500000D02*
X23450000Y28900000D01*
X29200000Y32500000D02*
X23450000Y32500000D01*
X36535000Y7700000D02*
X36535000Y9100000D01*
X34215000Y9100000D02*
X34215000Y7200000D01*
X11615000Y8900000D02*
X11615000Y7500000D01*
X13935000Y7500000D02*
X13935000Y9400000D01*
X40435000Y12315000D02*
X40435000Y14600000D01*
X38965000Y12315000D02*
X40435000Y12315000D01*
X38965000Y14600000D02*
X38965000Y12315000D01*
X50490000Y82215748D02*
X50490000Y79384252D01*
X55710000Y82215748D02*
X55710000Y79384252D01*
X11290000Y59658578D02*
X11290000Y59141422D01*
X12710000Y59658578D02*
X12710000Y59141422D01*
X44937221Y54890000D02*
X45262779Y54890000D01*
X44937221Y55910000D02*
X45262779Y55910000D01*
X40637221Y53090000D02*
X40962779Y53090000D01*
X40637221Y54110000D02*
X40962779Y54110000D01*
X8510000Y74452064D02*
X8510000Y70347936D01*
X5090000Y74452064D02*
X5090000Y70347936D01*
X37962779Y54110000D02*
X37637221Y54110000D01*
X37962779Y53090000D02*
X37637221Y53090000D01*
X4610000Y74452064D02*
X4610000Y70347936D01*
X1190000Y74452064D02*
X1190000Y70347936D01*
X33737221Y16590000D02*
X34062779Y16590000D01*
X33737221Y17610000D02*
X34062779Y17610000D01*
X48035000Y74552064D02*
X48035000Y70447936D01*
X44615000Y74552064D02*
X44615000Y70447936D01*
X17285000Y42041422D02*
X17285000Y42558578D01*
X15865000Y42041422D02*
X15865000Y42558578D01*
X50790000Y59458578D02*
X50790000Y58941422D01*
X52210000Y59458578D02*
X52210000Y58941422D01*
X30890000Y82315748D02*
X30890000Y79484252D01*
X36110000Y82315748D02*
X36110000Y79484252D01*
D13*
X15546428Y56060715D02*
X15546428Y56810715D01*
X15725000Y56810715D01*
X15832142Y56775000D01*
X15903571Y56703572D01*
X15939285Y56632143D01*
X15975000Y56489286D01*
X15975000Y56382143D01*
X15939285Y56239286D01*
X15903571Y56167858D01*
X15832142Y56096429D01*
X15725000Y56060715D01*
X15546428Y56060715D01*
X16617857Y56810715D02*
X16475000Y56810715D01*
X16403571Y56775000D01*
X16367857Y56739286D01*
X16296428Y56632143D01*
X16260714Y56489286D01*
X16260714Y56203572D01*
X16296428Y56132143D01*
X16332142Y56096429D01*
X16403571Y56060715D01*
X16546428Y56060715D01*
X16617857Y56096429D01*
X16653571Y56132143D01*
X16689285Y56203572D01*
X16689285Y56382143D01*
X16653571Y56453572D01*
X16617857Y56489286D01*
X16546428Y56525000D01*
X16403571Y56525000D01*
X16332142Y56489286D01*
X16296428Y56453572D01*
X16260714Y56382143D01*
X15546428Y56060715D02*
X15546428Y56810715D01*
X15725000Y56810715D01*
X15832142Y56775000D01*
X15903571Y56703572D01*
X15939285Y56632143D01*
X15975000Y56489286D01*
X15975000Y56382143D01*
X15939285Y56239286D01*
X15903571Y56167858D01*
X15832142Y56096429D01*
X15725000Y56060715D01*
X15546428Y56060715D01*
X16617857Y56810715D02*
X16475000Y56810715D01*
X16403571Y56775000D01*
X16367857Y56739286D01*
X16296428Y56632143D01*
X16260714Y56489286D01*
X16260714Y56203572D01*
X16296428Y56132143D01*
X16332142Y56096429D01*
X16403571Y56060715D01*
X16546428Y56060715D01*
X16617857Y56096429D01*
X16653571Y56132143D01*
X16689285Y56203572D01*
X16689285Y56382143D01*
X16653571Y56453572D01*
X16617857Y56489286D01*
X16546428Y56525000D01*
X16403571Y56525000D01*
X16332142Y56489286D01*
X16296428Y56453572D01*
X16260714Y56382143D01*
X28596428Y95860715D02*
X28596428Y96610715D01*
X28596428Y96253572D02*
X29025000Y96253572D01*
X29025000Y95860715D02*
X29025000Y96610715D01*
X29775000Y95860715D02*
X29346428Y95860715D01*
X29560714Y95860715D02*
X29560714Y96610715D01*
X29489285Y96503572D01*
X29417857Y96432143D01*
X29346428Y96396429D01*
X30025000Y96610715D02*
X30489285Y96610715D01*
X30239285Y96325000D01*
X30346428Y96325000D01*
X30417857Y96289286D01*
X30453571Y96253572D01*
X30489285Y96182143D01*
X30489285Y96003572D01*
X30453571Y95932143D01*
X30417857Y95896429D01*
X30346428Y95860715D01*
X30132142Y95860715D01*
X30060714Y95896429D01*
X30025000Y95932143D01*
X21117857Y54632143D02*
X21082142Y54596429D01*
X20975000Y54560715D01*
X20903571Y54560715D01*
X20796428Y54596429D01*
X20725000Y54667858D01*
X20689285Y54739286D01*
X20653571Y54882143D01*
X20653571Y54989286D01*
X20689285Y55132143D01*
X20725000Y55203572D01*
X20796428Y55275000D01*
X20903571Y55310715D01*
X20975000Y55310715D01*
X21082142Y55275000D01*
X21117857Y55239286D01*
X21832142Y54560715D02*
X21403571Y54560715D01*
X21617857Y54560715D02*
X21617857Y55310715D01*
X21546428Y55203572D01*
X21475000Y55132143D01*
X21403571Y55096429D01*
X22510714Y55310715D02*
X22153571Y55310715D01*
X22117857Y54953572D01*
X22153571Y54989286D01*
X22225000Y55025000D01*
X22403571Y55025000D01*
X22475000Y54989286D01*
X22510714Y54953572D01*
X22546428Y54882143D01*
X22546428Y54703572D01*
X22510714Y54632143D01*
X22475000Y54596429D01*
X22403571Y54560715D01*
X22225000Y54560715D01*
X22153571Y54596429D01*
X22117857Y54632143D01*
X8617857Y22360715D02*
X8367857Y22717858D01*
X8189285Y22360715D02*
X8189285Y23110715D01*
X8475000Y23110715D01*
X8546428Y23075000D01*
X8582142Y23039286D01*
X8617857Y22967858D01*
X8617857Y22860715D01*
X8582142Y22789286D01*
X8546428Y22753572D01*
X8475000Y22717858D01*
X8189285Y22717858D01*
X8867857Y23110715D02*
X9367857Y23110715D01*
X9046428Y22360715D01*
X9617857Y23039286D02*
X9653571Y23075000D01*
X9725000Y23110715D01*
X9903571Y23110715D01*
X9975000Y23075000D01*
X10010714Y23039286D01*
X10046428Y22967858D01*
X10046428Y22896429D01*
X10010714Y22789286D01*
X9582142Y22360715D01*
X10046428Y22360715D01*
X8617857Y20860715D02*
X8367857Y21217858D01*
X8189285Y20860715D02*
X8189285Y21610715D01*
X8475000Y21610715D01*
X8546428Y21575000D01*
X8582142Y21539286D01*
X8617857Y21467858D01*
X8617857Y21360715D01*
X8582142Y21289286D01*
X8546428Y21253572D01*
X8475000Y21217858D01*
X8189285Y21217858D01*
X8867857Y21610715D02*
X9367857Y21610715D01*
X9046428Y20860715D01*
X10046428Y20860715D02*
X9617857Y20860715D01*
X9832142Y20860715D02*
X9832142Y21610715D01*
X9760714Y21503572D01*
X9689285Y21432143D01*
X9617857Y21396429D01*
X8617857Y19360715D02*
X8367857Y19717858D01*
X8189285Y19360715D02*
X8189285Y20110715D01*
X8475000Y20110715D01*
X8546428Y20075000D01*
X8582142Y20039286D01*
X8617857Y19967858D01*
X8617857Y19860715D01*
X8582142Y19789286D01*
X8546428Y19753572D01*
X8475000Y19717858D01*
X8189285Y19717858D01*
X9260714Y20110715D02*
X9117857Y20110715D01*
X9046428Y20075000D01*
X9010714Y20039286D01*
X8939285Y19932143D01*
X8903571Y19789286D01*
X8903571Y19503572D01*
X8939285Y19432143D01*
X8975000Y19396429D01*
X9046428Y19360715D01*
X9189285Y19360715D01*
X9260714Y19396429D01*
X9296428Y19432143D01*
X9332142Y19503572D01*
X9332142Y19682143D01*
X9296428Y19753572D01*
X9260714Y19789286D01*
X9189285Y19825000D01*
X9046428Y19825000D01*
X8975000Y19789286D01*
X8939285Y19753572D01*
X8903571Y19682143D01*
X9760714Y19789286D02*
X9689285Y19825000D01*
X9653571Y19860715D01*
X9617857Y19932143D01*
X9617857Y19967858D01*
X9653571Y20039286D01*
X9689285Y20075000D01*
X9760714Y20110715D01*
X9903571Y20110715D01*
X9975000Y20075000D01*
X10010714Y20039286D01*
X10046428Y19967858D01*
X10046428Y19932143D01*
X10010714Y19860715D01*
X9975000Y19825000D01*
X9903571Y19789286D01*
X9760714Y19789286D01*
X9689285Y19753572D01*
X9653571Y19717858D01*
X9617857Y19646429D01*
X9617857Y19503572D01*
X9653571Y19432143D01*
X9689285Y19396429D01*
X9760714Y19360715D01*
X9903571Y19360715D01*
X9975000Y19396429D01*
X10010714Y19432143D01*
X10046428Y19503572D01*
X10046428Y19646429D01*
X10010714Y19717858D01*
X9975000Y19753572D01*
X9903571Y19789286D01*
X8617857Y17960715D02*
X8367857Y18317858D01*
X8189285Y17960715D02*
X8189285Y18710715D01*
X8475000Y18710715D01*
X8546428Y18675000D01*
X8582142Y18639286D01*
X8617857Y18567858D01*
X8617857Y18460715D01*
X8582142Y18389286D01*
X8546428Y18353572D01*
X8475000Y18317858D01*
X8189285Y18317858D01*
X9260714Y18460715D02*
X9260714Y17960715D01*
X9082142Y18746429D02*
X8903571Y18210715D01*
X9367857Y18210715D01*
X9796428Y18710715D02*
X9867857Y18710715D01*
X9939285Y18675000D01*
X9975000Y18639286D01*
X10010714Y18567858D01*
X10046428Y18425000D01*
X10046428Y18246429D01*
X10010714Y18103572D01*
X9975000Y18032143D01*
X9939285Y17996429D01*
X9867857Y17960715D01*
X9796428Y17960715D01*
X9725000Y17996429D01*
X9689285Y18032143D01*
X9653571Y18103572D01*
X9617857Y18246429D01*
X9617857Y18425000D01*
X9653571Y18567858D01*
X9689285Y18639286D01*
X9725000Y18675000D01*
X9796428Y18710715D01*
X48567857Y56617858D02*
X48603571Y56582143D01*
X48639285Y56475000D01*
X48639285Y56403572D01*
X48603571Y56296429D01*
X48532142Y56225000D01*
X48460714Y56189286D01*
X48317857Y56153572D01*
X48210714Y56153572D01*
X48067857Y56189286D01*
X47996428Y56225000D01*
X47925000Y56296429D01*
X47889285Y56403572D01*
X47889285Y56475000D01*
X47925000Y56582143D01*
X47960714Y56617858D01*
X47889285Y57260715D02*
X47889285Y57117858D01*
X47925000Y57046429D01*
X47960714Y57010715D01*
X48067857Y56939286D01*
X48210714Y56903572D01*
X48496428Y56903572D01*
X48567857Y56939286D01*
X48603571Y56975000D01*
X48639285Y57046429D01*
X48639285Y57189286D01*
X48603571Y57260715D01*
X48567857Y57296429D01*
X48496428Y57332143D01*
X48317857Y57332143D01*
X48246428Y57296429D01*
X48210714Y57260715D01*
X48175000Y57189286D01*
X48175000Y57046429D01*
X48210714Y56975000D01*
X48246428Y56939286D01*
X48317857Y56903572D01*
X47889285Y57582143D02*
X47889285Y58082143D01*
X48639285Y57760715D01*
X48750000Y78050000D02*
X48716666Y78016667D01*
X48616666Y77983334D01*
X48550000Y77983334D01*
X48450000Y78016667D01*
X48383333Y78083334D01*
X48350000Y78150000D01*
X48316666Y78283334D01*
X48316666Y78383334D01*
X48350000Y78516667D01*
X48383333Y78583334D01*
X48450000Y78650000D01*
X48550000Y78683334D01*
X48616666Y78683334D01*
X48716666Y78650000D01*
X48750000Y78616667D01*
X49350000Y78683334D02*
X49216666Y78683334D01*
X49150000Y78650000D01*
X49116666Y78616667D01*
X49050000Y78516667D01*
X49016666Y78383334D01*
X49016666Y78116667D01*
X49050000Y78050000D01*
X49083333Y78016667D01*
X49150000Y77983334D01*
X49283333Y77983334D01*
X49350000Y78016667D01*
X49383333Y78050000D01*
X49416666Y78116667D01*
X49416666Y78283334D01*
X49383333Y78350000D01*
X49350000Y78383334D01*
X49283333Y78416667D01*
X49150000Y78416667D01*
X49083333Y78383334D01*
X49050000Y78350000D01*
X49016666Y78283334D01*
X50016666Y78683334D02*
X49883333Y78683334D01*
X49816666Y78650000D01*
X49783333Y78616667D01*
X49716666Y78516667D01*
X49683333Y78383334D01*
X49683333Y78116667D01*
X49716666Y78050000D01*
X49750000Y78016667D01*
X49816666Y77983334D01*
X49950000Y77983334D01*
X50016666Y78016667D01*
X50050000Y78050000D01*
X50083333Y78116667D01*
X50083333Y78283334D01*
X50050000Y78350000D01*
X50016666Y78383334D01*
X49950000Y78416667D01*
X49816666Y78416667D01*
X49750000Y78383334D01*
X49716666Y78350000D01*
X49683333Y78283334D01*
X29267857Y56617858D02*
X29303571Y56582143D01*
X29339285Y56475000D01*
X29339285Y56403572D01*
X29303571Y56296429D01*
X29232142Y56225000D01*
X29160714Y56189286D01*
X29017857Y56153572D01*
X28910714Y56153572D01*
X28767857Y56189286D01*
X28696428Y56225000D01*
X28625000Y56296429D01*
X28589285Y56403572D01*
X28589285Y56475000D01*
X28625000Y56582143D01*
X28660714Y56617858D01*
X28589285Y57260715D02*
X28589285Y57117858D01*
X28625000Y57046429D01*
X28660714Y57010715D01*
X28767857Y56939286D01*
X28910714Y56903572D01*
X29196428Y56903572D01*
X29267857Y56939286D01*
X29303571Y56975000D01*
X29339285Y57046429D01*
X29339285Y57189286D01*
X29303571Y57260715D01*
X29267857Y57296429D01*
X29196428Y57332143D01*
X29017857Y57332143D01*
X28946428Y57296429D01*
X28910714Y57260715D01*
X28875000Y57189286D01*
X28875000Y57046429D01*
X28910714Y56975000D01*
X28946428Y56939286D01*
X29017857Y56903572D01*
X28589285Y58010715D02*
X28589285Y57653572D01*
X28946428Y57617858D01*
X28910714Y57653572D01*
X28875000Y57725000D01*
X28875000Y57903572D01*
X28910714Y57975000D01*
X28946428Y58010715D01*
X29017857Y58046429D01*
X29196428Y58046429D01*
X29267857Y58010715D01*
X29303571Y57975000D01*
X29339285Y57903572D01*
X29339285Y57725000D01*
X29303571Y57653572D01*
X29267857Y57617858D01*
X29217857Y78032143D02*
X29182142Y77996429D01*
X29075000Y77960715D01*
X29003571Y77960715D01*
X28896428Y77996429D01*
X28825000Y78067858D01*
X28789285Y78139286D01*
X28753571Y78282143D01*
X28753571Y78389286D01*
X28789285Y78532143D01*
X28825000Y78603572D01*
X28896428Y78675000D01*
X29003571Y78710715D01*
X29075000Y78710715D01*
X29182142Y78675000D01*
X29217857Y78639286D01*
X29860714Y78710715D02*
X29717857Y78710715D01*
X29646428Y78675000D01*
X29610714Y78639286D01*
X29539285Y78532143D01*
X29503571Y78389286D01*
X29503571Y78103572D01*
X29539285Y78032143D01*
X29575000Y77996429D01*
X29646428Y77960715D01*
X29789285Y77960715D01*
X29860714Y77996429D01*
X29896428Y78032143D01*
X29932142Y78103572D01*
X29932142Y78282143D01*
X29896428Y78353572D01*
X29860714Y78389286D01*
X29789285Y78425000D01*
X29646428Y78425000D01*
X29575000Y78389286D01*
X29539285Y78353572D01*
X29503571Y78282143D01*
X30182142Y78710715D02*
X30646428Y78710715D01*
X30396428Y78425000D01*
X30503571Y78425000D01*
X30575000Y78389286D01*
X30610714Y78353572D01*
X30646428Y78282143D01*
X30646428Y78103572D01*
X30610714Y78032143D01*
X30575000Y77996429D01*
X30503571Y77960715D01*
X30289285Y77960715D01*
X30217857Y77996429D01*
X30182142Y78032143D01*
X9067857Y56617858D02*
X9103571Y56582143D01*
X9139285Y56475000D01*
X9139285Y56403572D01*
X9103571Y56296429D01*
X9032142Y56225000D01*
X8960714Y56189286D01*
X8817857Y56153572D01*
X8710714Y56153572D01*
X8567857Y56189286D01*
X8496428Y56225000D01*
X8425000Y56296429D01*
X8389285Y56403572D01*
X8389285Y56475000D01*
X8425000Y56582143D01*
X8460714Y56617858D01*
X8389285Y57260715D02*
X8389285Y57117858D01*
X8425000Y57046429D01*
X8460714Y57010715D01*
X8567857Y56939286D01*
X8710714Y56903572D01*
X8996428Y56903572D01*
X9067857Y56939286D01*
X9103571Y56975000D01*
X9139285Y57046429D01*
X9139285Y57189286D01*
X9103571Y57260715D01*
X9067857Y57296429D01*
X8996428Y57332143D01*
X8817857Y57332143D01*
X8746428Y57296429D01*
X8710714Y57260715D01*
X8675000Y57189286D01*
X8675000Y57046429D01*
X8710714Y56975000D01*
X8746428Y56939286D01*
X8817857Y56903572D01*
X8460714Y57617858D02*
X8425000Y57653572D01*
X8389285Y57725000D01*
X8389285Y57903572D01*
X8425000Y57975000D01*
X8460714Y58010715D01*
X8532142Y58046429D01*
X8603571Y58046429D01*
X8710714Y58010715D01*
X9139285Y57582143D01*
X9139285Y58046429D01*
X9150000Y78050000D02*
X9116666Y78016667D01*
X9016666Y77983334D01*
X8950000Y77983334D01*
X8850000Y78016667D01*
X8783333Y78083334D01*
X8750000Y78150000D01*
X8716666Y78283334D01*
X8716666Y78383334D01*
X8750000Y78516667D01*
X8783333Y78583334D01*
X8850000Y78650000D01*
X8950000Y78683334D01*
X9016666Y78683334D01*
X9116666Y78650000D01*
X9150000Y78616667D01*
X9750000Y78683334D02*
X9616666Y78683334D01*
X9550000Y78650000D01*
X9516666Y78616667D01*
X9450000Y78516667D01*
X9416666Y78383334D01*
X9416666Y78116667D01*
X9450000Y78050000D01*
X9483333Y78016667D01*
X9550000Y77983334D01*
X9683333Y77983334D01*
X9750000Y78016667D01*
X9783333Y78050000D01*
X9816666Y78116667D01*
X9816666Y78283334D01*
X9783333Y78350000D01*
X9750000Y78383334D01*
X9683333Y78416667D01*
X9550000Y78416667D01*
X9483333Y78383334D01*
X9450000Y78350000D01*
X9416666Y78283334D01*
X10483333Y77983334D02*
X10083333Y77983334D01*
X10283333Y77983334D02*
X10283333Y78683334D01*
X10216666Y78583334D01*
X10150000Y78516667D01*
X10083333Y78483334D01*
X28928571Y3060715D02*
X28928571Y3810715D01*
X28928571Y3453572D02*
X29357142Y3453572D01*
X29357142Y3060715D02*
X29357142Y3810715D01*
X30071428Y3810715D02*
X29714285Y3810715D01*
X29678571Y3453572D01*
X29714285Y3489286D01*
X29785714Y3525000D01*
X29964285Y3525000D01*
X30035714Y3489286D01*
X30071428Y3453572D01*
X30107142Y3382143D01*
X30107142Y3203572D01*
X30071428Y3132143D01*
X30035714Y3096429D01*
X29964285Y3060715D01*
X29785714Y3060715D01*
X29714285Y3096429D01*
X29678571Y3132143D01*
X14126190Y33519048D02*
X14530952Y33519048D01*
X14578571Y33542858D01*
X14602380Y33566667D01*
X14626190Y33614286D01*
X14626190Y33709524D01*
X14602380Y33757143D01*
X14578571Y33780953D01*
X14530952Y33804762D01*
X14126190Y33804762D01*
X14126190Y34257143D02*
X14126190Y34161905D01*
X14150000Y34114286D01*
X14173809Y34090477D01*
X14245238Y34042858D01*
X14340476Y34019048D01*
X14530952Y34019048D01*
X14578571Y34042858D01*
X14602380Y34066667D01*
X14626190Y34114286D01*
X14626190Y34209524D01*
X14602380Y34257143D01*
X14578571Y34280953D01*
X14530952Y34304762D01*
X14411904Y34304762D01*
X14364285Y34280953D01*
X14340476Y34257143D01*
X14316666Y34209524D01*
X14316666Y34114286D01*
X14340476Y34066667D01*
X14364285Y34042858D01*
X14411904Y34019048D01*
X10826190Y30678572D02*
X10588095Y30511905D01*
X10826190Y30392858D02*
X10326190Y30392858D01*
X10326190Y30583334D01*
X10350000Y30630953D01*
X10373809Y30654762D01*
X10421428Y30678572D01*
X10492857Y30678572D01*
X10540476Y30654762D01*
X10564285Y30630953D01*
X10588095Y30583334D01*
X10588095Y30392858D01*
X10326190Y30845239D02*
X10326190Y31178572D01*
X10826190Y30964286D01*
X10326190Y31464286D02*
X10326190Y31511905D01*
X10350000Y31559524D01*
X10373809Y31583334D01*
X10421428Y31607143D01*
X10516666Y31630953D01*
X10635714Y31630953D01*
X10730952Y31607143D01*
X10778571Y31583334D01*
X10802380Y31559524D01*
X10826190Y31511905D01*
X10826190Y31464286D01*
X10802380Y31416667D01*
X10778571Y31392858D01*
X10730952Y31369048D01*
X10635714Y31345239D01*
X10516666Y31345239D01*
X10421428Y31369048D01*
X10373809Y31392858D01*
X10350000Y31416667D01*
X10326190Y31464286D01*
X10826190Y32178572D02*
X10588095Y32011905D01*
X10826190Y31892858D02*
X10326190Y31892858D01*
X10326190Y32083334D01*
X10350000Y32130953D01*
X10373809Y32154762D01*
X10421428Y32178572D01*
X10492857Y32178572D01*
X10540476Y32154762D01*
X10564285Y32130953D01*
X10588095Y32083334D01*
X10588095Y31892858D01*
X10326190Y32607143D02*
X10326190Y32511905D01*
X10350000Y32464286D01*
X10373809Y32440477D01*
X10445238Y32392858D01*
X10540476Y32369048D01*
X10730952Y32369048D01*
X10778571Y32392858D01*
X10802380Y32416667D01*
X10826190Y32464286D01*
X10826190Y32559524D01*
X10802380Y32607143D01*
X10778571Y32630953D01*
X10730952Y32654762D01*
X10611904Y32654762D01*
X10564285Y32630953D01*
X10540476Y32607143D01*
X10516666Y32559524D01*
X10516666Y32464286D01*
X10540476Y32416667D01*
X10564285Y32392858D01*
X10611904Y32369048D01*
X10826190Y32892858D02*
X10826190Y32988096D01*
X10802380Y33035715D01*
X10778571Y33059524D01*
X10707142Y33107143D01*
X10611904Y33130953D01*
X10421428Y33130953D01*
X10373809Y33107143D01*
X10350000Y33083334D01*
X10326190Y33035715D01*
X10326190Y32940477D01*
X10350000Y32892858D01*
X10373809Y32869048D01*
X10421428Y32845239D01*
X10540476Y32845239D01*
X10588095Y32869048D01*
X10611904Y32892858D01*
X10635714Y32940477D01*
X10635714Y33035715D01*
X10611904Y33083334D01*
X10588095Y33107143D01*
X10540476Y33130953D01*
X11578571Y38321429D02*
X11554761Y38297620D01*
X11483333Y38273810D01*
X11435714Y38273810D01*
X11364285Y38297620D01*
X11316666Y38345239D01*
X11292857Y38392858D01*
X11269047Y38488096D01*
X11269047Y38559524D01*
X11292857Y38654762D01*
X11316666Y38702381D01*
X11364285Y38750000D01*
X11435714Y38773810D01*
X11483333Y38773810D01*
X11554761Y38750000D01*
X11578571Y38726191D01*
X12007142Y38773810D02*
X11911904Y38773810D01*
X11864285Y38750000D01*
X11840476Y38726191D01*
X11792857Y38654762D01*
X11769047Y38559524D01*
X11769047Y38369048D01*
X11792857Y38321429D01*
X11816666Y38297620D01*
X11864285Y38273810D01*
X11959523Y38273810D01*
X12007142Y38297620D01*
X12030952Y38321429D01*
X12054761Y38369048D01*
X12054761Y38488096D01*
X12030952Y38535715D01*
X12007142Y38559524D01*
X11959523Y38583334D01*
X11864285Y38583334D01*
X11816666Y38559524D01*
X11792857Y38535715D01*
X11769047Y38488096D01*
X12483333Y38607143D02*
X12483333Y38273810D01*
X12364285Y38797620D02*
X12245238Y38440477D01*
X12554761Y38440477D01*
X8678571Y34678572D02*
X8702380Y34654762D01*
X8726190Y34583334D01*
X8726190Y34535715D01*
X8702380Y34464286D01*
X8654761Y34416667D01*
X8607142Y34392858D01*
X8511904Y34369048D01*
X8440476Y34369048D01*
X8345238Y34392858D01*
X8297619Y34416667D01*
X8250000Y34464286D01*
X8226190Y34535715D01*
X8226190Y34583334D01*
X8250000Y34654762D01*
X8273809Y34678572D01*
X8226190Y35107143D02*
X8226190Y35011905D01*
X8250000Y34964286D01*
X8273809Y34940477D01*
X8345238Y34892858D01*
X8440476Y34869048D01*
X8630952Y34869048D01*
X8678571Y34892858D01*
X8702380Y34916667D01*
X8726190Y34964286D01*
X8726190Y35059524D01*
X8702380Y35107143D01*
X8678571Y35130953D01*
X8630952Y35154762D01*
X8511904Y35154762D01*
X8464285Y35130953D01*
X8440476Y35107143D01*
X8416666Y35059524D01*
X8416666Y34964286D01*
X8440476Y34916667D01*
X8464285Y34892858D01*
X8511904Y34869048D01*
X8226190Y35464286D02*
X8226190Y35511905D01*
X8250000Y35559524D01*
X8273809Y35583334D01*
X8321428Y35607143D01*
X8416666Y35630953D01*
X8535714Y35630953D01*
X8630952Y35607143D01*
X8678571Y35583334D01*
X8702380Y35559524D01*
X8726190Y35511905D01*
X8726190Y35464286D01*
X8702380Y35416667D01*
X8678571Y35392858D01*
X8630952Y35369048D01*
X8535714Y35345239D01*
X8416666Y35345239D01*
X8321428Y35369048D01*
X8273809Y35392858D01*
X8250000Y35416667D01*
X8226190Y35464286D01*
D10*
X14166666Y4447620D02*
X14166666Y3733334D01*
X14119047Y3590477D01*
X14023809Y3495239D01*
X13880952Y3447620D01*
X13785714Y3447620D01*
X14595238Y4352381D02*
X14642857Y4400000D01*
X14738095Y4447620D01*
X14976190Y4447620D01*
X15071428Y4400000D01*
X15119047Y4352381D01*
X15166666Y4257143D01*
X15166666Y4161905D01*
X15119047Y4019048D01*
X14547619Y3447620D01*
X15166666Y3447620D01*
D13*
X23450000Y4210715D02*
X23450000Y3675000D01*
X23414285Y3567858D01*
X23342857Y3496429D01*
X23235714Y3460715D01*
X23164285Y3460715D01*
X23735714Y4210715D02*
X24200000Y4210715D01*
X23950000Y3925000D01*
X24057142Y3925000D01*
X24128571Y3889286D01*
X24164285Y3853572D01*
X24200000Y3782143D01*
X24200000Y3603572D01*
X24164285Y3532143D01*
X24128571Y3496429D01*
X24057142Y3460715D01*
X23842857Y3460715D01*
X23771428Y3496429D01*
X23735714Y3532143D01*
X46446428Y3360715D02*
X46446428Y4110715D01*
X46732142Y4110715D01*
X46803571Y4075000D01*
X46839285Y4039286D01*
X46875000Y3967858D01*
X46875000Y3860715D01*
X46839285Y3789286D01*
X46803571Y3753572D01*
X46732142Y3717858D01*
X46446428Y3717858D01*
X47517857Y3860715D02*
X47517857Y3360715D01*
X47339285Y4146429D02*
X47160714Y3610715D01*
X47625000Y3610715D01*
X53750000Y4310715D02*
X53750000Y3775000D01*
X53714285Y3667858D01*
X53642857Y3596429D01*
X53535714Y3560715D01*
X53464285Y3560715D01*
X54500000Y3560715D02*
X54071428Y3560715D01*
X54285714Y3560715D02*
X54285714Y4310715D01*
X54214285Y4203572D01*
X54142857Y4132143D01*
X54071428Y4096429D01*
X50150000Y10210715D02*
X50150000Y9675000D01*
X50114285Y9567858D01*
X50042857Y9496429D01*
X49935714Y9460715D01*
X49864285Y9460715D01*
X50828571Y9960715D02*
X50828571Y9460715D01*
X50650000Y10246429D02*
X50471428Y9710715D01*
X50935714Y9710715D01*
X50139285Y56617858D02*
X49782142Y56367858D01*
X50139285Y56189286D02*
X49389285Y56189286D01*
X49389285Y56475000D01*
X49425000Y56546429D01*
X49460714Y56582143D01*
X49532142Y56617858D01*
X49639285Y56617858D01*
X49710714Y56582143D01*
X49746428Y56546429D01*
X49782142Y56475000D01*
X49782142Y56189286D01*
X49389285Y57296429D02*
X49389285Y56939286D01*
X49746428Y56903572D01*
X49710714Y56939286D01*
X49675000Y57010715D01*
X49675000Y57189286D01*
X49710714Y57260715D01*
X49746428Y57296429D01*
X49817857Y57332143D01*
X49996428Y57332143D01*
X50067857Y57296429D01*
X50103571Y57260715D01*
X50139285Y57189286D01*
X50139285Y57010715D01*
X50103571Y56939286D01*
X50067857Y56903572D01*
X49460714Y57617858D02*
X49425000Y57653572D01*
X49389285Y57725000D01*
X49389285Y57903572D01*
X49425000Y57975000D01*
X49460714Y58010715D01*
X49532142Y58046429D01*
X49603571Y58046429D01*
X49710714Y58010715D01*
X50139285Y57582143D01*
X50139285Y58046429D01*
X45217857Y97832143D02*
X45182142Y97796429D01*
X45075000Y97760715D01*
X45003571Y97760715D01*
X44896428Y97796429D01*
X44825000Y97867858D01*
X44789285Y97939286D01*
X44753571Y98082143D01*
X44753571Y98189286D01*
X44789285Y98332143D01*
X44825000Y98403572D01*
X44896428Y98475000D01*
X45003571Y98510715D01*
X45075000Y98510715D01*
X45182142Y98475000D01*
X45217857Y98439286D01*
X45467857Y98510715D02*
X45932142Y98510715D01*
X45682142Y98225000D01*
X45789285Y98225000D01*
X45860714Y98189286D01*
X45896428Y98153572D01*
X45932142Y98082143D01*
X45932142Y97903572D01*
X45896428Y97832143D01*
X45860714Y97796429D01*
X45789285Y97760715D01*
X45575000Y97760715D01*
X45503571Y97796429D01*
X45467857Y97832143D01*
X46289285Y97760715D02*
X46432142Y97760715D01*
X46503571Y97796429D01*
X46539285Y97832143D01*
X46610714Y97939286D01*
X46646428Y98082143D01*
X46646428Y98367858D01*
X46610714Y98439286D01*
X46575000Y98475000D01*
X46503571Y98510715D01*
X46360714Y98510715D01*
X46289285Y98475000D01*
X46253571Y98439286D01*
X46217857Y98367858D01*
X46217857Y98189286D01*
X46253571Y98117858D01*
X46289285Y98082143D01*
X46360714Y98046429D01*
X46503571Y98046429D01*
X46575000Y98082143D01*
X46610714Y98117858D01*
X46646428Y98189286D01*
D14*
X44178571Y104342858D02*
X44178571Y105271429D01*
X44750000Y104771429D01*
X44750000Y104985715D01*
X44821428Y105128572D01*
X44892857Y105200000D01*
X45035714Y105271429D01*
X45392857Y105271429D01*
X45535714Y105200000D01*
X45607142Y105128572D01*
X45678571Y104985715D01*
X45678571Y104557143D01*
X45607142Y104414286D01*
X45535714Y104342858D01*
X44178571Y105771429D02*
X44178571Y106700000D01*
X44750000Y106200000D01*
X44750000Y106414286D01*
X44821428Y106557143D01*
X44892857Y106628572D01*
X45035714Y106700000D01*
X45392857Y106700000D01*
X45535714Y106628572D01*
X45607142Y106557143D01*
X45678571Y106414286D01*
X45678571Y105985715D01*
X45607142Y105842858D01*
X45535714Y105771429D01*
X44178571Y107628572D02*
X44178571Y107771429D01*
X44250000Y107914286D01*
X44321428Y107985715D01*
X44464285Y108057143D01*
X44750000Y108128572D01*
X45107142Y108128572D01*
X45392857Y108057143D01*
X45535714Y107985715D01*
X45607142Y107914286D01*
X45678571Y107771429D01*
X45678571Y107628572D01*
X45607142Y107485715D01*
X45535714Y107414286D01*
X45392857Y107342858D01*
X45107142Y107271429D01*
X44750000Y107271429D01*
X44464285Y107342858D01*
X44321428Y107414286D01*
X44250000Y107485715D01*
X44178571Y107628572D01*
X44678571Y109414286D02*
X45678571Y109414286D01*
X44678571Y108771429D02*
X45464285Y108771429D01*
X45607142Y108842858D01*
X45678571Y108985715D01*
X45678571Y109200000D01*
X45607142Y109342858D01*
X45535714Y109414286D01*
X45607142Y110200000D02*
X45678571Y110200000D01*
X45821428Y110128572D01*
X45892857Y110057143D01*
X44178571Y112628572D02*
X44178571Y112342858D01*
X44250000Y112200000D01*
X44321428Y112128572D01*
X44535714Y111985715D01*
X44821428Y111914286D01*
X45392857Y111914286D01*
X45535714Y111985715D01*
X45607142Y112057143D01*
X45678571Y112200000D01*
X45678571Y112485715D01*
X45607142Y112628572D01*
X45535714Y112700000D01*
X45392857Y112771429D01*
X45035714Y112771429D01*
X44892857Y112700000D01*
X44821428Y112628572D01*
X44750000Y112485715D01*
X44750000Y112200000D01*
X44821428Y112057143D01*
X44892857Y111985715D01*
X45035714Y111914286D01*
X44178571Y113271429D02*
X44178571Y114200000D01*
X44750000Y113700000D01*
X44750000Y113914286D01*
X44821428Y114057143D01*
X44892857Y114128572D01*
X45035714Y114200000D01*
X45392857Y114200000D01*
X45535714Y114128572D01*
X45607142Y114057143D01*
X45678571Y113914286D01*
X45678571Y113485715D01*
X45607142Y113342858D01*
X45535714Y113271429D01*
X44178571Y114628572D02*
X45678571Y115128572D01*
X44178571Y115628572D01*
D13*
X39217857Y62160715D02*
X38967857Y62517858D01*
X38789285Y62160715D02*
X38789285Y62910715D01*
X39075000Y62910715D01*
X39146428Y62875000D01*
X39182142Y62839286D01*
X39217857Y62767858D01*
X39217857Y62660715D01*
X39182142Y62589286D01*
X39146428Y62553572D01*
X39075000Y62517858D01*
X38789285Y62517858D01*
X39896428Y62910715D02*
X39539285Y62910715D01*
X39503571Y62553572D01*
X39539285Y62589286D01*
X39610714Y62625000D01*
X39789285Y62625000D01*
X39860714Y62589286D01*
X39896428Y62553572D01*
X39932142Y62482143D01*
X39932142Y62303572D01*
X39896428Y62232143D01*
X39860714Y62196429D01*
X39789285Y62160715D01*
X39610714Y62160715D01*
X39539285Y62196429D01*
X39503571Y62232143D01*
X40575000Y62660715D02*
X40575000Y62160715D01*
X40396428Y62946429D02*
X40217857Y62410715D01*
X40682142Y62410715D01*
X13317857Y97632143D02*
X13282142Y97596429D01*
X13175000Y97560715D01*
X13103571Y97560715D01*
X12996428Y97596429D01*
X12925000Y97667858D01*
X12889285Y97739286D01*
X12853571Y97882143D01*
X12853571Y97989286D01*
X12889285Y98132143D01*
X12925000Y98203572D01*
X12996428Y98275000D01*
X13103571Y98310715D01*
X13175000Y98310715D01*
X13282142Y98275000D01*
X13317857Y98239286D01*
X13567857Y98310715D02*
X14032142Y98310715D01*
X13782142Y98025000D01*
X13889285Y98025000D01*
X13960714Y97989286D01*
X13996428Y97953572D01*
X14032142Y97882143D01*
X14032142Y97703572D01*
X13996428Y97632143D01*
X13960714Y97596429D01*
X13889285Y97560715D01*
X13675000Y97560715D01*
X13603571Y97596429D01*
X13567857Y97632143D01*
X14460714Y97989286D02*
X14389285Y98025000D01*
X14353571Y98060715D01*
X14317857Y98132143D01*
X14317857Y98167858D01*
X14353571Y98239286D01*
X14389285Y98275000D01*
X14460714Y98310715D01*
X14603571Y98310715D01*
X14675000Y98275000D01*
X14710714Y98239286D01*
X14746428Y98167858D01*
X14746428Y98132143D01*
X14710714Y98060715D01*
X14675000Y98025000D01*
X14603571Y97989286D01*
X14460714Y97989286D01*
X14389285Y97953572D01*
X14353571Y97917858D01*
X14317857Y97846429D01*
X14317857Y97703572D01*
X14353571Y97632143D01*
X14389285Y97596429D01*
X14460714Y97560715D01*
X14603571Y97560715D01*
X14675000Y97596429D01*
X14710714Y97632143D01*
X14746428Y97703572D01*
X14746428Y97846429D01*
X14710714Y97917858D01*
X14675000Y97953572D01*
X14603571Y97989286D01*
D14*
X12578571Y104392858D02*
X12578571Y105321429D01*
X13150000Y104821429D01*
X13150000Y105035715D01*
X13221428Y105178572D01*
X13292857Y105250000D01*
X13435714Y105321429D01*
X13792857Y105321429D01*
X13935714Y105250000D01*
X14007142Y105178572D01*
X14078571Y105035715D01*
X14078571Y104607143D01*
X14007142Y104464286D01*
X13935714Y104392858D01*
X12578571Y105821429D02*
X12578571Y106750000D01*
X13150000Y106250000D01*
X13150000Y106464286D01*
X13221428Y106607143D01*
X13292857Y106678572D01*
X13435714Y106750000D01*
X13792857Y106750000D01*
X13935714Y106678572D01*
X14007142Y106607143D01*
X14078571Y106464286D01*
X14078571Y106035715D01*
X14007142Y105892858D01*
X13935714Y105821429D01*
X12578571Y107678572D02*
X12578571Y107821429D01*
X12650000Y107964286D01*
X12721428Y108035715D01*
X12864285Y108107143D01*
X13150000Y108178572D01*
X13507142Y108178572D01*
X13792857Y108107143D01*
X13935714Y108035715D01*
X14007142Y107964286D01*
X14078571Y107821429D01*
X14078571Y107678572D01*
X14007142Y107535715D01*
X13935714Y107464286D01*
X13792857Y107392858D01*
X13507142Y107321429D01*
X13150000Y107321429D01*
X12864285Y107392858D01*
X12721428Y107464286D01*
X12650000Y107535715D01*
X12578571Y107678572D01*
X13078571Y109464286D02*
X14078571Y109464286D01*
X13078571Y108821429D02*
X13864285Y108821429D01*
X14007142Y108892858D01*
X14078571Y109035715D01*
X14078571Y109250000D01*
X14007142Y109392858D01*
X13935714Y109464286D01*
X14007142Y110250000D02*
X14078571Y110250000D01*
X14221428Y110178572D01*
X14292857Y110107143D01*
X12578571Y112678572D02*
X12578571Y112392858D01*
X12650000Y112250000D01*
X12721428Y112178572D01*
X12935714Y112035715D01*
X13221428Y111964286D01*
X13792857Y111964286D01*
X13935714Y112035715D01*
X14007142Y112107143D01*
X14078571Y112250000D01*
X14078571Y112535715D01*
X14007142Y112678572D01*
X13935714Y112750000D01*
X13792857Y112821429D01*
X13435714Y112821429D01*
X13292857Y112750000D01*
X13221428Y112678572D01*
X13150000Y112535715D01*
X13150000Y112250000D01*
X13221428Y112107143D01*
X13292857Y112035715D01*
X13435714Y111964286D01*
X12578571Y113321429D02*
X12578571Y114250000D01*
X13150000Y113750000D01*
X13150000Y113964286D01*
X13221428Y114107143D01*
X13292857Y114178572D01*
X13435714Y114250000D01*
X13792857Y114250000D01*
X13935714Y114178572D01*
X14007142Y114107143D01*
X14078571Y113964286D01*
X14078571Y113535715D01*
X14007142Y113392858D01*
X13935714Y113321429D01*
X12578571Y114678572D02*
X14078571Y115178572D01*
X12578571Y115678572D01*
D13*
X25050000Y25149657D02*
X25014285Y25113943D01*
X24907142Y25078229D01*
X24835714Y25078229D01*
X24728571Y25113943D01*
X24657142Y25185372D01*
X24621428Y25256800D01*
X24585714Y25399657D01*
X24585714Y25506800D01*
X24621428Y25649657D01*
X24657142Y25721086D01*
X24728571Y25792514D01*
X24835714Y25828229D01*
X24907142Y25828229D01*
X25014285Y25792514D01*
X25050000Y25756800D01*
X25764285Y25078229D02*
X25335714Y25078229D01*
X25550000Y25078229D02*
X25550000Y25828229D01*
X25478571Y25721086D01*
X25407142Y25649657D01*
X25335714Y25613943D01*
X15867857Y27460715D02*
X15617857Y27817858D01*
X15439285Y27460715D02*
X15439285Y28210715D01*
X15725000Y28210715D01*
X15796428Y28175000D01*
X15832142Y28139286D01*
X15867857Y28067858D01*
X15867857Y27960715D01*
X15832142Y27889286D01*
X15796428Y27853572D01*
X15725000Y27817858D01*
X15439285Y27817858D01*
X16582142Y27460715D02*
X16153571Y27460715D01*
X16367857Y27460715D02*
X16367857Y28210715D01*
X16296428Y28103572D01*
X16225000Y28032143D01*
X16153571Y27996429D01*
X16832142Y28210715D02*
X17296428Y28210715D01*
X17046428Y27925000D01*
X17153571Y27925000D01*
X17225000Y27889286D01*
X17260714Y27853572D01*
X17296428Y27782143D01*
X17296428Y27603572D01*
X17260714Y27532143D01*
X17225000Y27496429D01*
X17153571Y27460715D01*
X16939285Y27460715D01*
X16867857Y27496429D01*
X16832142Y27532143D01*
X17614285Y34317858D02*
X17257142Y34067858D01*
X17614285Y33889286D02*
X16864285Y33889286D01*
X16864285Y34175000D01*
X16900000Y34246429D01*
X16935714Y34282143D01*
X17007142Y34317858D01*
X17114285Y34317858D01*
X17185714Y34282143D01*
X17221428Y34246429D01*
X17257142Y34175000D01*
X17257142Y33889286D01*
X16864285Y34567858D02*
X16864285Y35032143D01*
X17150000Y34782143D01*
X17150000Y34889286D01*
X17185714Y34960715D01*
X17221428Y34996429D01*
X17292857Y35032143D01*
X17471428Y35032143D01*
X17542857Y34996429D01*
X17578571Y34960715D01*
X17614285Y34889286D01*
X17614285Y34675000D01*
X17578571Y34603572D01*
X17542857Y34567858D01*
X16935714Y35317858D02*
X16900000Y35353572D01*
X16864285Y35425000D01*
X16864285Y35603572D01*
X16900000Y35675000D01*
X16935714Y35710715D01*
X17007142Y35746429D01*
X17078571Y35746429D01*
X17185714Y35710715D01*
X17614285Y35282143D01*
X17614285Y35746429D01*
X31767857Y29967858D02*
X31803571Y29932143D01*
X31839285Y29825000D01*
X31839285Y29753572D01*
X31803571Y29646429D01*
X31732142Y29575000D01*
X31660714Y29539286D01*
X31517857Y29503572D01*
X31410714Y29503572D01*
X31267857Y29539286D01*
X31196428Y29575000D01*
X31125000Y29646429D01*
X31089285Y29753572D01*
X31089285Y29825000D01*
X31125000Y29932143D01*
X31160714Y29967858D01*
X31089285Y30646429D02*
X31089285Y30289286D01*
X31446428Y30253572D01*
X31410714Y30289286D01*
X31375000Y30360715D01*
X31375000Y30539286D01*
X31410714Y30610715D01*
X31446428Y30646429D01*
X31517857Y30682143D01*
X31696428Y30682143D01*
X31767857Y30646429D01*
X31803571Y30610715D01*
X31839285Y30539286D01*
X31839285Y30360715D01*
X31803571Y30289286D01*
X31767857Y30253572D01*
X31839285Y31396429D02*
X31839285Y30967858D01*
X31839285Y31182143D02*
X31089285Y31182143D01*
X31196428Y31110715D01*
X31267857Y31039286D01*
X31303571Y30967858D01*
X30303571Y23810715D02*
X30303571Y23203572D01*
X30339285Y23132143D01*
X30375000Y23096429D01*
X30446428Y23060715D01*
X30589285Y23060715D01*
X30660714Y23096429D01*
X30696428Y23132143D01*
X30732142Y23203572D01*
X30732142Y23810715D01*
X31446428Y23810715D02*
X31089285Y23810715D01*
X31053571Y23453572D01*
X31089285Y23489286D01*
X31160714Y23525000D01*
X31339285Y23525000D01*
X31410714Y23489286D01*
X31446428Y23453572D01*
X31482142Y23382143D01*
X31482142Y23203572D01*
X31446428Y23132143D01*
X31410714Y23096429D01*
X31339285Y23060715D01*
X31160714Y23060715D01*
X31089285Y23096429D01*
X31053571Y23132143D01*
X26392857Y27932143D02*
X26357142Y27896429D01*
X26250000Y27860715D01*
X26178571Y27860715D01*
X26071428Y27896429D01*
X26000000Y27967858D01*
X25964285Y28039286D01*
X25928571Y28182143D01*
X25928571Y28289286D01*
X25964285Y28432143D01*
X26000000Y28503572D01*
X26071428Y28575000D01*
X26178571Y28610715D01*
X26250000Y28610715D01*
X26357142Y28575000D01*
X26392857Y28539286D01*
X27071428Y28610715D02*
X26714285Y28610715D01*
X26678571Y28253572D01*
X26714285Y28289286D01*
X26785714Y28325000D01*
X26964285Y28325000D01*
X27035714Y28289286D01*
X27071428Y28253572D01*
X27107142Y28182143D01*
X27107142Y28003572D01*
X27071428Y27932143D01*
X27035714Y27896429D01*
X26964285Y27860715D01*
X26785714Y27860715D01*
X26714285Y27896429D01*
X26678571Y27932143D01*
X27392857Y28539286D02*
X27428571Y28575000D01*
X27500000Y28610715D01*
X27678571Y28610715D01*
X27750000Y28575000D01*
X27785714Y28539286D01*
X27821428Y28467858D01*
X27821428Y28396429D01*
X27785714Y28289286D01*
X27357142Y27860715D01*
X27821428Y27860715D01*
X30839285Y56817858D02*
X30482142Y56567858D01*
X30839285Y56389286D02*
X30089285Y56389286D01*
X30089285Y56675000D01*
X30125000Y56746429D01*
X30160714Y56782143D01*
X30232142Y56817858D01*
X30339285Y56817858D01*
X30410714Y56782143D01*
X30446428Y56746429D01*
X30482142Y56675000D01*
X30482142Y56389286D01*
X30089285Y57496429D02*
X30089285Y57139286D01*
X30446428Y57103572D01*
X30410714Y57139286D01*
X30375000Y57210715D01*
X30375000Y57389286D01*
X30410714Y57460715D01*
X30446428Y57496429D01*
X30517857Y57532143D01*
X30696428Y57532143D01*
X30767857Y57496429D01*
X30803571Y57460715D01*
X30839285Y57389286D01*
X30839285Y57210715D01*
X30803571Y57139286D01*
X30767857Y57103572D01*
X30839285Y58246429D02*
X30839285Y57817858D01*
X30839285Y58032143D02*
X30089285Y58032143D01*
X30196428Y57960715D01*
X30267857Y57889286D01*
X30303571Y57817858D01*
X52353571Y95960715D02*
X52353571Y96710715D01*
X52353571Y96353572D02*
X52782142Y96353572D01*
X52782142Y95960715D02*
X52782142Y96710715D01*
X53246428Y96389286D02*
X53175000Y96425000D01*
X53139285Y96460715D01*
X53103571Y96532143D01*
X53103571Y96567858D01*
X53139285Y96639286D01*
X53175000Y96675000D01*
X53246428Y96710715D01*
X53389285Y96710715D01*
X53460714Y96675000D01*
X53496428Y96639286D01*
X53532142Y96567858D01*
X53532142Y96532143D01*
X53496428Y96460715D01*
X53460714Y96425000D01*
X53389285Y96389286D01*
X53246428Y96389286D01*
X53175000Y96353572D01*
X53139285Y96317858D01*
X53103571Y96246429D01*
X53103571Y96103572D01*
X53139285Y96032143D01*
X53175000Y95996429D01*
X53246428Y95960715D01*
X53389285Y95960715D01*
X53460714Y95996429D01*
X53496428Y96032143D01*
X53532142Y96103572D01*
X53532142Y96246429D01*
X53496428Y96317858D01*
X53460714Y96353572D01*
X53389285Y96389286D01*
X55217857Y18860715D02*
X54967857Y19217858D01*
X54789285Y18860715D02*
X54789285Y19610715D01*
X55075000Y19610715D01*
X55146428Y19575000D01*
X55182142Y19539286D01*
X55217857Y19467858D01*
X55217857Y19360715D01*
X55182142Y19289286D01*
X55146428Y19253572D01*
X55075000Y19217858D01*
X54789285Y19217858D01*
X55860714Y19610715D02*
X55717857Y19610715D01*
X55646428Y19575000D01*
X55610714Y19539286D01*
X55539285Y19432143D01*
X55503571Y19289286D01*
X55503571Y19003572D01*
X55539285Y18932143D01*
X55575000Y18896429D01*
X55646428Y18860715D01*
X55789285Y18860715D01*
X55860714Y18896429D01*
X55896428Y18932143D01*
X55932142Y19003572D01*
X55932142Y19182143D01*
X55896428Y19253572D01*
X55860714Y19289286D01*
X55789285Y19325000D01*
X55646428Y19325000D01*
X55575000Y19289286D01*
X55539285Y19253572D01*
X55503571Y19182143D01*
X56182142Y19610715D02*
X56646428Y19610715D01*
X56396428Y19325000D01*
X56503571Y19325000D01*
X56575000Y19289286D01*
X56610714Y19253572D01*
X56646428Y19182143D01*
X56646428Y19003572D01*
X56610714Y18932143D01*
X56575000Y18896429D01*
X56503571Y18860715D01*
X56289285Y18860715D01*
X56217857Y18896429D01*
X56182142Y18932143D01*
X964285Y9346429D02*
X214285Y9346429D01*
X214285Y9632143D01*
X250000Y9703572D01*
X285714Y9739286D01*
X357142Y9775000D01*
X464285Y9775000D01*
X535714Y9739286D01*
X571428Y9703572D01*
X607142Y9632143D01*
X607142Y9346429D01*
X214285Y10453572D02*
X214285Y10096429D01*
X571428Y10060715D01*
X535714Y10096429D01*
X500000Y10167858D01*
X500000Y10346429D01*
X535714Y10417858D01*
X571428Y10453572D01*
X642857Y10489286D01*
X821428Y10489286D01*
X892857Y10453572D01*
X928571Y10417858D01*
X964285Y10346429D01*
X964285Y10167858D01*
X928571Y10096429D01*
X892857Y10060715D01*
X19592857Y9728230D02*
X19342857Y10085373D01*
X19164285Y9728230D02*
X19164285Y10478230D01*
X19450000Y10478230D01*
X19521428Y10442515D01*
X19557142Y10406801D01*
X19592857Y10335373D01*
X19592857Y10228230D01*
X19557142Y10156801D01*
X19521428Y10121087D01*
X19450000Y10085373D01*
X19164285Y10085373D01*
X20307142Y9728230D02*
X19878571Y9728230D01*
X20092857Y9728230D02*
X20092857Y10478230D01*
X20021428Y10371087D01*
X19950000Y10299658D01*
X19878571Y10263944D01*
X20557142Y10478230D02*
X21057142Y10478230D01*
X20735714Y9728230D01*
X27067857Y52582143D02*
X27032142Y52546429D01*
X26925000Y52510715D01*
X26853571Y52510715D01*
X26746428Y52546429D01*
X26675000Y52617858D01*
X26639285Y52689286D01*
X26603571Y52832143D01*
X26603571Y52939286D01*
X26639285Y53082143D01*
X26675000Y53153572D01*
X26746428Y53225000D01*
X26853571Y53260715D01*
X26925000Y53260715D01*
X27032142Y53225000D01*
X27067857Y53189286D01*
X27782142Y52510715D02*
X27353571Y52510715D01*
X27567857Y52510715D02*
X27567857Y53260715D01*
X27496428Y53153572D01*
X27425000Y53082143D01*
X27353571Y53046429D01*
X28210714Y52939286D02*
X28139285Y52975000D01*
X28103571Y53010715D01*
X28067857Y53082143D01*
X28067857Y53117858D01*
X28103571Y53189286D01*
X28139285Y53225000D01*
X28210714Y53260715D01*
X28353571Y53260715D01*
X28425000Y53225000D01*
X28460714Y53189286D01*
X28496428Y53117858D01*
X28496428Y53082143D01*
X28460714Y53010715D01*
X28425000Y52975000D01*
X28353571Y52939286D01*
X28210714Y52939286D01*
X28139285Y52903572D01*
X28103571Y52867858D01*
X28067857Y52796429D01*
X28067857Y52653572D01*
X28103571Y52582143D01*
X28139285Y52546429D01*
X28210714Y52510715D01*
X28353571Y52510715D01*
X28425000Y52546429D01*
X28460714Y52582143D01*
X28496428Y52653572D01*
X28496428Y52796429D01*
X28460714Y52867858D01*
X28425000Y52903572D01*
X28353571Y52939286D01*
X10639285Y56517858D02*
X10282142Y56267858D01*
X10639285Y56089286D02*
X9889285Y56089286D01*
X9889285Y56375000D01*
X9925000Y56446429D01*
X9960714Y56482143D01*
X10032142Y56517858D01*
X10139285Y56517858D01*
X10210714Y56482143D01*
X10246428Y56446429D01*
X10282142Y56375000D01*
X10282142Y56089286D01*
X9889285Y57196429D02*
X9889285Y56839286D01*
X10246428Y56803572D01*
X10210714Y56839286D01*
X10175000Y56910715D01*
X10175000Y57089286D01*
X10210714Y57160715D01*
X10246428Y57196429D01*
X10317857Y57232143D01*
X10496428Y57232143D01*
X10567857Y57196429D01*
X10603571Y57160715D01*
X10639285Y57089286D01*
X10639285Y56910715D01*
X10603571Y56839286D01*
X10567857Y56803572D01*
X9889285Y57696429D02*
X9889285Y57767858D01*
X9925000Y57839286D01*
X9960714Y57875000D01*
X10032142Y57910715D01*
X10175000Y57946429D01*
X10353571Y57946429D01*
X10496428Y57910715D01*
X10567857Y57875000D01*
X10603571Y57839286D01*
X10639285Y57767858D01*
X10639285Y57696429D01*
X10603571Y57625000D01*
X10567857Y57589286D01*
X10496428Y57553572D01*
X10353571Y57517858D01*
X10175000Y57517858D01*
X10032142Y57553572D01*
X9960714Y57589286D01*
X9925000Y57625000D01*
X9889285Y57696429D01*
X15192857Y22732143D02*
X15157142Y22696429D01*
X15050000Y22660715D01*
X14978571Y22660715D01*
X14871428Y22696429D01*
X14800000Y22767858D01*
X14764285Y22839286D01*
X14728571Y22982143D01*
X14728571Y23089286D01*
X14764285Y23232143D01*
X14800000Y23303572D01*
X14871428Y23375000D01*
X14978571Y23410715D01*
X15050000Y23410715D01*
X15157142Y23375000D01*
X15192857Y23339286D01*
X15835714Y23160715D02*
X15835714Y22660715D01*
X15657142Y23446429D02*
X15478571Y22910715D01*
X15942857Y22910715D01*
X16335714Y23089286D02*
X16264285Y23125000D01*
X16228571Y23160715D01*
X16192857Y23232143D01*
X16192857Y23267858D01*
X16228571Y23339286D01*
X16264285Y23375000D01*
X16335714Y23410715D01*
X16478571Y23410715D01*
X16550000Y23375000D01*
X16585714Y23339286D01*
X16621428Y23267858D01*
X16621428Y23232143D01*
X16585714Y23160715D01*
X16550000Y23125000D01*
X16478571Y23089286D01*
X16335714Y23089286D01*
X16264285Y23053572D01*
X16228571Y23017858D01*
X16192857Y22946429D01*
X16192857Y22803572D01*
X16228571Y22732143D01*
X16264285Y22696429D01*
X16335714Y22660715D01*
X16478571Y22660715D01*
X16550000Y22696429D01*
X16585714Y22732143D01*
X16621428Y22803572D01*
X16621428Y22946429D01*
X16585714Y23017858D01*
X16550000Y23053572D01*
X16478571Y23089286D01*
X5553571Y38760715D02*
X5553571Y39510715D01*
X5553571Y39153572D02*
X5982142Y39153572D01*
X5982142Y38760715D02*
X5982142Y39510715D01*
X6660714Y39510715D02*
X6517857Y39510715D01*
X6446428Y39475000D01*
X6410714Y39439286D01*
X6339285Y39332143D01*
X6303571Y39189286D01*
X6303571Y38903572D01*
X6339285Y38832143D01*
X6375000Y38796429D01*
X6446428Y38760715D01*
X6589285Y38760715D01*
X6660714Y38796429D01*
X6696428Y38832143D01*
X6732142Y38903572D01*
X6732142Y39082143D01*
X6696428Y39153572D01*
X6660714Y39189286D01*
X6589285Y39225000D01*
X6446428Y39225000D01*
X6375000Y39189286D01*
X6339285Y39153572D01*
X6303571Y39082143D01*
X21114285Y46117858D02*
X20757142Y45867858D01*
X21114285Y45689286D02*
X20364285Y45689286D01*
X20364285Y45975000D01*
X20400000Y46046429D01*
X20435714Y46082143D01*
X20507142Y46117858D01*
X20614285Y46117858D01*
X20685714Y46082143D01*
X20721428Y46046429D01*
X20757142Y45975000D01*
X20757142Y45689286D01*
X21114285Y46832143D02*
X21114285Y46403572D01*
X21114285Y46617858D02*
X20364285Y46617858D01*
X20471428Y46546429D01*
X20542857Y46475000D01*
X20578571Y46403572D01*
X20685714Y47260715D02*
X20650000Y47189286D01*
X20614285Y47153572D01*
X20542857Y47117858D01*
X20507142Y47117858D01*
X20435714Y47153572D01*
X20400000Y47189286D01*
X20364285Y47260715D01*
X20364285Y47403572D01*
X20400000Y47475000D01*
X20435714Y47510715D01*
X20507142Y47546429D01*
X20542857Y47546429D01*
X20614285Y47510715D01*
X20650000Y47475000D01*
X20685714Y47403572D01*
X20685714Y47260715D01*
X20721428Y47189286D01*
X20757142Y47153572D01*
X20828571Y47117858D01*
X20971428Y47117858D01*
X21042857Y47153572D01*
X21078571Y47189286D01*
X21114285Y47260715D01*
X21114285Y47403572D01*
X21078571Y47475000D01*
X21042857Y47510715D01*
X20971428Y47546429D01*
X20828571Y47546429D01*
X20757142Y47510715D01*
X20721428Y47475000D01*
X20685714Y47403572D01*
X18992857Y40060715D02*
X18742857Y40417858D01*
X18564285Y40060715D02*
X18564285Y40810715D01*
X18850000Y40810715D01*
X18921428Y40775000D01*
X18957142Y40739286D01*
X18992857Y40667858D01*
X18992857Y40560715D01*
X18957142Y40489286D01*
X18921428Y40453572D01*
X18850000Y40417858D01*
X18564285Y40417858D01*
X19278571Y40739286D02*
X19314285Y40775000D01*
X19385714Y40810715D01*
X19564285Y40810715D01*
X19635714Y40775000D01*
X19671428Y40739286D01*
X19707142Y40667858D01*
X19707142Y40596429D01*
X19671428Y40489286D01*
X19242857Y40060715D01*
X19707142Y40060715D01*
X20421428Y40060715D02*
X19992857Y40060715D01*
X20207142Y40060715D02*
X20207142Y40810715D01*
X20135714Y40703572D01*
X20064285Y40632143D01*
X19992857Y40596429D01*
X27814285Y39317858D02*
X27457142Y39067858D01*
X27814285Y38889286D02*
X27064285Y38889286D01*
X27064285Y39175000D01*
X27100000Y39246429D01*
X27135714Y39282143D01*
X27207142Y39317858D01*
X27314285Y39317858D01*
X27385714Y39282143D01*
X27421428Y39246429D01*
X27457142Y39175000D01*
X27457142Y38889286D01*
X27135714Y39603572D02*
X27100000Y39639286D01*
X27064285Y39710715D01*
X27064285Y39889286D01*
X27100000Y39960715D01*
X27135714Y39996429D01*
X27207142Y40032143D01*
X27278571Y40032143D01*
X27385714Y39996429D01*
X27814285Y39567858D01*
X27814285Y40032143D01*
X27064285Y40282143D02*
X27064285Y40746429D01*
X27350000Y40496429D01*
X27350000Y40603572D01*
X27385714Y40675000D01*
X27421428Y40710715D01*
X27492857Y40746429D01*
X27671428Y40746429D01*
X27742857Y40710715D01*
X27778571Y40675000D01*
X27814285Y40603572D01*
X27814285Y40389286D01*
X27778571Y40317858D01*
X27742857Y40282143D01*
X13992857Y39732143D02*
X13957142Y39696429D01*
X13850000Y39660715D01*
X13778571Y39660715D01*
X13671428Y39696429D01*
X13600000Y39767858D01*
X13564285Y39839286D01*
X13528571Y39982143D01*
X13528571Y40089286D01*
X13564285Y40232143D01*
X13600000Y40303572D01*
X13671428Y40375000D01*
X13778571Y40410715D01*
X13850000Y40410715D01*
X13957142Y40375000D01*
X13992857Y40339286D01*
X14278571Y40339286D02*
X14314285Y40375000D01*
X14385714Y40410715D01*
X14564285Y40410715D01*
X14635714Y40375000D01*
X14671428Y40339286D01*
X14707142Y40267858D01*
X14707142Y40196429D01*
X14671428Y40089286D01*
X14242857Y39660715D01*
X14707142Y39660715D01*
X15171428Y40410715D02*
X15242857Y40410715D01*
X15314285Y40375000D01*
X15350000Y40339286D01*
X15385714Y40267858D01*
X15421428Y40125000D01*
X15421428Y39946429D01*
X15385714Y39803572D01*
X15350000Y39732143D01*
X15314285Y39696429D01*
X15242857Y39660715D01*
X15171428Y39660715D01*
X15100000Y39696429D01*
X15064285Y39732143D01*
X15028571Y39803572D01*
X14992857Y39946429D01*
X14992857Y40125000D01*
X15028571Y40267858D01*
X15064285Y40339286D01*
X15100000Y40375000D01*
X15171428Y40410715D01*
X40717857Y42260715D02*
X40467857Y42617858D01*
X40289285Y42260715D02*
X40289285Y43010715D01*
X40575000Y43010715D01*
X40646428Y42975000D01*
X40682142Y42939286D01*
X40717857Y42867858D01*
X40717857Y42760715D01*
X40682142Y42689286D01*
X40646428Y42653572D01*
X40575000Y42617858D01*
X40289285Y42617858D01*
X40967857Y43010715D02*
X41432142Y43010715D01*
X41182142Y42725000D01*
X41289285Y42725000D01*
X41360714Y42689286D01*
X41396428Y42653572D01*
X41432142Y42582143D01*
X41432142Y42403572D01*
X41396428Y42332143D01*
X41360714Y42296429D01*
X41289285Y42260715D01*
X41075000Y42260715D01*
X41003571Y42296429D01*
X40967857Y42332143D01*
X42110714Y43010715D02*
X41753571Y43010715D01*
X41717857Y42653572D01*
X41753571Y42689286D01*
X41825000Y42725000D01*
X42003571Y42725000D01*
X42075000Y42689286D01*
X42110714Y42653572D01*
X42146428Y42582143D01*
X42146428Y42403572D01*
X42110714Y42332143D01*
X42075000Y42296429D01*
X42003571Y42260715D01*
X41825000Y42260715D01*
X41753571Y42296429D01*
X41717857Y42332143D01*
X9967857Y83155358D02*
X10003571Y83119643D01*
X10039285Y83012500D01*
X10039285Y82941072D01*
X10003571Y82833929D01*
X9932142Y82762500D01*
X9860714Y82726786D01*
X9717857Y82691072D01*
X9610714Y82691072D01*
X9467857Y82726786D01*
X9396428Y82762500D01*
X9325000Y82833929D01*
X9289285Y82941072D01*
X9289285Y83012500D01*
X9325000Y83119643D01*
X9360714Y83155358D01*
X9289285Y83405358D02*
X9289285Y83869643D01*
X9575000Y83619643D01*
X9575000Y83726786D01*
X9610714Y83798215D01*
X9646428Y83833929D01*
X9717857Y83869643D01*
X9896428Y83869643D01*
X9967857Y83833929D01*
X10003571Y83798215D01*
X10039285Y83726786D01*
X10039285Y83512500D01*
X10003571Y83441072D01*
X9967857Y83405358D01*
X9289285Y84512500D02*
X9289285Y84369643D01*
X9325000Y84298215D01*
X9360714Y84262500D01*
X9467857Y84191072D01*
X9610714Y84155358D01*
X9896428Y84155358D01*
X9967857Y84191072D01*
X10003571Y84226786D01*
X10039285Y84298215D01*
X10039285Y84441072D01*
X10003571Y84512500D01*
X9967857Y84548215D01*
X9896428Y84583929D01*
X9717857Y84583929D01*
X9646428Y84548215D01*
X9610714Y84512500D01*
X9575000Y84441072D01*
X9575000Y84298215D01*
X9610714Y84226786D01*
X9646428Y84191072D01*
X9717857Y84155358D01*
X4689285Y27150000D02*
X5225000Y27150000D01*
X5332142Y27114286D01*
X5403571Y27042858D01*
X5439285Y26935715D01*
X5439285Y26864286D01*
X4689285Y27864286D02*
X4689285Y27507143D01*
X5046428Y27471429D01*
X5010714Y27507143D01*
X4975000Y27578572D01*
X4975000Y27757143D01*
X5010714Y27828572D01*
X5046428Y27864286D01*
X5117857Y27900000D01*
X5296428Y27900000D01*
X5367857Y27864286D01*
X5403571Y27828572D01*
X5439285Y27757143D01*
X5439285Y27578572D01*
X5403571Y27507143D01*
X5367857Y27471429D01*
X12767857Y16375000D02*
X12803571Y16339286D01*
X12839285Y16232143D01*
X12839285Y16160715D01*
X12803571Y16053572D01*
X12732142Y15982143D01*
X12660714Y15946429D01*
X12517857Y15910715D01*
X12410714Y15910715D01*
X12267857Y15946429D01*
X12196428Y15982143D01*
X12125000Y16053572D01*
X12089285Y16160715D01*
X12089285Y16232143D01*
X12125000Y16339286D01*
X12160714Y16375000D01*
X12089285Y16625000D02*
X12089285Y17089286D01*
X12375000Y16839286D01*
X12375000Y16946429D01*
X12410714Y17017858D01*
X12446428Y17053572D01*
X12517857Y17089286D01*
X12696428Y17089286D01*
X12767857Y17053572D01*
X12803571Y17017858D01*
X12839285Y16946429D01*
X12839285Y16732143D01*
X12803571Y16660715D01*
X12767857Y16625000D01*
X23039285Y95614286D02*
X22289285Y95614286D01*
X23039285Y96042858D01*
X22289285Y96042858D01*
X22646428Y96400000D02*
X22646428Y96650000D01*
X23039285Y96757143D02*
X23039285Y96400000D01*
X22289285Y96400000D01*
X22289285Y96757143D01*
X22325000Y97471429D02*
X22289285Y97400000D01*
X22289285Y97292858D01*
X22325000Y97185715D01*
X22396428Y97114286D01*
X22467857Y97078572D01*
X22610714Y97042858D01*
X22717857Y97042858D01*
X22860714Y97078572D01*
X22932142Y97114286D01*
X23003571Y97185715D01*
X23039285Y97292858D01*
X23039285Y97364286D01*
X23003571Y97471429D01*
X22967857Y97507143D01*
X22717857Y97507143D01*
X22717857Y97364286D01*
X22289285Y97757143D02*
X22289285Y98221429D01*
X22575000Y97971429D01*
X22575000Y98078572D01*
X22610714Y98150000D01*
X22646428Y98185715D01*
X22717857Y98221429D01*
X22896428Y98221429D01*
X22967857Y98185715D01*
X23003571Y98150000D01*
X23039285Y98078572D01*
X23039285Y97864286D01*
X23003571Y97792858D01*
X22967857Y97757143D01*
X42239285Y44417858D02*
X41882142Y44167858D01*
X42239285Y43989286D02*
X41489285Y43989286D01*
X41489285Y44275000D01*
X41525000Y44346429D01*
X41560714Y44382143D01*
X41632142Y44417858D01*
X41739285Y44417858D01*
X41810714Y44382143D01*
X41846428Y44346429D01*
X41882142Y44275000D01*
X41882142Y43989286D01*
X41489285Y44667858D02*
X41489285Y45132143D01*
X41775000Y44882143D01*
X41775000Y44989286D01*
X41810714Y45060715D01*
X41846428Y45096429D01*
X41917857Y45132143D01*
X42096428Y45132143D01*
X42167857Y45096429D01*
X42203571Y45060715D01*
X42239285Y44989286D01*
X42239285Y44775000D01*
X42203571Y44703572D01*
X42167857Y44667858D01*
X41739285Y45775000D02*
X42239285Y45775000D01*
X41453571Y45596429D02*
X41989285Y45417858D01*
X41989285Y45882143D01*
X55139285Y57417858D02*
X54782142Y57167858D01*
X55139285Y56989286D02*
X54389285Y56989286D01*
X54389285Y57275000D01*
X54425000Y57346429D01*
X54460714Y57382143D01*
X54532142Y57417858D01*
X54639285Y57417858D01*
X54710714Y57382143D01*
X54746428Y57346429D01*
X54782142Y57275000D01*
X54782142Y56989286D01*
X54389285Y57667858D02*
X54389285Y58132143D01*
X54675000Y57882143D01*
X54675000Y57989286D01*
X54710714Y58060715D01*
X54746428Y58096429D01*
X54817857Y58132143D01*
X54996428Y58132143D01*
X55067857Y58096429D01*
X55103571Y58060715D01*
X55139285Y57989286D01*
X55139285Y57775000D01*
X55103571Y57703572D01*
X55067857Y57667858D01*
X54389285Y58775000D02*
X54389285Y58632143D01*
X54425000Y58560715D01*
X54460714Y58525000D01*
X54567857Y58453572D01*
X54710714Y58417858D01*
X54996428Y58417858D01*
X55067857Y58453572D01*
X55103571Y58489286D01*
X55139285Y58560715D01*
X55139285Y58703572D01*
X55103571Y58775000D01*
X55067857Y58810715D01*
X54996428Y58846429D01*
X54817857Y58846429D01*
X54746428Y58810715D01*
X54710714Y58775000D01*
X54675000Y58703572D01*
X54675000Y58560715D01*
X54710714Y58489286D01*
X54746428Y58453572D01*
X54817857Y58417858D01*
X47550000Y32032143D02*
X47514285Y31996429D01*
X47407142Y31960715D01*
X47335714Y31960715D01*
X47228571Y31996429D01*
X47157142Y32067858D01*
X47121428Y32139286D01*
X47085714Y32282143D01*
X47085714Y32389286D01*
X47121428Y32532143D01*
X47157142Y32603572D01*
X47228571Y32675000D01*
X47335714Y32710715D01*
X47407142Y32710715D01*
X47514285Y32675000D01*
X47550000Y32639286D01*
X47907142Y31960715D02*
X48050000Y31960715D01*
X48121428Y31996429D01*
X48157142Y32032143D01*
X48228571Y32139286D01*
X48264285Y32282143D01*
X48264285Y32567858D01*
X48228571Y32639286D01*
X48192857Y32675000D01*
X48121428Y32710715D01*
X47978571Y32710715D01*
X47907142Y32675000D01*
X47871428Y32639286D01*
X47835714Y32567858D01*
X47835714Y32389286D01*
X47871428Y32317858D01*
X47907142Y32282143D01*
X47978571Y32246429D01*
X48121428Y32246429D01*
X48192857Y32282143D01*
X48228571Y32317858D01*
X48264285Y32389286D01*
X37339285Y95596429D02*
X36589285Y95596429D01*
X36589285Y95882143D01*
X36625000Y95953572D01*
X36660714Y95989286D01*
X36732142Y96025000D01*
X36839285Y96025000D01*
X36910714Y95989286D01*
X36946428Y95953572D01*
X36982142Y95882143D01*
X36982142Y95596429D01*
X36589285Y96489286D02*
X36589285Y96632143D01*
X36625000Y96703572D01*
X36696428Y96775000D01*
X36839285Y96810715D01*
X37089285Y96810715D01*
X37232142Y96775000D01*
X37303571Y96703572D01*
X37339285Y96632143D01*
X37339285Y96489286D01*
X37303571Y96417858D01*
X37232142Y96346429D01*
X37089285Y96310715D01*
X36839285Y96310715D01*
X36696428Y96346429D01*
X36625000Y96417858D01*
X36589285Y96489286D01*
X37303571Y97096429D02*
X37339285Y97203572D01*
X37339285Y97382143D01*
X37303571Y97453572D01*
X37267857Y97489286D01*
X37196428Y97525000D01*
X37125000Y97525000D01*
X37053571Y97489286D01*
X37017857Y97453572D01*
X36982142Y97382143D01*
X36946428Y97239286D01*
X36910714Y97167858D01*
X36875000Y97132143D01*
X36803571Y97096429D01*
X36732142Y97096429D01*
X36660714Y97132143D01*
X36625000Y97167858D01*
X36589285Y97239286D01*
X36589285Y97417858D01*
X36625000Y97525000D01*
X37339285Y98239286D02*
X37339285Y97810715D01*
X37339285Y98025000D02*
X36589285Y98025000D01*
X36696428Y97953572D01*
X36767857Y97882143D01*
X36803571Y97810715D01*
X25114285Y8975000D02*
X24757142Y8725000D01*
X25114285Y8546429D02*
X24364285Y8546429D01*
X24364285Y8832143D01*
X24400000Y8903572D01*
X24435714Y8939286D01*
X24507142Y8975000D01*
X24614285Y8975000D01*
X24685714Y8939286D01*
X24721428Y8903572D01*
X24757142Y8832143D01*
X24757142Y8546429D01*
X24614285Y9617858D02*
X25114285Y9617858D01*
X24328571Y9439286D02*
X24864285Y9260715D01*
X24864285Y9725000D01*
X48750000Y76983334D02*
X48516666Y77316667D01*
X48350000Y76983334D02*
X48350000Y77683334D01*
X48616666Y77683334D01*
X48683333Y77650000D01*
X48716666Y77616667D01*
X48750000Y77550000D01*
X48750000Y77450000D01*
X48716666Y77383334D01*
X48683333Y77350000D01*
X48616666Y77316667D01*
X48350000Y77316667D01*
X49350000Y77450000D02*
X49350000Y76983334D01*
X49183333Y77716667D02*
X49016666Y77216667D01*
X49450000Y77216667D01*
X50016666Y77683334D02*
X49883333Y77683334D01*
X49816666Y77650000D01*
X49783333Y77616667D01*
X49716666Y77516667D01*
X49683333Y77383334D01*
X49683333Y77116667D01*
X49716666Y77050000D01*
X49750000Y77016667D01*
X49816666Y76983334D01*
X49950000Y76983334D01*
X50016666Y77016667D01*
X50050000Y77050000D01*
X50083333Y77116667D01*
X50083333Y77283334D01*
X50050000Y77350000D01*
X50016666Y77383334D01*
X49950000Y77416667D01*
X49816666Y77416667D01*
X49750000Y77383334D01*
X49716666Y77350000D01*
X49683333Y77283334D01*
X34267857Y39517858D02*
X34303571Y39482143D01*
X34339285Y39375000D01*
X34339285Y39303572D01*
X34303571Y39196429D01*
X34232142Y39125000D01*
X34160714Y39089286D01*
X34017857Y39053572D01*
X33910714Y39053572D01*
X33767857Y39089286D01*
X33696428Y39125000D01*
X33625000Y39196429D01*
X33589285Y39303572D01*
X33589285Y39375000D01*
X33625000Y39482143D01*
X33660714Y39517858D01*
X33660714Y39803572D02*
X33625000Y39839286D01*
X33589285Y39910715D01*
X33589285Y40089286D01*
X33625000Y40160715D01*
X33660714Y40196429D01*
X33732142Y40232143D01*
X33803571Y40232143D01*
X33910714Y40196429D01*
X34339285Y39767858D01*
X34339285Y40232143D01*
X33910714Y40660715D02*
X33875000Y40589286D01*
X33839285Y40553572D01*
X33767857Y40517858D01*
X33732142Y40517858D01*
X33660714Y40553572D01*
X33625000Y40589286D01*
X33589285Y40660715D01*
X33589285Y40803572D01*
X33625000Y40875000D01*
X33660714Y40910715D01*
X33732142Y40946429D01*
X33767857Y40946429D01*
X33839285Y40910715D01*
X33875000Y40875000D01*
X33910714Y40803572D01*
X33910714Y40660715D01*
X33946428Y40589286D01*
X33982142Y40553572D01*
X34053571Y40517858D01*
X34196428Y40517858D01*
X34267857Y40553572D01*
X34303571Y40589286D01*
X34339285Y40660715D01*
X34339285Y40803572D01*
X34303571Y40875000D01*
X34267857Y40910715D01*
X34196428Y40946429D01*
X34053571Y40946429D01*
X33982142Y40910715D01*
X33946428Y40875000D01*
X33910714Y40803572D01*
X23242857Y57660715D02*
X22992857Y58017858D01*
X22814285Y57660715D02*
X22814285Y58410715D01*
X23100000Y58410715D01*
X23171428Y58375000D01*
X23207142Y58339286D01*
X23242857Y58267858D01*
X23242857Y58160715D01*
X23207142Y58089286D01*
X23171428Y58053572D01*
X23100000Y58017858D01*
X22814285Y58017858D01*
X23492857Y58410715D02*
X23957142Y58410715D01*
X23707142Y58125000D01*
X23814285Y58125000D01*
X23885714Y58089286D01*
X23921428Y58053572D01*
X23957142Y57982143D01*
X23957142Y57803572D01*
X23921428Y57732143D01*
X23885714Y57696429D01*
X23814285Y57660715D01*
X23600000Y57660715D01*
X23528571Y57696429D01*
X23492857Y57732143D01*
X24671428Y57660715D02*
X24242857Y57660715D01*
X24457142Y57660715D02*
X24457142Y58410715D01*
X24385714Y58303572D01*
X24314285Y58232143D01*
X24242857Y58196429D01*
X22839285Y46017858D02*
X22482142Y45767858D01*
X22839285Y45589286D02*
X22089285Y45589286D01*
X22089285Y45875000D01*
X22125000Y45946429D01*
X22160714Y45982143D01*
X22232142Y46017858D01*
X22339285Y46017858D01*
X22410714Y45982143D01*
X22446428Y45946429D01*
X22482142Y45875000D01*
X22482142Y45589286D01*
X22839285Y46732143D02*
X22839285Y46303572D01*
X22839285Y46517858D02*
X22089285Y46517858D01*
X22196428Y46446429D01*
X22267857Y46375000D01*
X22303571Y46303572D01*
X22839285Y47089286D02*
X22839285Y47232143D01*
X22803571Y47303572D01*
X22767857Y47339286D01*
X22660714Y47410715D01*
X22517857Y47446429D01*
X22232142Y47446429D01*
X22160714Y47410715D01*
X22125000Y47375000D01*
X22089285Y47303572D01*
X22089285Y47160715D01*
X22125000Y47089286D01*
X22160714Y47053572D01*
X22232142Y47017858D01*
X22410714Y47017858D01*
X22482142Y47053572D01*
X22517857Y47089286D01*
X22553571Y47160715D01*
X22553571Y47303572D01*
X22517857Y47375000D01*
X22482142Y47410715D01*
X22410714Y47446429D01*
X15139285Y7575000D02*
X14782142Y7325000D01*
X15139285Y7146429D02*
X14389285Y7146429D01*
X14389285Y7432143D01*
X14425000Y7503572D01*
X14460714Y7539286D01*
X14532142Y7575000D01*
X14639285Y7575000D01*
X14710714Y7539286D01*
X14746428Y7503572D01*
X14782142Y7432143D01*
X14782142Y7146429D01*
X14389285Y7825000D02*
X14389285Y8325000D01*
X15139285Y8003572D01*
X12764285Y66871429D02*
X12014285Y66871429D01*
X12014285Y67157143D01*
X12050000Y67228572D01*
X12085714Y67264286D01*
X12157142Y67300000D01*
X12264285Y67300000D01*
X12335714Y67264286D01*
X12371428Y67228572D01*
X12407142Y67157143D01*
X12407142Y66871429D01*
X12764285Y68014286D02*
X12764285Y67585715D01*
X12764285Y67800000D02*
X12014285Y67800000D01*
X12121428Y67728572D01*
X12192857Y67657143D01*
X12228571Y67585715D01*
X25539285Y39730358D02*
X25182142Y39480358D01*
X25539285Y39301786D02*
X24789285Y39301786D01*
X24789285Y39587500D01*
X24825000Y39658929D01*
X24860714Y39694643D01*
X24932142Y39730358D01*
X25039285Y39730358D01*
X25110714Y39694643D01*
X25146428Y39658929D01*
X25182142Y39587500D01*
X25182142Y39301786D01*
X24860714Y40016072D02*
X24825000Y40051786D01*
X24789285Y40123215D01*
X24789285Y40301786D01*
X24825000Y40373215D01*
X24860714Y40408929D01*
X24932142Y40444643D01*
X25003571Y40444643D01*
X25110714Y40408929D01*
X25539285Y39980358D01*
X25539285Y40444643D01*
X24789285Y40908929D02*
X24789285Y40980358D01*
X24825000Y41051786D01*
X24860714Y41087500D01*
X24932142Y41123215D01*
X25075000Y41158929D01*
X25253571Y41158929D01*
X25396428Y41123215D01*
X25467857Y41087500D01*
X25503571Y41051786D01*
X25539285Y40980358D01*
X25539285Y40908929D01*
X25503571Y40837500D01*
X25467857Y40801786D01*
X25396428Y40766072D01*
X25253571Y40730358D01*
X25075000Y40730358D01*
X24932142Y40766072D01*
X24860714Y40801786D01*
X24825000Y40837500D01*
X24789285Y40908929D01*
X21139285Y72017858D02*
X20782142Y71767858D01*
X21139285Y71589286D02*
X20389285Y71589286D01*
X20389285Y71875000D01*
X20425000Y71946429D01*
X20460714Y71982143D01*
X20532142Y72017858D01*
X20639285Y72017858D01*
X20710714Y71982143D01*
X20746428Y71946429D01*
X20782142Y71875000D01*
X20782142Y71589286D01*
X20389285Y72696429D02*
X20389285Y72339286D01*
X20746428Y72303572D01*
X20710714Y72339286D01*
X20675000Y72410715D01*
X20675000Y72589286D01*
X20710714Y72660715D01*
X20746428Y72696429D01*
X20817857Y72732143D01*
X20996428Y72732143D01*
X21067857Y72696429D01*
X21103571Y72660715D01*
X21139285Y72589286D01*
X21139285Y72410715D01*
X21103571Y72339286D01*
X21067857Y72303572D01*
X20710714Y73160715D02*
X20675000Y73089286D01*
X20639285Y73053572D01*
X20567857Y73017858D01*
X20532142Y73017858D01*
X20460714Y73053572D01*
X20425000Y73089286D01*
X20389285Y73160715D01*
X20389285Y73303572D01*
X20425000Y73375000D01*
X20460714Y73410715D01*
X20532142Y73446429D01*
X20567857Y73446429D01*
X20639285Y73410715D01*
X20675000Y73375000D01*
X20710714Y73303572D01*
X20710714Y73160715D01*
X20746428Y73089286D01*
X20782142Y73053572D01*
X20853571Y73017858D01*
X20996428Y73017858D01*
X21067857Y73053572D01*
X21103571Y73089286D01*
X21139285Y73160715D01*
X21139285Y73303572D01*
X21103571Y73375000D01*
X21067857Y73410715D01*
X20996428Y73446429D01*
X20853571Y73446429D01*
X20782142Y73410715D01*
X20746428Y73375000D01*
X20710714Y73303572D01*
X30103571Y46260715D02*
X30103571Y47010715D01*
X30103571Y46653572D02*
X30532142Y46653572D01*
X30532142Y46260715D02*
X30532142Y47010715D01*
X30817857Y47010715D02*
X31317857Y47010715D01*
X30996428Y46260715D01*
X20575000Y33960715D02*
X20325000Y34317858D01*
X20146428Y33960715D02*
X20146428Y34710715D01*
X20432142Y34710715D01*
X20503571Y34675000D01*
X20539285Y34639286D01*
X20575000Y34567858D01*
X20575000Y34460715D01*
X20539285Y34389286D01*
X20503571Y34353572D01*
X20432142Y34317858D01*
X20146428Y34317858D01*
X20860714Y34639286D02*
X20896428Y34675000D01*
X20967857Y34710715D01*
X21146428Y34710715D01*
X21217857Y34675000D01*
X21253571Y34639286D01*
X21289285Y34567858D01*
X21289285Y34496429D01*
X21253571Y34389286D01*
X20825000Y33960715D01*
X21289285Y33960715D01*
X38767857Y39617858D02*
X38803571Y39582143D01*
X38839285Y39475000D01*
X38839285Y39403572D01*
X38803571Y39296429D01*
X38732142Y39225000D01*
X38660714Y39189286D01*
X38517857Y39153572D01*
X38410714Y39153572D01*
X38267857Y39189286D01*
X38196428Y39225000D01*
X38125000Y39296429D01*
X38089285Y39403572D01*
X38089285Y39475000D01*
X38125000Y39582143D01*
X38160714Y39617858D01*
X38089285Y39867858D02*
X38089285Y40332143D01*
X38375000Y40082143D01*
X38375000Y40189286D01*
X38410714Y40260715D01*
X38446428Y40296429D01*
X38517857Y40332143D01*
X38696428Y40332143D01*
X38767857Y40296429D01*
X38803571Y40260715D01*
X38839285Y40189286D01*
X38839285Y39975000D01*
X38803571Y39903572D01*
X38767857Y39867858D01*
X38089285Y40796429D02*
X38089285Y40867858D01*
X38125000Y40939286D01*
X38160714Y40975000D01*
X38232142Y41010715D01*
X38375000Y41046429D01*
X38553571Y41046429D01*
X38696428Y41010715D01*
X38767857Y40975000D01*
X38803571Y40939286D01*
X38839285Y40867858D01*
X38839285Y40796429D01*
X38803571Y40725000D01*
X38767857Y40689286D01*
X38696428Y40653572D01*
X38553571Y40617858D01*
X38375000Y40617858D01*
X38232142Y40653572D01*
X38160714Y40689286D01*
X38125000Y40725000D01*
X38089285Y40796429D01*
X44792857Y32032143D02*
X44757142Y31996429D01*
X44650000Y31960715D01*
X44578571Y31960715D01*
X44471428Y31996429D01*
X44400000Y32067858D01*
X44364285Y32139286D01*
X44328571Y32282143D01*
X44328571Y32389286D01*
X44364285Y32532143D01*
X44400000Y32603572D01*
X44471428Y32675000D01*
X44578571Y32710715D01*
X44650000Y32710715D01*
X44757142Y32675000D01*
X44792857Y32639286D01*
X45507142Y31960715D02*
X45078571Y31960715D01*
X45292857Y31960715D02*
X45292857Y32710715D01*
X45221428Y32603572D01*
X45150000Y32532143D01*
X45078571Y32496429D01*
X45971428Y32710715D02*
X46042857Y32710715D01*
X46114285Y32675000D01*
X46150000Y32639286D01*
X46185714Y32567858D01*
X46221428Y32425000D01*
X46221428Y32246429D01*
X46185714Y32103572D01*
X46150000Y32032143D01*
X46114285Y31996429D01*
X46042857Y31960715D01*
X45971428Y31960715D01*
X45900000Y31996429D01*
X45864285Y32032143D01*
X45828571Y32103572D01*
X45792857Y32246429D01*
X45792857Y32425000D01*
X45828571Y32567858D01*
X45864285Y32639286D01*
X45900000Y32675000D01*
X45971428Y32710715D01*
X39239285Y71917858D02*
X38882142Y71667858D01*
X39239285Y71489286D02*
X38489285Y71489286D01*
X38489285Y71775000D01*
X38525000Y71846429D01*
X38560714Y71882143D01*
X38632142Y71917858D01*
X38739285Y71917858D01*
X38810714Y71882143D01*
X38846428Y71846429D01*
X38882142Y71775000D01*
X38882142Y71489286D01*
X38489285Y72560715D02*
X38489285Y72417858D01*
X38525000Y72346429D01*
X38560714Y72310715D01*
X38667857Y72239286D01*
X38810714Y72203572D01*
X39096428Y72203572D01*
X39167857Y72239286D01*
X39203571Y72275000D01*
X39239285Y72346429D01*
X39239285Y72489286D01*
X39203571Y72560715D01*
X39167857Y72596429D01*
X39096428Y72632143D01*
X38917857Y72632143D01*
X38846428Y72596429D01*
X38810714Y72560715D01*
X38775000Y72489286D01*
X38775000Y72346429D01*
X38810714Y72275000D01*
X38846428Y72239286D01*
X38917857Y72203572D01*
X38489285Y73096429D02*
X38489285Y73167858D01*
X38525000Y73239286D01*
X38560714Y73275000D01*
X38632142Y73310715D01*
X38775000Y73346429D01*
X38953571Y73346429D01*
X39096428Y73310715D01*
X39167857Y73275000D01*
X39203571Y73239286D01*
X39239285Y73167858D01*
X39239285Y73096429D01*
X39203571Y73025000D01*
X39167857Y72989286D01*
X39096428Y72953572D01*
X38953571Y72917858D01*
X38775000Y72917858D01*
X38632142Y72953572D01*
X38560714Y72989286D01*
X38525000Y73025000D01*
X38489285Y73096429D01*
X11117857Y44532143D02*
X11082142Y44496429D01*
X10975000Y44460715D01*
X10903571Y44460715D01*
X10796428Y44496429D01*
X10725000Y44567858D01*
X10689285Y44639286D01*
X10653571Y44782143D01*
X10653571Y44889286D01*
X10689285Y45032143D01*
X10725000Y45103572D01*
X10796428Y45175000D01*
X10903571Y45210715D01*
X10975000Y45210715D01*
X11082142Y45175000D01*
X11117857Y45139286D01*
X11832142Y44460715D02*
X11403571Y44460715D01*
X11617857Y44460715D02*
X11617857Y45210715D01*
X11546428Y45103572D01*
X11475000Y45032143D01*
X11403571Y44996429D01*
X12189285Y44460715D02*
X12332142Y44460715D01*
X12403571Y44496429D01*
X12439285Y44532143D01*
X12510714Y44639286D01*
X12546428Y44782143D01*
X12546428Y45067858D01*
X12510714Y45139286D01*
X12475000Y45175000D01*
X12403571Y45210715D01*
X12260714Y45210715D01*
X12189285Y45175000D01*
X12153571Y45139286D01*
X12117857Y45067858D01*
X12117857Y44889286D01*
X12153571Y44817858D01*
X12189285Y44782143D01*
X12260714Y44746429D01*
X12403571Y44746429D01*
X12475000Y44782143D01*
X12510714Y44817858D01*
X12546428Y44889286D01*
X30192857Y32660715D02*
X29942857Y33017858D01*
X29764285Y32660715D02*
X29764285Y33410715D01*
X30050000Y33410715D01*
X30121428Y33375000D01*
X30157142Y33339286D01*
X30192857Y33267858D01*
X30192857Y33160715D01*
X30157142Y33089286D01*
X30121428Y33053572D01*
X30050000Y33017858D01*
X29764285Y33017858D01*
X30478571Y33339286D02*
X30514285Y33375000D01*
X30585714Y33410715D01*
X30764285Y33410715D01*
X30835714Y33375000D01*
X30871428Y33339286D01*
X30907142Y33267858D01*
X30907142Y33196429D01*
X30871428Y33089286D01*
X30442857Y32660715D01*
X30907142Y32660715D01*
X31550000Y33160715D02*
X31550000Y32660715D01*
X31371428Y33446429D02*
X31192857Y32910715D01*
X31657142Y32910715D01*
X33430357Y52032143D02*
X33394642Y51996429D01*
X33287500Y51960715D01*
X33216071Y51960715D01*
X33108928Y51996429D01*
X33037500Y52067858D01*
X33001785Y52139286D01*
X32966071Y52282143D01*
X32966071Y52389286D01*
X33001785Y52532143D01*
X33037500Y52603572D01*
X33108928Y52675000D01*
X33216071Y52710715D01*
X33287500Y52710715D01*
X33394642Y52675000D01*
X33430357Y52639286D01*
X33716071Y52639286D02*
X33751785Y52675000D01*
X33823214Y52710715D01*
X34001785Y52710715D01*
X34073214Y52675000D01*
X34108928Y52639286D01*
X34144642Y52567858D01*
X34144642Y52496429D01*
X34108928Y52389286D01*
X33680357Y51960715D01*
X34144642Y51960715D01*
X34394642Y52710715D02*
X34894642Y52710715D01*
X34573214Y51960715D01*
X31817857Y25132143D02*
X31782142Y25096429D01*
X31675000Y25060715D01*
X31603571Y25060715D01*
X31496428Y25096429D01*
X31425000Y25167858D01*
X31389285Y25239286D01*
X31353571Y25382143D01*
X31353571Y25489286D01*
X31389285Y25632143D01*
X31425000Y25703572D01*
X31496428Y25775000D01*
X31603571Y25810715D01*
X31675000Y25810715D01*
X31782142Y25775000D01*
X31817857Y25739286D01*
X32460714Y25560715D02*
X32460714Y25060715D01*
X32282142Y25846429D02*
X32103571Y25310715D01*
X32567857Y25310715D01*
X33210714Y25810715D02*
X32853571Y25810715D01*
X32817857Y25453572D01*
X32853571Y25489286D01*
X32925000Y25525000D01*
X33103571Y25525000D01*
X33175000Y25489286D01*
X33210714Y25453572D01*
X33246428Y25382143D01*
X33246428Y25203572D01*
X33210714Y25132143D01*
X33175000Y25096429D01*
X33103571Y25060715D01*
X32925000Y25060715D01*
X32853571Y25096429D01*
X32817857Y25132143D01*
X16317857Y6660715D02*
X16067857Y7017858D01*
X15889285Y6660715D02*
X15889285Y7410715D01*
X16175000Y7410715D01*
X16246428Y7375000D01*
X16282142Y7339286D01*
X16317857Y7267858D01*
X16317857Y7160715D01*
X16282142Y7089286D01*
X16246428Y7053572D01*
X16175000Y7017858D01*
X15889285Y7017858D01*
X17032142Y6660715D02*
X16603571Y6660715D01*
X16817857Y6660715D02*
X16817857Y7410715D01*
X16746428Y7303572D01*
X16675000Y7232143D01*
X16603571Y7196429D01*
X17675000Y7160715D02*
X17675000Y6660715D01*
X17496428Y7446429D02*
X17317857Y6910715D01*
X17782142Y6910715D01*
X32939285Y66746429D02*
X32189285Y66746429D01*
X32189285Y67032143D01*
X32225000Y67103572D01*
X32260714Y67139286D01*
X32332142Y67175000D01*
X32439285Y67175000D01*
X32510714Y67139286D01*
X32546428Y67103572D01*
X32582142Y67032143D01*
X32582142Y66746429D01*
X32260714Y67460715D02*
X32225000Y67496429D01*
X32189285Y67567858D01*
X32189285Y67746429D01*
X32225000Y67817858D01*
X32260714Y67853572D01*
X32332142Y67889286D01*
X32403571Y67889286D01*
X32510714Y67853572D01*
X32939285Y67425000D01*
X32939285Y67889286D01*
X13842857Y16375000D02*
X13878571Y16339286D01*
X13914285Y16232143D01*
X13914285Y16160715D01*
X13878571Y16053572D01*
X13807142Y15982143D01*
X13735714Y15946429D01*
X13592857Y15910715D01*
X13485714Y15910715D01*
X13342857Y15946429D01*
X13271428Y15982143D01*
X13200000Y16053572D01*
X13164285Y16160715D01*
X13164285Y16232143D01*
X13200000Y16339286D01*
X13235714Y16375000D01*
X13164285Y17017858D02*
X13164285Y16875000D01*
X13200000Y16803572D01*
X13235714Y16767858D01*
X13342857Y16696429D01*
X13485714Y16660715D01*
X13771428Y16660715D01*
X13842857Y16696429D01*
X13878571Y16732143D01*
X13914285Y16803572D01*
X13914285Y16946429D01*
X13878571Y17017858D01*
X13842857Y17053572D01*
X13771428Y17089286D01*
X13592857Y17089286D01*
X13521428Y17053572D01*
X13485714Y17017858D01*
X13450000Y16946429D01*
X13450000Y16803572D01*
X13485714Y16732143D01*
X13521428Y16696429D01*
X13592857Y16660715D01*
X29014285Y34417858D02*
X28657142Y34167858D01*
X29014285Y33989286D02*
X28264285Y33989286D01*
X28264285Y34275000D01*
X28300000Y34346429D01*
X28335714Y34382143D01*
X28407142Y34417858D01*
X28514285Y34417858D01*
X28585714Y34382143D01*
X28621428Y34346429D01*
X28657142Y34275000D01*
X28657142Y33989286D01*
X28335714Y34703572D02*
X28300000Y34739286D01*
X28264285Y34810715D01*
X28264285Y34989286D01*
X28300000Y35060715D01*
X28335714Y35096429D01*
X28407142Y35132143D01*
X28478571Y35132143D01*
X28585714Y35096429D01*
X29014285Y34667858D01*
X29014285Y35132143D01*
X28335714Y35417858D02*
X28300000Y35453572D01*
X28264285Y35525000D01*
X28264285Y35703572D01*
X28300000Y35775000D01*
X28335714Y35810715D01*
X28407142Y35846429D01*
X28478571Y35846429D01*
X28585714Y35810715D01*
X29014285Y35382143D01*
X29014285Y35846429D01*
X50867857Y26275000D02*
X50903571Y26239286D01*
X50939285Y26132143D01*
X50939285Y26060715D01*
X50903571Y25953572D01*
X50832142Y25882143D01*
X50760714Y25846429D01*
X50617857Y25810715D01*
X50510714Y25810715D01*
X50367857Y25846429D01*
X50296428Y25882143D01*
X50225000Y25953572D01*
X50189285Y26060715D01*
X50189285Y26132143D01*
X50225000Y26239286D01*
X50260714Y26275000D01*
X50510714Y26703572D02*
X50475000Y26632143D01*
X50439285Y26596429D01*
X50367857Y26560715D01*
X50332142Y26560715D01*
X50260714Y26596429D01*
X50225000Y26632143D01*
X50189285Y26703572D01*
X50189285Y26846429D01*
X50225000Y26917858D01*
X50260714Y26953572D01*
X50332142Y26989286D01*
X50367857Y26989286D01*
X50439285Y26953572D01*
X50475000Y26917858D01*
X50510714Y26846429D01*
X50510714Y26703572D01*
X50546428Y26632143D01*
X50582142Y26596429D01*
X50653571Y26560715D01*
X50796428Y26560715D01*
X50867857Y26596429D01*
X50903571Y26632143D01*
X50939285Y26703572D01*
X50939285Y26846429D01*
X50903571Y26917858D01*
X50867857Y26953572D01*
X50796428Y26989286D01*
X50653571Y26989286D01*
X50582142Y26953572D01*
X50546428Y26917858D01*
X50510714Y26846429D01*
X15367857Y18775000D02*
X15403571Y18739286D01*
X15439285Y18632143D01*
X15439285Y18560715D01*
X15403571Y18453572D01*
X15332142Y18382143D01*
X15260714Y18346429D01*
X15117857Y18310715D01*
X15010714Y18310715D01*
X14867857Y18346429D01*
X14796428Y18382143D01*
X14725000Y18453572D01*
X14689285Y18560715D01*
X14689285Y18632143D01*
X14725000Y18739286D01*
X14760714Y18775000D01*
X14760714Y19060715D02*
X14725000Y19096429D01*
X14689285Y19167858D01*
X14689285Y19346429D01*
X14725000Y19417858D01*
X14760714Y19453572D01*
X14832142Y19489286D01*
X14903571Y19489286D01*
X15010714Y19453572D01*
X15439285Y19025000D01*
X15439285Y19489286D01*
X22450000Y33860715D02*
X22200000Y34217858D01*
X22021428Y33860715D02*
X22021428Y34610715D01*
X22307142Y34610715D01*
X22378571Y34575000D01*
X22414285Y34539286D01*
X22450000Y34467858D01*
X22450000Y34360715D01*
X22414285Y34289286D01*
X22378571Y34253572D01*
X22307142Y34217858D01*
X22021428Y34217858D01*
X23164285Y33860715D02*
X22735714Y33860715D01*
X22950000Y33860715D02*
X22950000Y34610715D01*
X22878571Y34503572D01*
X22807142Y34432143D01*
X22735714Y34396429D01*
X41939285Y19017858D02*
X41582142Y18767858D01*
X41939285Y18589286D02*
X41189285Y18589286D01*
X41189285Y18875000D01*
X41225000Y18946429D01*
X41260714Y18982143D01*
X41332142Y19017858D01*
X41439285Y19017858D01*
X41510714Y18982143D01*
X41546428Y18946429D01*
X41582142Y18875000D01*
X41582142Y18589286D01*
X41939285Y19732143D02*
X41939285Y19303572D01*
X41939285Y19517858D02*
X41189285Y19517858D01*
X41296428Y19446429D01*
X41367857Y19375000D01*
X41403571Y19303572D01*
X41260714Y20017858D02*
X41225000Y20053572D01*
X41189285Y20125000D01*
X41189285Y20303572D01*
X41225000Y20375000D01*
X41260714Y20410715D01*
X41332142Y20446429D01*
X41403571Y20446429D01*
X41510714Y20410715D01*
X41939285Y19982143D01*
X41939285Y20446429D01*
X21642857Y39217858D02*
X21678571Y39182143D01*
X21714285Y39075000D01*
X21714285Y39003572D01*
X21678571Y38896429D01*
X21607142Y38825000D01*
X21535714Y38789286D01*
X21392857Y38753572D01*
X21285714Y38753572D01*
X21142857Y38789286D01*
X21071428Y38825000D01*
X21000000Y38896429D01*
X20964285Y39003572D01*
X20964285Y39075000D01*
X21000000Y39182143D01*
X21035714Y39217858D01*
X21714285Y39932143D02*
X21714285Y39503572D01*
X21714285Y39717858D02*
X20964285Y39717858D01*
X21071428Y39646429D01*
X21142857Y39575000D01*
X21178571Y39503572D01*
X20964285Y40182143D02*
X20964285Y40646429D01*
X21250000Y40396429D01*
X21250000Y40503572D01*
X21285714Y40575000D01*
X21321428Y40610715D01*
X21392857Y40646429D01*
X21571428Y40646429D01*
X21642857Y40610715D01*
X21678571Y40575000D01*
X21714285Y40503572D01*
X21714285Y40289286D01*
X21678571Y40217858D01*
X21642857Y40182143D01*
X29217857Y77060715D02*
X28967857Y77417858D01*
X28789285Y77060715D02*
X28789285Y77810715D01*
X29075000Y77810715D01*
X29146428Y77775000D01*
X29182142Y77739286D01*
X29217857Y77667858D01*
X29217857Y77560715D01*
X29182142Y77489286D01*
X29146428Y77453572D01*
X29075000Y77417858D01*
X28789285Y77417858D01*
X29860714Y77560715D02*
X29860714Y77060715D01*
X29682142Y77846429D02*
X29503571Y77310715D01*
X29967857Y77310715D01*
X30610714Y77810715D02*
X30253571Y77810715D01*
X30217857Y77453572D01*
X30253571Y77489286D01*
X30325000Y77525000D01*
X30503571Y77525000D01*
X30575000Y77489286D01*
X30610714Y77453572D01*
X30646428Y77382143D01*
X30646428Y77203572D01*
X30610714Y77132143D01*
X30575000Y77096429D01*
X30503571Y77060715D01*
X30325000Y77060715D01*
X30253571Y77096429D01*
X30217857Y77132143D01*
X30817857Y8132143D02*
X30782142Y8096429D01*
X30675000Y8060715D01*
X30603571Y8060715D01*
X30496428Y8096429D01*
X30425000Y8167858D01*
X30389285Y8239286D01*
X30353571Y8382143D01*
X30353571Y8489286D01*
X30389285Y8632143D01*
X30425000Y8703572D01*
X30496428Y8775000D01*
X30603571Y8810715D01*
X30675000Y8810715D01*
X30782142Y8775000D01*
X30817857Y8739286D01*
X31496428Y8810715D02*
X31139285Y8810715D01*
X31103571Y8453572D01*
X31139285Y8489286D01*
X31210714Y8525000D01*
X31389285Y8525000D01*
X31460714Y8489286D01*
X31496428Y8453572D01*
X31532142Y8382143D01*
X31532142Y8203572D01*
X31496428Y8132143D01*
X31460714Y8096429D01*
X31389285Y8060715D01*
X31210714Y8060715D01*
X31139285Y8096429D01*
X31103571Y8132143D01*
X32175000Y8810715D02*
X32032142Y8810715D01*
X31960714Y8775000D01*
X31925000Y8739286D01*
X31853571Y8632143D01*
X31817857Y8489286D01*
X31817857Y8203572D01*
X31853571Y8132143D01*
X31889285Y8096429D01*
X31960714Y8060715D01*
X32103571Y8060715D01*
X32175000Y8096429D01*
X32210714Y8132143D01*
X32246428Y8203572D01*
X32246428Y8382143D01*
X32210714Y8453572D01*
X32175000Y8489286D01*
X32103571Y8525000D01*
X31960714Y8525000D01*
X31889285Y8489286D01*
X31853571Y8453572D01*
X31817857Y8382143D01*
X9150000Y76983334D02*
X8916666Y77316667D01*
X8750000Y76983334D02*
X8750000Y77683334D01*
X9016666Y77683334D01*
X9083333Y77650000D01*
X9116666Y77616667D01*
X9150000Y77550000D01*
X9150000Y77450000D01*
X9116666Y77383334D01*
X9083333Y77350000D01*
X9016666Y77316667D01*
X8750000Y77316667D01*
X9750000Y77450000D02*
X9750000Y76983334D01*
X9583333Y77716667D02*
X9416666Y77216667D01*
X9850000Y77216667D01*
X10416666Y77450000D02*
X10416666Y76983334D01*
X10250000Y77716667D02*
X10083333Y77216667D01*
X10516666Y77216667D01*
X19339285Y34317858D02*
X18982142Y34067858D01*
X19339285Y33889286D02*
X18589285Y33889286D01*
X18589285Y34175000D01*
X18625000Y34246429D01*
X18660714Y34282143D01*
X18732142Y34317858D01*
X18839285Y34317858D01*
X18910714Y34282143D01*
X18946428Y34246429D01*
X18982142Y34175000D01*
X18982142Y33889286D01*
X18660714Y34603572D02*
X18625000Y34639286D01*
X18589285Y34710715D01*
X18589285Y34889286D01*
X18625000Y34960715D01*
X18660714Y34996429D01*
X18732142Y35032143D01*
X18803571Y35032143D01*
X18910714Y34996429D01*
X19339285Y34567858D01*
X19339285Y35032143D01*
X19339285Y35389286D02*
X19339285Y35532143D01*
X19303571Y35603572D01*
X19267857Y35639286D01*
X19160714Y35710715D01*
X19017857Y35746429D01*
X18732142Y35746429D01*
X18660714Y35710715D01*
X18625000Y35675000D01*
X18589285Y35603572D01*
X18589285Y35460715D01*
X18625000Y35389286D01*
X18660714Y35353572D01*
X18732142Y35317858D01*
X18910714Y35317858D01*
X18982142Y35353572D01*
X19017857Y35389286D01*
X19053571Y35460715D01*
X19053571Y35603572D01*
X19017857Y35675000D01*
X18982142Y35710715D01*
X18910714Y35746429D01*
X14392857Y12532143D02*
X14357142Y12496429D01*
X14250000Y12460715D01*
X14178571Y12460715D01*
X14071428Y12496429D01*
X14000000Y12567858D01*
X13964285Y12639286D01*
X13928571Y12782143D01*
X13928571Y12889286D01*
X13964285Y13032143D01*
X14000000Y13103572D01*
X14071428Y13175000D01*
X14178571Y13210715D01*
X14250000Y13210715D01*
X14357142Y13175000D01*
X14392857Y13139286D01*
X15035714Y12960715D02*
X15035714Y12460715D01*
X14857142Y13246429D02*
X14678571Y12710715D01*
X15142857Y12710715D01*
X15357142Y13210715D02*
X15857142Y13210715D01*
X15535714Y12460715D01*
X30467857Y37017858D02*
X30503571Y36982143D01*
X30539285Y36875000D01*
X30539285Y36803572D01*
X30503571Y36696429D01*
X30432142Y36625000D01*
X30360714Y36589286D01*
X30217857Y36553572D01*
X30110714Y36553572D01*
X29967857Y36589286D01*
X29896428Y36625000D01*
X29825000Y36696429D01*
X29789285Y36803572D01*
X29789285Y36875000D01*
X29825000Y36982143D01*
X29860714Y37017858D01*
X29860714Y37303572D02*
X29825000Y37339286D01*
X29789285Y37410715D01*
X29789285Y37589286D01*
X29825000Y37660715D01*
X29860714Y37696429D01*
X29932142Y37732143D01*
X30003571Y37732143D01*
X30110714Y37696429D01*
X30539285Y37267858D01*
X30539285Y37732143D01*
X29789285Y38375000D02*
X29789285Y38232143D01*
X29825000Y38160715D01*
X29860714Y38125000D01*
X29967857Y38053572D01*
X30110714Y38017858D01*
X30396428Y38017858D01*
X30467857Y38053572D01*
X30503571Y38089286D01*
X30539285Y38160715D01*
X30539285Y38303572D01*
X30503571Y38375000D01*
X30467857Y38410715D01*
X30396428Y38446429D01*
X30217857Y38446429D01*
X30146428Y38410715D01*
X30110714Y38375000D01*
X30075000Y38303572D01*
X30075000Y38160715D01*
X30110714Y38089286D01*
X30146428Y38053572D01*
X30217857Y38017858D01*
X31967857Y36917858D02*
X32003571Y36882143D01*
X32039285Y36775000D01*
X32039285Y36703572D01*
X32003571Y36596429D01*
X31932142Y36525000D01*
X31860714Y36489286D01*
X31717857Y36453572D01*
X31610714Y36453572D01*
X31467857Y36489286D01*
X31396428Y36525000D01*
X31325000Y36596429D01*
X31289285Y36703572D01*
X31289285Y36775000D01*
X31325000Y36882143D01*
X31360714Y36917858D01*
X31360714Y37203572D02*
X31325000Y37239286D01*
X31289285Y37310715D01*
X31289285Y37489286D01*
X31325000Y37560715D01*
X31360714Y37596429D01*
X31432142Y37632143D01*
X31503571Y37632143D01*
X31610714Y37596429D01*
X32039285Y37167858D01*
X32039285Y37632143D01*
X31289285Y37882143D02*
X31289285Y38346429D01*
X31575000Y38096429D01*
X31575000Y38203572D01*
X31610714Y38275000D01*
X31646428Y38310715D01*
X31717857Y38346429D01*
X31896428Y38346429D01*
X31967857Y38310715D01*
X32003571Y38275000D01*
X32039285Y38203572D01*
X32039285Y37989286D01*
X32003571Y37917858D01*
X31967857Y37882143D01*
X3039285Y59117858D02*
X2682142Y58867858D01*
X3039285Y58689286D02*
X2289285Y58689286D01*
X2289285Y58975000D01*
X2325000Y59046429D01*
X2360714Y59082143D01*
X2432142Y59117858D01*
X2539285Y59117858D01*
X2610714Y59082143D01*
X2646428Y59046429D01*
X2682142Y58975000D01*
X2682142Y58689286D01*
X2360714Y59403572D02*
X2325000Y59439286D01*
X2289285Y59510715D01*
X2289285Y59689286D01*
X2325000Y59760715D01*
X2360714Y59796429D01*
X2432142Y59832143D01*
X2503571Y59832143D01*
X2610714Y59796429D01*
X3039285Y59367858D01*
X3039285Y59832143D01*
X2289285Y60082143D02*
X2289285Y60582143D01*
X3039285Y60260715D01*
X11939285Y16375000D02*
X11582142Y16125000D01*
X11939285Y15946429D02*
X11189285Y15946429D01*
X11189285Y16232143D01*
X11225000Y16303572D01*
X11260714Y16339286D01*
X11332142Y16375000D01*
X11439285Y16375000D01*
X11510714Y16339286D01*
X11546428Y16303572D01*
X11582142Y16232143D01*
X11582142Y15946429D01*
X11939285Y16732143D02*
X11939285Y16875000D01*
X11903571Y16946429D01*
X11867857Y16982143D01*
X11760714Y17053572D01*
X11617857Y17089286D01*
X11332142Y17089286D01*
X11260714Y17053572D01*
X11225000Y17017858D01*
X11189285Y16946429D01*
X11189285Y16803572D01*
X11225000Y16732143D01*
X11260714Y16696429D01*
X11332142Y16660715D01*
X11510714Y16660715D01*
X11582142Y16696429D01*
X11617857Y16732143D01*
X11653571Y16803572D01*
X11653571Y16946429D01*
X11617857Y17017858D01*
X11582142Y17053572D01*
X11510714Y17089286D01*
X16650000Y10960715D02*
X16400000Y11317858D01*
X16221428Y10960715D02*
X16221428Y11710715D01*
X16507142Y11710715D01*
X16578571Y11675000D01*
X16614285Y11639286D01*
X16650000Y11567858D01*
X16650000Y11460715D01*
X16614285Y11389286D01*
X16578571Y11353572D01*
X16507142Y11317858D01*
X16221428Y11317858D01*
X17078571Y11389286D02*
X17007142Y11425000D01*
X16971428Y11460715D01*
X16935714Y11532143D01*
X16935714Y11567858D01*
X16971428Y11639286D01*
X17007142Y11675000D01*
X17078571Y11710715D01*
X17221428Y11710715D01*
X17292857Y11675000D01*
X17328571Y11639286D01*
X17364285Y11567858D01*
X17364285Y11532143D01*
X17328571Y11460715D01*
X17292857Y11425000D01*
X17221428Y11389286D01*
X17078571Y11389286D01*
X17007142Y11353572D01*
X16971428Y11317858D01*
X16935714Y11246429D01*
X16935714Y11103572D01*
X16971428Y11032143D01*
X17007142Y10996429D01*
X17078571Y10960715D01*
X17221428Y10960715D01*
X17292857Y10996429D01*
X17328571Y11032143D01*
X17364285Y11103572D01*
X17364285Y11246429D01*
X17328571Y11317858D01*
X17292857Y11353572D01*
X17221428Y11389286D01*
X52339285Y66746429D02*
X51589285Y66746429D01*
X51589285Y67032143D01*
X51625000Y67103572D01*
X51660714Y67139286D01*
X51732142Y67175000D01*
X51839285Y67175000D01*
X51910714Y67139286D01*
X51946428Y67103572D01*
X51982142Y67032143D01*
X51982142Y66746429D01*
X51589285Y67425000D02*
X51589285Y67889286D01*
X51875000Y67639286D01*
X51875000Y67746429D01*
X51910714Y67817858D01*
X51946428Y67853572D01*
X52017857Y67889286D01*
X52196428Y67889286D01*
X52267857Y67853572D01*
X52303571Y67817858D01*
X52339285Y67746429D01*
X52339285Y67532143D01*
X52303571Y67460715D01*
X52267857Y67425000D01*
X47128571Y25810715D02*
X47128571Y25203572D01*
X47164285Y25132143D01*
X47200000Y25096429D01*
X47271428Y25060715D01*
X47414285Y25060715D01*
X47485714Y25096429D01*
X47521428Y25132143D01*
X47557142Y25203572D01*
X47557142Y25810715D01*
X48235714Y25560715D02*
X48235714Y25060715D01*
X48057142Y25846429D02*
X47878571Y25310715D01*
X48342857Y25310715D01*
X15439285Y20275000D02*
X15082142Y20025000D01*
X15439285Y19846429D02*
X14689285Y19846429D01*
X14689285Y20132143D01*
X14725000Y20203572D01*
X14760714Y20239286D01*
X14832142Y20275000D01*
X14939285Y20275000D01*
X15010714Y20239286D01*
X15046428Y20203572D01*
X15082142Y20132143D01*
X15082142Y19846429D01*
X14689285Y20953572D02*
X14689285Y20596429D01*
X15046428Y20560715D01*
X15010714Y20596429D01*
X14975000Y20667858D01*
X14975000Y20846429D01*
X15010714Y20917858D01*
X15046428Y20953572D01*
X15117857Y20989286D01*
X15296428Y20989286D01*
X15367857Y20953572D01*
X15403571Y20917858D01*
X15439285Y20846429D01*
X15439285Y20667858D01*
X15403571Y20596429D01*
X15367857Y20560715D01*
X24914285Y5617858D02*
X24557142Y5367858D01*
X24914285Y5189286D02*
X24164285Y5189286D01*
X24164285Y5475000D01*
X24200000Y5546429D01*
X24235714Y5582143D01*
X24307142Y5617858D01*
X24414285Y5617858D01*
X24485714Y5582143D01*
X24521428Y5546429D01*
X24557142Y5475000D01*
X24557142Y5189286D01*
X24914285Y6332143D02*
X24914285Y5903572D01*
X24914285Y6117858D02*
X24164285Y6117858D01*
X24271428Y6046429D01*
X24342857Y5975000D01*
X24378571Y5903572D01*
X24164285Y7010715D02*
X24164285Y6653572D01*
X24521428Y6617858D01*
X24485714Y6653572D01*
X24450000Y6725000D01*
X24450000Y6903572D01*
X24485714Y6975000D01*
X24521428Y7010715D01*
X24592857Y7046429D01*
X24771428Y7046429D01*
X24842857Y7010715D01*
X24878571Y6975000D01*
X24914285Y6903572D01*
X24914285Y6725000D01*
X24878571Y6653572D01*
X24842857Y6617858D01*
X39939285Y19017858D02*
X39582142Y18767858D01*
X39939285Y18589286D02*
X39189285Y18589286D01*
X39189285Y18875000D01*
X39225000Y18946429D01*
X39260714Y18982143D01*
X39332142Y19017858D01*
X39439285Y19017858D01*
X39510714Y18982143D01*
X39546428Y18946429D01*
X39582142Y18875000D01*
X39582142Y18589286D01*
X39939285Y19732143D02*
X39939285Y19303572D01*
X39939285Y19517858D02*
X39189285Y19517858D01*
X39296428Y19446429D01*
X39367857Y19375000D01*
X39403571Y19303572D01*
X39939285Y20446429D02*
X39939285Y20017858D01*
X39939285Y20232143D02*
X39189285Y20232143D01*
X39296428Y20160715D01*
X39367857Y20089286D01*
X39403571Y20017858D01*
X55417857Y24832143D02*
X55382142Y24796429D01*
X55275000Y24760715D01*
X55203571Y24760715D01*
X55096428Y24796429D01*
X55025000Y24867858D01*
X54989285Y24939286D01*
X54953571Y25082143D01*
X54953571Y25189286D01*
X54989285Y25332143D01*
X55025000Y25403572D01*
X55096428Y25475000D01*
X55203571Y25510715D01*
X55275000Y25510715D01*
X55382142Y25475000D01*
X55417857Y25439286D01*
X56060714Y25260715D02*
X56060714Y24760715D01*
X55882142Y25546429D02*
X55703571Y25010715D01*
X56167857Y25010715D01*
X56775000Y25260715D02*
X56775000Y24760715D01*
X56596428Y25546429D02*
X56417857Y25010715D01*
X56882142Y25010715D01*
X18692857Y29432143D02*
X18657142Y29396429D01*
X18550000Y29360715D01*
X18478571Y29360715D01*
X18371428Y29396429D01*
X18300000Y29467858D01*
X18264285Y29539286D01*
X18228571Y29682143D01*
X18228571Y29789286D01*
X18264285Y29932143D01*
X18300000Y30003572D01*
X18371428Y30075000D01*
X18478571Y30110715D01*
X18550000Y30110715D01*
X18657142Y30075000D01*
X18692857Y30039286D01*
X19371428Y30110715D02*
X19014285Y30110715D01*
X18978571Y29753572D01*
X19014285Y29789286D01*
X19085714Y29825000D01*
X19264285Y29825000D01*
X19335714Y29789286D01*
X19371428Y29753572D01*
X19407142Y29682143D01*
X19407142Y29503572D01*
X19371428Y29432143D01*
X19335714Y29396429D01*
X19264285Y29360715D01*
X19085714Y29360715D01*
X19014285Y29396429D01*
X18978571Y29432143D01*
X19871428Y30110715D02*
X19942857Y30110715D01*
X20014285Y30075000D01*
X20050000Y30039286D01*
X20085714Y29967858D01*
X20121428Y29825000D01*
X20121428Y29646429D01*
X20085714Y29503572D01*
X20050000Y29432143D01*
X20014285Y29396429D01*
X19942857Y29360715D01*
X19871428Y29360715D01*
X19800000Y29396429D01*
X19764285Y29432143D01*
X19728571Y29503572D01*
X19692857Y29646429D01*
X19692857Y29825000D01*
X19728571Y29967858D01*
X19764285Y30039286D01*
X19800000Y30075000D01*
X19871428Y30110715D01*
X29014285Y8975000D02*
X28657142Y8725000D01*
X29014285Y8546429D02*
X28264285Y8546429D01*
X28264285Y8832143D01*
X28300000Y8903572D01*
X28335714Y8939286D01*
X28407142Y8975000D01*
X28514285Y8975000D01*
X28585714Y8939286D01*
X28621428Y8903572D01*
X28657142Y8832143D01*
X28657142Y8546429D01*
X28264285Y9225000D02*
X28264285Y9689286D01*
X28550000Y9439286D01*
X28550000Y9546429D01*
X28585714Y9617858D01*
X28621428Y9653572D01*
X28692857Y9689286D01*
X28871428Y9689286D01*
X28942857Y9653572D01*
X28978571Y9617858D01*
X29014285Y9546429D01*
X29014285Y9332143D01*
X28978571Y9260715D01*
X28942857Y9225000D01*
X56403571Y26510715D02*
X56403571Y25903572D01*
X56439285Y25832143D01*
X56475000Y25796429D01*
X56546428Y25760715D01*
X56689285Y25760715D01*
X56760714Y25796429D01*
X56796428Y25832143D01*
X56832142Y25903572D01*
X56832142Y26510715D01*
X57582142Y25760715D02*
X57153571Y25760715D01*
X57367857Y25760715D02*
X57367857Y26510715D01*
X57296428Y26403572D01*
X57225000Y26332143D01*
X57153571Y26296429D01*
X15839285Y34317858D02*
X15482142Y34067858D01*
X15839285Y33889286D02*
X15089285Y33889286D01*
X15089285Y34175000D01*
X15125000Y34246429D01*
X15160714Y34282143D01*
X15232142Y34317858D01*
X15339285Y34317858D01*
X15410714Y34282143D01*
X15446428Y34246429D01*
X15482142Y34175000D01*
X15482142Y33889286D01*
X15089285Y34567858D02*
X15089285Y35032143D01*
X15375000Y34782143D01*
X15375000Y34889286D01*
X15410714Y34960715D01*
X15446428Y34996429D01*
X15517857Y35032143D01*
X15696428Y35032143D01*
X15767857Y34996429D01*
X15803571Y34960715D01*
X15839285Y34889286D01*
X15839285Y34675000D01*
X15803571Y34603572D01*
X15767857Y34567858D01*
X15410714Y35460715D02*
X15375000Y35389286D01*
X15339285Y35353572D01*
X15267857Y35317858D01*
X15232142Y35317858D01*
X15160714Y35353572D01*
X15125000Y35389286D01*
X15089285Y35460715D01*
X15089285Y35603572D01*
X15125000Y35675000D01*
X15160714Y35710715D01*
X15232142Y35746429D01*
X15267857Y35746429D01*
X15339285Y35710715D01*
X15375000Y35675000D01*
X15410714Y35603572D01*
X15410714Y35460715D01*
X15446428Y35389286D01*
X15482142Y35353572D01*
X15553571Y35317858D01*
X15696428Y35317858D01*
X15767857Y35353572D01*
X15803571Y35389286D01*
X15839285Y35460715D01*
X15839285Y35603572D01*
X15803571Y35675000D01*
X15767857Y35710715D01*
X15696428Y35746429D01*
X15553571Y35746429D01*
X15482142Y35710715D01*
X15446428Y35675000D01*
X15410714Y35603572D01*
X30467857Y54132143D02*
X30432142Y54096429D01*
X30325000Y54060715D01*
X30253571Y54060715D01*
X30146428Y54096429D01*
X30075000Y54167858D01*
X30039285Y54239286D01*
X30003571Y54382143D01*
X30003571Y54489286D01*
X30039285Y54632143D01*
X30075000Y54703572D01*
X30146428Y54775000D01*
X30253571Y54810715D01*
X30325000Y54810715D01*
X30432142Y54775000D01*
X30467857Y54739286D01*
X30753571Y54739286D02*
X30789285Y54775000D01*
X30860714Y54810715D01*
X31039285Y54810715D01*
X31110714Y54775000D01*
X31146428Y54739286D01*
X31182142Y54667858D01*
X31182142Y54596429D01*
X31146428Y54489286D01*
X30717857Y54060715D01*
X31182142Y54060715D01*
X31825000Y54560715D02*
X31825000Y54060715D01*
X31646428Y54846429D02*
X31467857Y54310715D01*
X31932142Y54310715D01*
X14392857Y14032143D02*
X14357142Y13996429D01*
X14250000Y13960715D01*
X14178571Y13960715D01*
X14071428Y13996429D01*
X14000000Y14067858D01*
X13964285Y14139286D01*
X13928571Y14282143D01*
X13928571Y14389286D01*
X13964285Y14532143D01*
X14000000Y14603572D01*
X14071428Y14675000D01*
X14178571Y14710715D01*
X14250000Y14710715D01*
X14357142Y14675000D01*
X14392857Y14639286D01*
X15071428Y14710715D02*
X14714285Y14710715D01*
X14678571Y14353572D01*
X14714285Y14389286D01*
X14785714Y14425000D01*
X14964285Y14425000D01*
X15035714Y14389286D01*
X15071428Y14353572D01*
X15107142Y14282143D01*
X15107142Y14103572D01*
X15071428Y14032143D01*
X15035714Y13996429D01*
X14964285Y13960715D01*
X14785714Y13960715D01*
X14714285Y13996429D01*
X14678571Y14032143D01*
X15785714Y14710715D02*
X15428571Y14710715D01*
X15392857Y14353572D01*
X15428571Y14389286D01*
X15500000Y14425000D01*
X15678571Y14425000D01*
X15750000Y14389286D01*
X15785714Y14353572D01*
X15821428Y14282143D01*
X15821428Y14103572D01*
X15785714Y14032143D01*
X15750000Y13996429D01*
X15678571Y13960715D01*
X15500000Y13960715D01*
X15428571Y13996429D01*
X15392857Y14032143D01*
X28967857Y36917858D02*
X29003571Y36882143D01*
X29039285Y36775000D01*
X29039285Y36703572D01*
X29003571Y36596429D01*
X28932142Y36525000D01*
X28860714Y36489286D01*
X28717857Y36453572D01*
X28610714Y36453572D01*
X28467857Y36489286D01*
X28396428Y36525000D01*
X28325000Y36596429D01*
X28289285Y36703572D01*
X28289285Y36775000D01*
X28325000Y36882143D01*
X28360714Y36917858D01*
X28360714Y37203572D02*
X28325000Y37239286D01*
X28289285Y37310715D01*
X28289285Y37489286D01*
X28325000Y37560715D01*
X28360714Y37596429D01*
X28432142Y37632143D01*
X28503571Y37632143D01*
X28610714Y37596429D01*
X29039285Y37167858D01*
X29039285Y37632143D01*
X28289285Y38310715D02*
X28289285Y37953572D01*
X28646428Y37917858D01*
X28610714Y37953572D01*
X28575000Y38025000D01*
X28575000Y38203572D01*
X28610714Y38275000D01*
X28646428Y38310715D01*
X28717857Y38346429D01*
X28896428Y38346429D01*
X28967857Y38310715D01*
X29003571Y38275000D01*
X29039285Y38203572D01*
X29039285Y38025000D01*
X29003571Y37953572D01*
X28967857Y37917858D01*
X23042857Y36717858D02*
X23078571Y36682143D01*
X23114285Y36575000D01*
X23114285Y36503572D01*
X23078571Y36396429D01*
X23007142Y36325000D01*
X22935714Y36289286D01*
X22792857Y36253572D01*
X22685714Y36253572D01*
X22542857Y36289286D01*
X22471428Y36325000D01*
X22400000Y36396429D01*
X22364285Y36503572D01*
X22364285Y36575000D01*
X22400000Y36682143D01*
X22435714Y36717858D01*
X23114285Y37432143D02*
X23114285Y37003572D01*
X23114285Y37217858D02*
X22364285Y37217858D01*
X22471428Y37146429D01*
X22542857Y37075000D01*
X22578571Y37003572D01*
X22435714Y37717858D02*
X22400000Y37753572D01*
X22364285Y37825000D01*
X22364285Y38003572D01*
X22400000Y38075000D01*
X22435714Y38110715D01*
X22507142Y38146429D01*
X22578571Y38146429D01*
X22685714Y38110715D01*
X23114285Y37682143D01*
X23114285Y38146429D01*
X19592857Y8160715D02*
X19342857Y8517858D01*
X19164285Y8160715D02*
X19164285Y8910715D01*
X19450000Y8910715D01*
X19521428Y8875000D01*
X19557142Y8839286D01*
X19592857Y8767858D01*
X19592857Y8660715D01*
X19557142Y8589286D01*
X19521428Y8553572D01*
X19450000Y8517858D01*
X19164285Y8517858D01*
X20307142Y8160715D02*
X19878571Y8160715D01*
X20092857Y8160715D02*
X20092857Y8910715D01*
X20021428Y8803572D01*
X19950000Y8732143D01*
X19878571Y8696429D01*
X20950000Y8910715D02*
X20807142Y8910715D01*
X20735714Y8875000D01*
X20700000Y8839286D01*
X20628571Y8732143D01*
X20592857Y8589286D01*
X20592857Y8303572D01*
X20628571Y8232143D01*
X20664285Y8196429D01*
X20735714Y8160715D01*
X20878571Y8160715D01*
X20950000Y8196429D01*
X20985714Y8232143D01*
X21021428Y8303572D01*
X21021428Y8482143D01*
X20985714Y8553572D01*
X20950000Y8589286D01*
X20878571Y8625000D01*
X20735714Y8625000D01*
X20664285Y8589286D01*
X20628571Y8553572D01*
X20592857Y8482143D01*
X24617857Y55232143D02*
X24582142Y55196429D01*
X24475000Y55160715D01*
X24403571Y55160715D01*
X24296428Y55196429D01*
X24225000Y55267858D01*
X24189285Y55339286D01*
X24153571Y55482143D01*
X24153571Y55589286D01*
X24189285Y55732143D01*
X24225000Y55803572D01*
X24296428Y55875000D01*
X24403571Y55910715D01*
X24475000Y55910715D01*
X24582142Y55875000D01*
X24617857Y55839286D01*
X25332142Y55160715D02*
X24903571Y55160715D01*
X25117857Y55160715D02*
X25117857Y55910715D01*
X25046428Y55803572D01*
X24975000Y55732143D01*
X24903571Y55696429D01*
X25582142Y55910715D02*
X26082142Y55910715D01*
X25760714Y55160715D01*
X5653571Y95960715D02*
X5653571Y96710715D01*
X5653571Y96353572D02*
X6082142Y96353572D01*
X6082142Y95960715D02*
X6082142Y96710715D01*
X6832142Y95960715D02*
X6403571Y95960715D01*
X6617857Y95960715D02*
X6617857Y96710715D01*
X6546428Y96603572D01*
X6475000Y96532143D01*
X6403571Y96496429D01*
X44942857Y21817858D02*
X44978571Y21782143D01*
X45014285Y21675000D01*
X45014285Y21603572D01*
X44978571Y21496429D01*
X44907142Y21425000D01*
X44835714Y21389286D01*
X44692857Y21353572D01*
X44585714Y21353572D01*
X44442857Y21389286D01*
X44371428Y21425000D01*
X44300000Y21496429D01*
X44264285Y21603572D01*
X44264285Y21675000D01*
X44300000Y21782143D01*
X44335714Y21817858D01*
X44514285Y22460715D02*
X45014285Y22460715D01*
X44228571Y22282143D02*
X44764285Y22103572D01*
X44764285Y22567858D01*
X44264285Y22782143D02*
X44264285Y23246429D01*
X44550000Y22996429D01*
X44550000Y23103572D01*
X44585714Y23175000D01*
X44621428Y23210715D01*
X44692857Y23246429D01*
X44871428Y23246429D01*
X44942857Y23210715D01*
X44978571Y23175000D01*
X45014285Y23103572D01*
X45014285Y22889286D01*
X44978571Y22817858D01*
X44942857Y22782143D01*
X56975000Y35532143D02*
X56939285Y35496429D01*
X56832142Y35460715D01*
X56760714Y35460715D01*
X56653571Y35496429D01*
X56582142Y35567858D01*
X56546428Y35639286D01*
X56510714Y35782143D01*
X56510714Y35889286D01*
X56546428Y36032143D01*
X56582142Y36103572D01*
X56653571Y36175000D01*
X56760714Y36210715D01*
X56832142Y36210715D01*
X56939285Y36175000D01*
X56975000Y36139286D01*
X57225000Y36210715D02*
X57725000Y36210715D01*
X57403571Y35460715D01*
X45539285Y18975000D02*
X45182142Y18725000D01*
X45539285Y18546429D02*
X44789285Y18546429D01*
X44789285Y18832143D01*
X44825000Y18903572D01*
X44860714Y18939286D01*
X44932142Y18975000D01*
X45039285Y18975000D01*
X45110714Y18939286D01*
X45146428Y18903572D01*
X45182142Y18832143D01*
X45182142Y18546429D01*
X44789285Y19617858D02*
X44789285Y19475000D01*
X44825000Y19403572D01*
X44860714Y19367858D01*
X44967857Y19296429D01*
X45110714Y19260715D01*
X45396428Y19260715D01*
X45467857Y19296429D01*
X45503571Y19332143D01*
X45539285Y19403572D01*
X45539285Y19546429D01*
X45503571Y19617858D01*
X45467857Y19653572D01*
X45396428Y19689286D01*
X45217857Y19689286D01*
X45146428Y19653572D01*
X45110714Y19617858D01*
X45075000Y19546429D01*
X45075000Y19403572D01*
X45110714Y19332143D01*
X45146428Y19296429D01*
X45217857Y19260715D01*
X29017857Y27332143D02*
X28982142Y27296429D01*
X28875000Y27260715D01*
X28803571Y27260715D01*
X28696428Y27296429D01*
X28625000Y27367858D01*
X28589285Y27439286D01*
X28553571Y27582143D01*
X28553571Y27689286D01*
X28589285Y27832143D01*
X28625000Y27903572D01*
X28696428Y27975000D01*
X28803571Y28010715D01*
X28875000Y28010715D01*
X28982142Y27975000D01*
X29017857Y27939286D01*
X29660714Y27760715D02*
X29660714Y27260715D01*
X29482142Y28046429D02*
X29303571Y27510715D01*
X29767857Y27510715D01*
X30089285Y27260715D02*
X30232142Y27260715D01*
X30303571Y27296429D01*
X30339285Y27332143D01*
X30410714Y27439286D01*
X30446428Y27582143D01*
X30446428Y27867858D01*
X30410714Y27939286D01*
X30375000Y27975000D01*
X30303571Y28010715D01*
X30160714Y28010715D01*
X30089285Y27975000D01*
X30053571Y27939286D01*
X30017857Y27867858D01*
X30017857Y27689286D01*
X30053571Y27617858D01*
X30089285Y27582143D01*
X30160714Y27546429D01*
X30303571Y27546429D01*
X30375000Y27582143D01*
X30410714Y27617858D01*
X30446428Y27689286D01*
X18375000Y24232143D02*
X18339285Y24196429D01*
X18232142Y24160715D01*
X18160714Y24160715D01*
X18053571Y24196429D01*
X17982142Y24267858D01*
X17946428Y24339286D01*
X17910714Y24482143D01*
X17910714Y24589286D01*
X17946428Y24732143D01*
X17982142Y24803572D01*
X18053571Y24875000D01*
X18160714Y24910715D01*
X18232142Y24910715D01*
X18339285Y24875000D01*
X18375000Y24839286D01*
X19053571Y24910715D02*
X18696428Y24910715D01*
X18660714Y24553572D01*
X18696428Y24589286D01*
X18767857Y24625000D01*
X18946428Y24625000D01*
X19017857Y24589286D01*
X19053571Y24553572D01*
X19089285Y24482143D01*
X19089285Y24303572D01*
X19053571Y24232143D01*
X19017857Y24196429D01*
X18946428Y24160715D01*
X18767857Y24160715D01*
X18696428Y24196429D01*
X18660714Y24232143D01*
X20842857Y26917858D02*
X20878571Y26882143D01*
X20914285Y26775000D01*
X20914285Y26703572D01*
X20878571Y26596429D01*
X20807142Y26525000D01*
X20735714Y26489286D01*
X20592857Y26453572D01*
X20485714Y26453572D01*
X20342857Y26489286D01*
X20271428Y26525000D01*
X20200000Y26596429D01*
X20164285Y26703572D01*
X20164285Y26775000D01*
X20200000Y26882143D01*
X20235714Y26917858D01*
X20164285Y27596429D02*
X20164285Y27239286D01*
X20521428Y27203572D01*
X20485714Y27239286D01*
X20450000Y27310715D01*
X20450000Y27489286D01*
X20485714Y27560715D01*
X20521428Y27596429D01*
X20592857Y27632143D01*
X20771428Y27632143D01*
X20842857Y27596429D01*
X20878571Y27560715D01*
X20914285Y27489286D01*
X20914285Y27310715D01*
X20878571Y27239286D01*
X20842857Y27203572D01*
X20414285Y28275000D02*
X20914285Y28275000D01*
X20128571Y28096429D02*
X20664285Y27917858D01*
X20664285Y28382143D01*
X33575000Y21332143D02*
X33539285Y21296429D01*
X33432142Y21260715D01*
X33360714Y21260715D01*
X33253571Y21296429D01*
X33182142Y21367858D01*
X33146428Y21439286D01*
X33110714Y21582143D01*
X33110714Y21689286D01*
X33146428Y21832143D01*
X33182142Y21903572D01*
X33253571Y21975000D01*
X33360714Y22010715D01*
X33432142Y22010715D01*
X33539285Y21975000D01*
X33575000Y21939286D01*
X34217857Y21760715D02*
X34217857Y21260715D01*
X34039285Y22046429D02*
X33860714Y21510715D01*
X34325000Y21510715D01*
X20617857Y50132143D02*
X20582142Y50096429D01*
X20475000Y50060715D01*
X20403571Y50060715D01*
X20296428Y50096429D01*
X20225000Y50167858D01*
X20189285Y50239286D01*
X20153571Y50382143D01*
X20153571Y50489286D01*
X20189285Y50632143D01*
X20225000Y50703572D01*
X20296428Y50775000D01*
X20403571Y50810715D01*
X20475000Y50810715D01*
X20582142Y50775000D01*
X20617857Y50739286D01*
X21332142Y50060715D02*
X20903571Y50060715D01*
X21117857Y50060715D02*
X21117857Y50810715D01*
X21046428Y50703572D01*
X20975000Y50632143D01*
X20903571Y50596429D01*
X21975000Y50560715D02*
X21975000Y50060715D01*
X21796428Y50846429D02*
X21617857Y50310715D01*
X22082142Y50310715D01*
X22792857Y25132143D02*
X22757142Y25096429D01*
X22650000Y25060715D01*
X22578571Y25060715D01*
X22471428Y25096429D01*
X22400000Y25167858D01*
X22364285Y25239286D01*
X22328571Y25382143D01*
X22328571Y25489286D01*
X22364285Y25632143D01*
X22400000Y25703572D01*
X22471428Y25775000D01*
X22578571Y25810715D01*
X22650000Y25810715D01*
X22757142Y25775000D01*
X22792857Y25739286D01*
X23471428Y25810715D02*
X23114285Y25810715D01*
X23078571Y25453572D01*
X23114285Y25489286D01*
X23185714Y25525000D01*
X23364285Y25525000D01*
X23435714Y25489286D01*
X23471428Y25453572D01*
X23507142Y25382143D01*
X23507142Y25203572D01*
X23471428Y25132143D01*
X23435714Y25096429D01*
X23364285Y25060715D01*
X23185714Y25060715D01*
X23114285Y25096429D01*
X23078571Y25132143D01*
X23757142Y25810715D02*
X24221428Y25810715D01*
X23971428Y25525000D01*
X24078571Y25525000D01*
X24150000Y25489286D01*
X24185714Y25453572D01*
X24221428Y25382143D01*
X24221428Y25203572D01*
X24185714Y25132143D01*
X24150000Y25096429D01*
X24078571Y25060715D01*
X23864285Y25060715D01*
X23792857Y25096429D01*
X23757142Y25132143D01*
X52353571Y38760715D02*
X52353571Y39510715D01*
X52353571Y39153572D02*
X52782142Y39153572D01*
X52782142Y38760715D02*
X52782142Y39510715D01*
X53103571Y39439286D02*
X53139285Y39475000D01*
X53210714Y39510715D01*
X53389285Y39510715D01*
X53460714Y39475000D01*
X53496428Y39439286D01*
X53532142Y39367858D01*
X53532142Y39296429D01*
X53496428Y39189286D01*
X53067857Y38760715D01*
X53532142Y38760715D01*
X58314285Y21817858D02*
X57957142Y21567858D01*
X58314285Y21389286D02*
X57564285Y21389286D01*
X57564285Y21675000D01*
X57600000Y21746429D01*
X57635714Y21782143D01*
X57707142Y21817858D01*
X57814285Y21817858D01*
X57885714Y21782143D01*
X57921428Y21746429D01*
X57957142Y21675000D01*
X57957142Y21389286D01*
X57564285Y22460715D02*
X57564285Y22317858D01*
X57600000Y22246429D01*
X57635714Y22210715D01*
X57742857Y22139286D01*
X57885714Y22103572D01*
X58171428Y22103572D01*
X58242857Y22139286D01*
X58278571Y22175000D01*
X58314285Y22246429D01*
X58314285Y22389286D01*
X58278571Y22460715D01*
X58242857Y22496429D01*
X58171428Y22532143D01*
X57992857Y22532143D01*
X57921428Y22496429D01*
X57885714Y22460715D01*
X57850000Y22389286D01*
X57850000Y22246429D01*
X57885714Y22175000D01*
X57921428Y22139286D01*
X57992857Y22103572D01*
X57635714Y22817858D02*
X57600000Y22853572D01*
X57564285Y22925000D01*
X57564285Y23103572D01*
X57600000Y23175000D01*
X57635714Y23210715D01*
X57707142Y23246429D01*
X57778571Y23246429D01*
X57885714Y23210715D01*
X58314285Y22782143D01*
X58314285Y23246429D01*
X33392857Y11232143D02*
X33357142Y11196429D01*
X33250000Y11160715D01*
X33178571Y11160715D01*
X33071428Y11196429D01*
X33000000Y11267858D01*
X32964285Y11339286D01*
X32928571Y11482143D01*
X32928571Y11589286D01*
X32964285Y11732143D01*
X33000000Y11803572D01*
X33071428Y11875000D01*
X33178571Y11910715D01*
X33250000Y11910715D01*
X33357142Y11875000D01*
X33392857Y11839286D01*
X34035714Y11660715D02*
X34035714Y11160715D01*
X33857142Y11946429D02*
X33678571Y11410715D01*
X34142857Y11410715D01*
X34750000Y11910715D02*
X34607142Y11910715D01*
X34535714Y11875000D01*
X34500000Y11839286D01*
X34428571Y11732143D01*
X34392857Y11589286D01*
X34392857Y11303572D01*
X34428571Y11232143D01*
X34464285Y11196429D01*
X34535714Y11160715D01*
X34678571Y11160715D01*
X34750000Y11196429D01*
X34785714Y11232143D01*
X34821428Y11303572D01*
X34821428Y11482143D01*
X34785714Y11553572D01*
X34750000Y11589286D01*
X34678571Y11625000D01*
X34535714Y11625000D01*
X34464285Y11589286D01*
X34428571Y11553572D01*
X34392857Y11482143D01*
X55817857Y57560715D02*
X55567857Y57917858D01*
X55389285Y57560715D02*
X55389285Y58310715D01*
X55675000Y58310715D01*
X55746428Y58275000D01*
X55782142Y58239286D01*
X55817857Y58167858D01*
X55817857Y58060715D01*
X55782142Y57989286D01*
X55746428Y57953572D01*
X55675000Y57917858D01*
X55389285Y57917858D01*
X56496428Y58310715D02*
X56139285Y58310715D01*
X56103571Y57953572D01*
X56139285Y57989286D01*
X56210714Y58025000D01*
X56389285Y58025000D01*
X56460714Y57989286D01*
X56496428Y57953572D01*
X56532142Y57882143D01*
X56532142Y57703572D01*
X56496428Y57632143D01*
X56460714Y57596429D01*
X56389285Y57560715D01*
X56210714Y57560715D01*
X56139285Y57596429D01*
X56103571Y57632143D01*
X57210714Y58310715D02*
X56853571Y58310715D01*
X56817857Y57953572D01*
X56853571Y57989286D01*
X56925000Y58025000D01*
X57103571Y58025000D01*
X57175000Y57989286D01*
X57210714Y57953572D01*
X57246428Y57882143D01*
X57246428Y57703572D01*
X57210714Y57632143D01*
X57175000Y57596429D01*
X57103571Y57560715D01*
X56925000Y57560715D01*
X56853571Y57596429D01*
X56817857Y57632143D01*
X45617857Y40767858D02*
X45653571Y40732143D01*
X45689285Y40625000D01*
X45689285Y40553572D01*
X45653571Y40446429D01*
X45582142Y40375000D01*
X45510714Y40339286D01*
X45367857Y40303572D01*
X45260714Y40303572D01*
X45117857Y40339286D01*
X45046428Y40375000D01*
X44975000Y40446429D01*
X44939285Y40553572D01*
X44939285Y40625000D01*
X44975000Y40732143D01*
X45010714Y40767858D01*
X44939285Y41017858D02*
X44939285Y41482143D01*
X45225000Y41232143D01*
X45225000Y41339286D01*
X45260714Y41410715D01*
X45296428Y41446429D01*
X45367857Y41482143D01*
X45546428Y41482143D01*
X45617857Y41446429D01*
X45653571Y41410715D01*
X45689285Y41339286D01*
X45689285Y41125000D01*
X45653571Y41053572D01*
X45617857Y41017858D01*
X45010714Y41767858D02*
X44975000Y41803572D01*
X44939285Y41875000D01*
X44939285Y42053572D01*
X44975000Y42125000D01*
X45010714Y42160715D01*
X45082142Y42196429D01*
X45153571Y42196429D01*
X45260714Y42160715D01*
X45689285Y41732143D01*
X45689285Y42196429D01*
X36439285Y36117858D02*
X36082142Y35867858D01*
X36439285Y35689286D02*
X35689285Y35689286D01*
X35689285Y35975000D01*
X35725000Y36046429D01*
X35760714Y36082143D01*
X35832142Y36117858D01*
X35939285Y36117858D01*
X36010714Y36082143D01*
X36046428Y36046429D01*
X36082142Y35975000D01*
X36082142Y35689286D01*
X35760714Y36403572D02*
X35725000Y36439286D01*
X35689285Y36510715D01*
X35689285Y36689286D01*
X35725000Y36760715D01*
X35760714Y36796429D01*
X35832142Y36832143D01*
X35903571Y36832143D01*
X36010714Y36796429D01*
X36439285Y36367858D01*
X36439285Y36832143D01*
X35689285Y37475000D02*
X35689285Y37332143D01*
X35725000Y37260715D01*
X35760714Y37225000D01*
X35867857Y37153572D01*
X36010714Y37117858D01*
X36296428Y37117858D01*
X36367857Y37153572D01*
X36403571Y37189286D01*
X36439285Y37260715D01*
X36439285Y37403572D01*
X36403571Y37475000D01*
X36367857Y37510715D01*
X36296428Y37546429D01*
X36117857Y37546429D01*
X36046428Y37510715D01*
X36010714Y37475000D01*
X35975000Y37403572D01*
X35975000Y37260715D01*
X36010714Y37189286D01*
X36046428Y37153572D01*
X36117857Y37117858D01*
X36487857Y32817858D02*
X36523571Y32782143D01*
X36559285Y32675000D01*
X36559285Y32603572D01*
X36523571Y32496429D01*
X36452142Y32425000D01*
X36380714Y32389286D01*
X36237857Y32353572D01*
X36130714Y32353572D01*
X35987857Y32389286D01*
X35916428Y32425000D01*
X35845000Y32496429D01*
X35809285Y32603572D01*
X35809285Y32675000D01*
X35845000Y32782143D01*
X35880714Y32817858D01*
X36559285Y33532143D02*
X36559285Y33103572D01*
X36559285Y33317858D02*
X35809285Y33317858D01*
X35916428Y33246429D01*
X35987857Y33175000D01*
X36023571Y33103572D01*
X35809285Y34175000D02*
X35809285Y34032143D01*
X35845000Y33960715D01*
X35880714Y33925000D01*
X35987857Y33853572D01*
X36130714Y33817858D01*
X36416428Y33817858D01*
X36487857Y33853572D01*
X36523571Y33889286D01*
X36559285Y33960715D01*
X36559285Y34103572D01*
X36523571Y34175000D01*
X36487857Y34210715D01*
X36416428Y34246429D01*
X36237857Y34246429D01*
X36166428Y34210715D01*
X36130714Y34175000D01*
X36095000Y34103572D01*
X36095000Y33960715D01*
X36130714Y33889286D01*
X36166428Y33853572D01*
X36237857Y33817858D01*
X44442857Y26017858D02*
X44478571Y25982143D01*
X44514285Y25875000D01*
X44514285Y25803572D01*
X44478571Y25696429D01*
X44407142Y25625000D01*
X44335714Y25589286D01*
X44192857Y25553572D01*
X44085714Y25553572D01*
X43942857Y25589286D01*
X43871428Y25625000D01*
X43800000Y25696429D01*
X43764285Y25803572D01*
X43764285Y25875000D01*
X43800000Y25982143D01*
X43835714Y26017858D01*
X44514285Y26732143D02*
X44514285Y26303572D01*
X44514285Y26517858D02*
X43764285Y26517858D01*
X43871428Y26446429D01*
X43942857Y26375000D01*
X43978571Y26303572D01*
X44514285Y27446429D02*
X44514285Y27017858D01*
X44514285Y27232143D02*
X43764285Y27232143D01*
X43871428Y27160715D01*
X43942857Y27089286D01*
X43978571Y27017858D01*
X55817857Y58560715D02*
X55567857Y58917858D01*
X55389285Y58560715D02*
X55389285Y59310715D01*
X55675000Y59310715D01*
X55746428Y59275000D01*
X55782142Y59239286D01*
X55817857Y59167858D01*
X55817857Y59060715D01*
X55782142Y58989286D01*
X55746428Y58953572D01*
X55675000Y58917858D01*
X55389285Y58917858D01*
X56067857Y59310715D02*
X56532142Y59310715D01*
X56282142Y59025000D01*
X56389285Y59025000D01*
X56460714Y58989286D01*
X56496428Y58953572D01*
X56532142Y58882143D01*
X56532142Y58703572D01*
X56496428Y58632143D01*
X56460714Y58596429D01*
X56389285Y58560715D01*
X56175000Y58560715D01*
X56103571Y58596429D01*
X56067857Y58632143D01*
X56889285Y58560715D02*
X57032142Y58560715D01*
X57103571Y58596429D01*
X57139285Y58632143D01*
X57210714Y58739286D01*
X57246428Y58882143D01*
X57246428Y59167858D01*
X57210714Y59239286D01*
X57175000Y59275000D01*
X57103571Y59310715D01*
X56960714Y59310715D01*
X56889285Y59275000D01*
X56853571Y59239286D01*
X56817857Y59167858D01*
X56817857Y58989286D01*
X56853571Y58917858D01*
X56889285Y58882143D01*
X56960714Y58846429D01*
X57103571Y58846429D01*
X57175000Y58882143D01*
X57210714Y58917858D01*
X57246428Y58989286D01*
X49539285Y41117858D02*
X49182142Y40867858D01*
X49539285Y40689286D02*
X48789285Y40689286D01*
X48789285Y40975000D01*
X48825000Y41046429D01*
X48860714Y41082143D01*
X48932142Y41117858D01*
X49039285Y41117858D01*
X49110714Y41082143D01*
X49146428Y41046429D01*
X49182142Y40975000D01*
X49182142Y40689286D01*
X48789285Y41367858D02*
X48789285Y41832143D01*
X49075000Y41582143D01*
X49075000Y41689286D01*
X49110714Y41760715D01*
X49146428Y41796429D01*
X49217857Y41832143D01*
X49396428Y41832143D01*
X49467857Y41796429D01*
X49503571Y41760715D01*
X49539285Y41689286D01*
X49539285Y41475000D01*
X49503571Y41403572D01*
X49467857Y41367858D01*
X48789285Y42296429D02*
X48789285Y42367858D01*
X48825000Y42439286D01*
X48860714Y42475000D01*
X48932142Y42510715D01*
X49075000Y42546429D01*
X49253571Y42546429D01*
X49396428Y42510715D01*
X49467857Y42475000D01*
X49503571Y42439286D01*
X49539285Y42367858D01*
X49539285Y42296429D01*
X49503571Y42225000D01*
X49467857Y42189286D01*
X49396428Y42153572D01*
X49253571Y42117858D01*
X49075000Y42117858D01*
X48932142Y42153572D01*
X48860714Y42189286D01*
X48825000Y42225000D01*
X48789285Y42296429D01*
X48767857Y52660715D02*
X48767857Y53410715D01*
X49196428Y52660715D01*
X49196428Y53410715D01*
X49446428Y53410715D02*
X49875000Y53410715D01*
X49660714Y52660715D02*
X49660714Y53410715D01*
X50553571Y52732143D02*
X50517857Y52696429D01*
X50410714Y52660715D01*
X50339285Y52660715D01*
X50232142Y52696429D01*
X50160714Y52767858D01*
X50125000Y52839286D01*
X50089285Y52982143D01*
X50089285Y53089286D01*
X50125000Y53232143D01*
X50160714Y53303572D01*
X50232142Y53375000D01*
X50339285Y53410715D01*
X50410714Y53410715D01*
X50517857Y53375000D01*
X50553571Y53339286D01*
X51267857Y52660715D02*
X50839285Y52660715D01*
X51053571Y52660715D02*
X51053571Y53410715D01*
X50982142Y53303572D01*
X50910714Y53232143D01*
X50839285Y53196429D01*
X40767857Y32817858D02*
X40803571Y32782143D01*
X40839285Y32675000D01*
X40839285Y32603572D01*
X40803571Y32496429D01*
X40732142Y32425000D01*
X40660714Y32389286D01*
X40517857Y32353572D01*
X40410714Y32353572D01*
X40267857Y32389286D01*
X40196428Y32425000D01*
X40125000Y32496429D01*
X40089285Y32603572D01*
X40089285Y32675000D01*
X40125000Y32782143D01*
X40160714Y32817858D01*
X40089285Y33496429D02*
X40089285Y33139286D01*
X40446428Y33103572D01*
X40410714Y33139286D01*
X40375000Y33210715D01*
X40375000Y33389286D01*
X40410714Y33460715D01*
X40446428Y33496429D01*
X40517857Y33532143D01*
X40696428Y33532143D01*
X40767857Y33496429D01*
X40803571Y33460715D01*
X40839285Y33389286D01*
X40839285Y33210715D01*
X40803571Y33139286D01*
X40767857Y33103572D01*
X40089285Y33782143D02*
X40089285Y34282143D01*
X40839285Y33960715D01*
X22228571Y42510715D02*
X22228571Y41903572D01*
X22264285Y41832143D01*
X22300000Y41796429D01*
X22371428Y41760715D01*
X22514285Y41760715D01*
X22585714Y41796429D01*
X22621428Y41832143D01*
X22657142Y41903572D01*
X22657142Y42510715D01*
X22978571Y42439286D02*
X23014285Y42475000D01*
X23085714Y42510715D01*
X23264285Y42510715D01*
X23335714Y42475000D01*
X23371428Y42439286D01*
X23407142Y42367858D01*
X23407142Y42296429D01*
X23371428Y42189286D01*
X22942857Y41760715D01*
X23407142Y41760715D01*
X52717857Y75860715D02*
X52467857Y76217858D01*
X52289285Y75860715D02*
X52289285Y76610715D01*
X52575000Y76610715D01*
X52646428Y76575000D01*
X52682142Y76539286D01*
X52717857Y76467858D01*
X52717857Y76360715D01*
X52682142Y76289286D01*
X52646428Y76253572D01*
X52575000Y76217858D01*
X52289285Y76217858D01*
X53360714Y76360715D02*
X53360714Y75860715D01*
X53182142Y76646429D02*
X53003571Y76110715D01*
X53467857Y76110715D01*
X53682142Y76610715D02*
X54146428Y76610715D01*
X53896428Y76325000D01*
X54003571Y76325000D01*
X54075000Y76289286D01*
X54110714Y76253572D01*
X54146428Y76182143D01*
X54146428Y76003572D01*
X54110714Y75932143D01*
X54075000Y75896429D01*
X54003571Y75860715D01*
X53789285Y75860715D01*
X53717857Y75896429D01*
X53682142Y75932143D01*
X39217857Y60160715D02*
X38967857Y60517858D01*
X38789285Y60160715D02*
X38789285Y60910715D01*
X39075000Y60910715D01*
X39146428Y60875000D01*
X39182142Y60839286D01*
X39217857Y60767858D01*
X39217857Y60660715D01*
X39182142Y60589286D01*
X39146428Y60553572D01*
X39075000Y60517858D01*
X38789285Y60517858D01*
X39467857Y60910715D02*
X39932142Y60910715D01*
X39682142Y60625000D01*
X39789285Y60625000D01*
X39860714Y60589286D01*
X39896428Y60553572D01*
X39932142Y60482143D01*
X39932142Y60303572D01*
X39896428Y60232143D01*
X39860714Y60196429D01*
X39789285Y60160715D01*
X39575000Y60160715D01*
X39503571Y60196429D01*
X39467857Y60232143D01*
X40182142Y60910715D02*
X40682142Y60910715D01*
X40360714Y60160715D01*
X13617857Y59232143D02*
X13582142Y59196429D01*
X13475000Y59160715D01*
X13403571Y59160715D01*
X13296428Y59196429D01*
X13225000Y59267858D01*
X13189285Y59339286D01*
X13153571Y59482143D01*
X13153571Y59589286D01*
X13189285Y59732143D01*
X13225000Y59803572D01*
X13296428Y59875000D01*
X13403571Y59910715D01*
X13475000Y59910715D01*
X13582142Y59875000D01*
X13617857Y59839286D01*
X14260714Y59660715D02*
X14260714Y59160715D01*
X14082142Y59946429D02*
X13903571Y59410715D01*
X14367857Y59410715D01*
X14796428Y59910715D02*
X14867857Y59910715D01*
X14939285Y59875000D01*
X14975000Y59839286D01*
X15010714Y59767858D01*
X15046428Y59625000D01*
X15046428Y59446429D01*
X15010714Y59303572D01*
X14975000Y59232143D01*
X14939285Y59196429D01*
X14867857Y59160715D01*
X14796428Y59160715D01*
X14725000Y59196429D01*
X14689285Y59232143D01*
X14653571Y59303572D01*
X14617857Y59446429D01*
X14617857Y59625000D01*
X14653571Y59767858D01*
X14689285Y59839286D01*
X14725000Y59875000D01*
X14796428Y59910715D01*
X33817857Y59332143D02*
X33782142Y59296429D01*
X33675000Y59260715D01*
X33603571Y59260715D01*
X33496428Y59296429D01*
X33425000Y59367858D01*
X33389285Y59439286D01*
X33353571Y59582143D01*
X33353571Y59689286D01*
X33389285Y59832143D01*
X33425000Y59903572D01*
X33496428Y59975000D01*
X33603571Y60010715D01*
X33675000Y60010715D01*
X33782142Y59975000D01*
X33817857Y59939286D01*
X34460714Y59760715D02*
X34460714Y59260715D01*
X34282142Y60046429D02*
X34103571Y59510715D01*
X34567857Y59510715D01*
X35246428Y59260715D02*
X34817857Y59260715D01*
X35032142Y59260715D02*
X35032142Y60010715D01*
X34960714Y59903572D01*
X34889285Y59832143D01*
X34817857Y59796429D01*
X40339285Y36117858D02*
X39982142Y35867858D01*
X40339285Y35689286D02*
X39589285Y35689286D01*
X39589285Y35975000D01*
X39625000Y36046429D01*
X39660714Y36082143D01*
X39732142Y36117858D01*
X39839285Y36117858D01*
X39910714Y36082143D01*
X39946428Y36046429D01*
X39982142Y35975000D01*
X39982142Y35689286D01*
X39660714Y36403572D02*
X39625000Y36439286D01*
X39589285Y36510715D01*
X39589285Y36689286D01*
X39625000Y36760715D01*
X39660714Y36796429D01*
X39732142Y36832143D01*
X39803571Y36832143D01*
X39910714Y36796429D01*
X40339285Y36367858D01*
X40339285Y36832143D01*
X39910714Y37260715D02*
X39875000Y37189286D01*
X39839285Y37153572D01*
X39767857Y37117858D01*
X39732142Y37117858D01*
X39660714Y37153572D01*
X39625000Y37189286D01*
X39589285Y37260715D01*
X39589285Y37403572D01*
X39625000Y37475000D01*
X39660714Y37510715D01*
X39732142Y37546429D01*
X39767857Y37546429D01*
X39839285Y37510715D01*
X39875000Y37475000D01*
X39910714Y37403572D01*
X39910714Y37260715D01*
X39946428Y37189286D01*
X39982142Y37153572D01*
X40053571Y37117858D01*
X40196428Y37117858D01*
X40267857Y37153572D01*
X40303571Y37189286D01*
X40339285Y37260715D01*
X40339285Y37403572D01*
X40303571Y37475000D01*
X40267857Y37510715D01*
X40196428Y37546429D01*
X40053571Y37546429D01*
X39982142Y37510715D01*
X39946428Y37475000D01*
X39910714Y37403572D01*
X45467857Y38017858D02*
X45503571Y37982143D01*
X45539285Y37875000D01*
X45539285Y37803572D01*
X45503571Y37696429D01*
X45432142Y37625000D01*
X45360714Y37589286D01*
X45217857Y37553572D01*
X45110714Y37553572D01*
X44967857Y37589286D01*
X44896428Y37625000D01*
X44825000Y37696429D01*
X44789285Y37803572D01*
X44789285Y37875000D01*
X44825000Y37982143D01*
X44860714Y38017858D01*
X44789285Y38696429D02*
X44789285Y38339286D01*
X45146428Y38303572D01*
X45110714Y38339286D01*
X45075000Y38410715D01*
X45075000Y38589286D01*
X45110714Y38660715D01*
X45146428Y38696429D01*
X45217857Y38732143D01*
X45396428Y38732143D01*
X45467857Y38696429D01*
X45503571Y38660715D01*
X45539285Y38589286D01*
X45539285Y38410715D01*
X45503571Y38339286D01*
X45467857Y38303572D01*
X45110714Y39160715D02*
X45075000Y39089286D01*
X45039285Y39053572D01*
X44967857Y39017858D01*
X44932142Y39017858D01*
X44860714Y39053572D01*
X44825000Y39089286D01*
X44789285Y39160715D01*
X44789285Y39303572D01*
X44825000Y39375000D01*
X44860714Y39410715D01*
X44932142Y39446429D01*
X44967857Y39446429D01*
X45039285Y39410715D01*
X45075000Y39375000D01*
X45110714Y39303572D01*
X45110714Y39160715D01*
X45146428Y39089286D01*
X45182142Y39053572D01*
X45253571Y39017858D01*
X45396428Y39017858D01*
X45467857Y39053572D01*
X45503571Y39089286D01*
X45539285Y39160715D01*
X45539285Y39303572D01*
X45503571Y39375000D01*
X45467857Y39410715D01*
X45396428Y39446429D01*
X45253571Y39446429D01*
X45182142Y39410715D01*
X45146428Y39375000D01*
X45110714Y39303572D01*
X50517857Y49660715D02*
X50267857Y50017858D01*
X50089285Y49660715D02*
X50089285Y50410715D01*
X50375000Y50410715D01*
X50446428Y50375000D01*
X50482142Y50339286D01*
X50517857Y50267858D01*
X50517857Y50160715D01*
X50482142Y50089286D01*
X50446428Y50053572D01*
X50375000Y50017858D01*
X50089285Y50017858D01*
X51160714Y50410715D02*
X51017857Y50410715D01*
X50946428Y50375000D01*
X50910714Y50339286D01*
X50839285Y50232143D01*
X50803571Y50089286D01*
X50803571Y49803572D01*
X50839285Y49732143D01*
X50875000Y49696429D01*
X50946428Y49660715D01*
X51089285Y49660715D01*
X51160714Y49696429D01*
X51196428Y49732143D01*
X51232142Y49803572D01*
X51232142Y49982143D01*
X51196428Y50053572D01*
X51160714Y50089286D01*
X51089285Y50125000D01*
X50946428Y50125000D01*
X50875000Y50089286D01*
X50839285Y50053572D01*
X50803571Y49982143D01*
X51910714Y50410715D02*
X51553571Y50410715D01*
X51517857Y50053572D01*
X51553571Y50089286D01*
X51625000Y50125000D01*
X51803571Y50125000D01*
X51875000Y50089286D01*
X51910714Y50053572D01*
X51946428Y49982143D01*
X51946428Y49803572D01*
X51910714Y49732143D01*
X51875000Y49696429D01*
X51803571Y49660715D01*
X51625000Y49660715D01*
X51553571Y49696429D01*
X51517857Y49732143D01*
X39267857Y51532143D02*
X39232142Y51496429D01*
X39125000Y51460715D01*
X39053571Y51460715D01*
X38946428Y51496429D01*
X38875000Y51567858D01*
X38839285Y51639286D01*
X38803571Y51782143D01*
X38803571Y51889286D01*
X38839285Y52032143D01*
X38875000Y52103572D01*
X38946428Y52175000D01*
X39053571Y52210715D01*
X39125000Y52210715D01*
X39232142Y52175000D01*
X39267857Y52139286D01*
X39517857Y52210715D02*
X39982142Y52210715D01*
X39732142Y51925000D01*
X39839285Y51925000D01*
X39910714Y51889286D01*
X39946428Y51853572D01*
X39982142Y51782143D01*
X39982142Y51603572D01*
X39946428Y51532143D01*
X39910714Y51496429D01*
X39839285Y51460715D01*
X39625000Y51460715D01*
X39553571Y51496429D01*
X39517857Y51532143D01*
X40696428Y51460715D02*
X40267857Y51460715D01*
X40482142Y51460715D02*
X40482142Y52210715D01*
X40410714Y52103572D01*
X40339285Y52032143D01*
X40267857Y51996429D01*
X43639285Y18917858D02*
X43282142Y18667858D01*
X43639285Y18489286D02*
X42889285Y18489286D01*
X42889285Y18775000D01*
X42925000Y18846429D01*
X42960714Y18882143D01*
X43032142Y18917858D01*
X43139285Y18917858D01*
X43210714Y18882143D01*
X43246428Y18846429D01*
X43282142Y18775000D01*
X43282142Y18489286D01*
X43639285Y19632143D02*
X43639285Y19203572D01*
X43639285Y19417858D02*
X42889285Y19417858D01*
X42996428Y19346429D01*
X43067857Y19275000D01*
X43103571Y19203572D01*
X42889285Y20096429D02*
X42889285Y20167858D01*
X42925000Y20239286D01*
X42960714Y20275000D01*
X43032142Y20310715D01*
X43175000Y20346429D01*
X43353571Y20346429D01*
X43496428Y20310715D01*
X43567857Y20275000D01*
X43603571Y20239286D01*
X43639285Y20167858D01*
X43639285Y20096429D01*
X43603571Y20025000D01*
X43567857Y19989286D01*
X43496428Y19953572D01*
X43353571Y19917858D01*
X43175000Y19917858D01*
X43032142Y19953572D01*
X42960714Y19989286D01*
X42925000Y20025000D01*
X42889285Y20096429D01*
X45042857Y47017858D02*
X45078571Y46982143D01*
X45114285Y46875000D01*
X45114285Y46803572D01*
X45078571Y46696429D01*
X45007142Y46625000D01*
X44935714Y46589286D01*
X44792857Y46553572D01*
X44685714Y46553572D01*
X44542857Y46589286D01*
X44471428Y46625000D01*
X44400000Y46696429D01*
X44364285Y46803572D01*
X44364285Y46875000D01*
X44400000Y46982143D01*
X44435714Y47017858D01*
X44364285Y47696429D02*
X44364285Y47339286D01*
X44721428Y47303572D01*
X44685714Y47339286D01*
X44650000Y47410715D01*
X44650000Y47589286D01*
X44685714Y47660715D01*
X44721428Y47696429D01*
X44792857Y47732143D01*
X44971428Y47732143D01*
X45042857Y47696429D01*
X45078571Y47660715D01*
X45114285Y47589286D01*
X45114285Y47410715D01*
X45078571Y47339286D01*
X45042857Y47303572D01*
X45114285Y48089286D02*
X45114285Y48232143D01*
X45078571Y48303572D01*
X45042857Y48339286D01*
X44935714Y48410715D01*
X44792857Y48446429D01*
X44507142Y48446429D01*
X44435714Y48410715D01*
X44400000Y48375000D01*
X44364285Y48303572D01*
X44364285Y48160715D01*
X44400000Y48089286D01*
X44435714Y48053572D01*
X44507142Y48017858D01*
X44685714Y48017858D01*
X44757142Y48053572D01*
X44792857Y48089286D01*
X44828571Y48160715D01*
X44828571Y48303572D01*
X44792857Y48375000D01*
X44757142Y48410715D01*
X44685714Y48446429D01*
X38839285Y13146429D02*
X38089285Y13146429D01*
X38089285Y13325000D01*
X38125000Y13432143D01*
X38196428Y13503572D01*
X38267857Y13539286D01*
X38410714Y13575000D01*
X38517857Y13575000D01*
X38660714Y13539286D01*
X38732142Y13503572D01*
X38803571Y13432143D01*
X38839285Y13325000D01*
X38839285Y13146429D01*
X38089285Y13825000D02*
X38089285Y14289286D01*
X38375000Y14039286D01*
X38375000Y14146429D01*
X38410714Y14217858D01*
X38446428Y14253572D01*
X38517857Y14289286D01*
X38696428Y14289286D01*
X38767857Y14253572D01*
X38803571Y14217858D01*
X38839285Y14146429D01*
X38839285Y13932143D01*
X38803571Y13860715D01*
X38767857Y13825000D01*
X53217857Y59432143D02*
X53182142Y59396429D01*
X53075000Y59360715D01*
X53003571Y59360715D01*
X52896428Y59396429D01*
X52825000Y59467858D01*
X52789285Y59539286D01*
X52753571Y59682143D01*
X52753571Y59789286D01*
X52789285Y59932143D01*
X52825000Y60003572D01*
X52896428Y60075000D01*
X53003571Y60110715D01*
X53075000Y60110715D01*
X53182142Y60075000D01*
X53217857Y60039286D01*
X53860714Y59860715D02*
X53860714Y59360715D01*
X53682142Y60146429D02*
X53503571Y59610715D01*
X53967857Y59610715D01*
X54217857Y60039286D02*
X54253571Y60075000D01*
X54325000Y60110715D01*
X54503571Y60110715D01*
X54575000Y60075000D01*
X54610714Y60039286D01*
X54646428Y59967858D01*
X54646428Y59896429D01*
X54610714Y59789286D01*
X54182142Y59360715D01*
X54646428Y59360715D01*
X19017857Y60260715D02*
X18767857Y60617858D01*
X18589285Y60260715D02*
X18589285Y61010715D01*
X18875000Y61010715D01*
X18946428Y60975000D01*
X18982142Y60939286D01*
X19017857Y60867858D01*
X19017857Y60760715D01*
X18982142Y60689286D01*
X18946428Y60653572D01*
X18875000Y60617858D01*
X18589285Y60617858D01*
X19267857Y61010715D02*
X19732142Y61010715D01*
X19482142Y60725000D01*
X19589285Y60725000D01*
X19660714Y60689286D01*
X19696428Y60653572D01*
X19732142Y60582143D01*
X19732142Y60403572D01*
X19696428Y60332143D01*
X19660714Y60296429D01*
X19589285Y60260715D01*
X19375000Y60260715D01*
X19303571Y60296429D01*
X19267857Y60332143D01*
X19982142Y61010715D02*
X20446428Y61010715D01*
X20196428Y60725000D01*
X20303571Y60725000D01*
X20375000Y60689286D01*
X20410714Y60653572D01*
X20446428Y60582143D01*
X20446428Y60403572D01*
X20410714Y60332143D01*
X20375000Y60296429D01*
X20303571Y60260715D01*
X20089285Y60260715D01*
X20017857Y60296429D01*
X19982142Y60332143D01*
X50928571Y43010715D02*
X50928571Y42403572D01*
X50964285Y42332143D01*
X51000000Y42296429D01*
X51071428Y42260715D01*
X51214285Y42260715D01*
X51285714Y42296429D01*
X51321428Y42332143D01*
X51357142Y42403572D01*
X51357142Y43010715D01*
X51642857Y43010715D02*
X52107142Y43010715D01*
X51857142Y42725000D01*
X51964285Y42725000D01*
X52035714Y42689286D01*
X52071428Y42653572D01*
X52107142Y42582143D01*
X52107142Y42403572D01*
X52071428Y42332143D01*
X52035714Y42296429D01*
X51964285Y42260715D01*
X51750000Y42260715D01*
X51678571Y42296429D01*
X51642857Y42332143D01*
X19017857Y62160715D02*
X18767857Y62517858D01*
X18589285Y62160715D02*
X18589285Y62910715D01*
X18875000Y62910715D01*
X18946428Y62875000D01*
X18982142Y62839286D01*
X19017857Y62767858D01*
X19017857Y62660715D01*
X18982142Y62589286D01*
X18946428Y62553572D01*
X18875000Y62517858D01*
X18589285Y62517858D01*
X19696428Y62910715D02*
X19339285Y62910715D01*
X19303571Y62553572D01*
X19339285Y62589286D01*
X19410714Y62625000D01*
X19589285Y62625000D01*
X19660714Y62589286D01*
X19696428Y62553572D01*
X19732142Y62482143D01*
X19732142Y62303572D01*
X19696428Y62232143D01*
X19660714Y62196429D01*
X19589285Y62160715D01*
X19410714Y62160715D01*
X19339285Y62196429D01*
X19303571Y62232143D01*
X19982142Y62910715D02*
X20446428Y62910715D01*
X20196428Y62625000D01*
X20303571Y62625000D01*
X20375000Y62589286D01*
X20410714Y62553572D01*
X20446428Y62482143D01*
X20446428Y62303572D01*
X20410714Y62232143D01*
X20375000Y62196429D01*
X20303571Y62160715D01*
X20089285Y62160715D01*
X20017857Y62196429D01*
X19982142Y62232143D01*
X55639285Y44717858D02*
X55282142Y44467858D01*
X55639285Y44289286D02*
X54889285Y44289286D01*
X54889285Y44575000D01*
X54925000Y44646429D01*
X54960714Y44682143D01*
X55032142Y44717858D01*
X55139285Y44717858D01*
X55210714Y44682143D01*
X55246428Y44646429D01*
X55282142Y44575000D01*
X55282142Y44289286D01*
X54889285Y45360715D02*
X54889285Y45217858D01*
X54925000Y45146429D01*
X54960714Y45110715D01*
X55067857Y45039286D01*
X55210714Y45003572D01*
X55496428Y45003572D01*
X55567857Y45039286D01*
X55603571Y45075000D01*
X55639285Y45146429D01*
X55639285Y45289286D01*
X55603571Y45360715D01*
X55567857Y45396429D01*
X55496428Y45432143D01*
X55317857Y45432143D01*
X55246428Y45396429D01*
X55210714Y45360715D01*
X55175000Y45289286D01*
X55175000Y45146429D01*
X55210714Y45075000D01*
X55246428Y45039286D01*
X55317857Y45003572D01*
X55139285Y46075000D02*
X55639285Y46075000D01*
X54853571Y45896429D02*
X55389285Y45717858D01*
X55389285Y46182143D01*
X46139285Y50117858D02*
X45782142Y49867858D01*
X46139285Y49689286D02*
X45389285Y49689286D01*
X45389285Y49975000D01*
X45425000Y50046429D01*
X45460714Y50082143D01*
X45532142Y50117858D01*
X45639285Y50117858D01*
X45710714Y50082143D01*
X45746428Y50046429D01*
X45782142Y49975000D01*
X45782142Y49689286D01*
X45389285Y50760715D02*
X45389285Y50617858D01*
X45425000Y50546429D01*
X45460714Y50510715D01*
X45567857Y50439286D01*
X45710714Y50403572D01*
X45996428Y50403572D01*
X46067857Y50439286D01*
X46103571Y50475000D01*
X46139285Y50546429D01*
X46139285Y50689286D01*
X46103571Y50760715D01*
X46067857Y50796429D01*
X45996428Y50832143D01*
X45817857Y50832143D01*
X45746428Y50796429D01*
X45710714Y50760715D01*
X45675000Y50689286D01*
X45675000Y50546429D01*
X45710714Y50475000D01*
X45746428Y50439286D01*
X45817857Y50403572D01*
X45389285Y51082143D02*
X45389285Y51582143D01*
X46139285Y51260715D01*
X44639285Y50117858D02*
X44282142Y49867858D01*
X44639285Y49689286D02*
X43889285Y49689286D01*
X43889285Y49975000D01*
X43925000Y50046429D01*
X43960714Y50082143D01*
X44032142Y50117858D01*
X44139285Y50117858D01*
X44210714Y50082143D01*
X44246428Y50046429D01*
X44282142Y49975000D01*
X44282142Y49689286D01*
X43889285Y50760715D02*
X43889285Y50617858D01*
X43925000Y50546429D01*
X43960714Y50510715D01*
X44067857Y50439286D01*
X44210714Y50403572D01*
X44496428Y50403572D01*
X44567857Y50439286D01*
X44603571Y50475000D01*
X44639285Y50546429D01*
X44639285Y50689286D01*
X44603571Y50760715D01*
X44567857Y50796429D01*
X44496428Y50832143D01*
X44317857Y50832143D01*
X44246428Y50796429D01*
X44210714Y50760715D01*
X44175000Y50689286D01*
X44175000Y50546429D01*
X44210714Y50475000D01*
X44246428Y50439286D01*
X44317857Y50403572D01*
X43889285Y51475000D02*
X43889285Y51332143D01*
X43925000Y51260715D01*
X43960714Y51225000D01*
X44067857Y51153572D01*
X44210714Y51117858D01*
X44496428Y51117858D01*
X44567857Y51153572D01*
X44603571Y51189286D01*
X44639285Y51260715D01*
X44639285Y51403572D01*
X44603571Y51475000D01*
X44567857Y51510715D01*
X44496428Y51546429D01*
X44317857Y51546429D01*
X44246428Y51510715D01*
X44210714Y51475000D01*
X44175000Y51403572D01*
X44175000Y51260715D01*
X44210714Y51189286D01*
X44246428Y51153572D01*
X44317857Y51117858D01*
X33317857Y75960715D02*
X33067857Y76317858D01*
X32889285Y75960715D02*
X32889285Y76710715D01*
X33175000Y76710715D01*
X33246428Y76675000D01*
X33282142Y76639286D01*
X33317857Y76567858D01*
X33317857Y76460715D01*
X33282142Y76389286D01*
X33246428Y76353572D01*
X33175000Y76317858D01*
X32889285Y76317858D01*
X33960714Y76460715D02*
X33960714Y75960715D01*
X33782142Y76746429D02*
X33603571Y76210715D01*
X34067857Y76210715D01*
X34317857Y76639286D02*
X34353571Y76675000D01*
X34425000Y76710715D01*
X34603571Y76710715D01*
X34675000Y76675000D01*
X34710714Y76639286D01*
X34746428Y76567858D01*
X34746428Y76496429D01*
X34710714Y76389286D01*
X34282142Y75960715D01*
X34746428Y75960715D01*
X31717857Y56860715D02*
X31467857Y57217858D01*
X31289285Y56860715D02*
X31289285Y57610715D01*
X31575000Y57610715D01*
X31646428Y57575000D01*
X31682142Y57539286D01*
X31717857Y57467858D01*
X31717857Y57360715D01*
X31682142Y57289286D01*
X31646428Y57253572D01*
X31575000Y57217858D01*
X31289285Y57217858D01*
X32360714Y57360715D02*
X32360714Y56860715D01*
X32182142Y57646429D02*
X32003571Y57110715D01*
X32467857Y57110715D01*
X32860714Y57289286D02*
X32789285Y57325000D01*
X32753571Y57360715D01*
X32717857Y57432143D01*
X32717857Y57467858D01*
X32753571Y57539286D01*
X32789285Y57575000D01*
X32860714Y57610715D01*
X33003571Y57610715D01*
X33075000Y57575000D01*
X33110714Y57539286D01*
X33146428Y57467858D01*
X33146428Y57432143D01*
X33110714Y57360715D01*
X33075000Y57325000D01*
X33003571Y57289286D01*
X32860714Y57289286D01*
X32789285Y57253572D01*
X32753571Y57217858D01*
X32717857Y57146429D01*
X32717857Y57003572D01*
X32753571Y56932143D01*
X32789285Y56896429D01*
X32860714Y56860715D01*
X33003571Y56860715D01*
X33075000Y56896429D01*
X33110714Y56932143D01*
X33146428Y57003572D01*
X33146428Y57146429D01*
X33110714Y57217858D01*
X33075000Y57253572D01*
X33003571Y57289286D01*
X1650000Y4753572D02*
X1400000Y4753572D01*
X1400000Y4360715D02*
X1400000Y5110715D01*
X1757142Y5110715D01*
X1971428Y5110715D02*
X2435714Y5110715D01*
X2185714Y4825000D01*
X2292857Y4825000D01*
X2364285Y4789286D01*
X2400000Y4753572D01*
X2435714Y4682143D01*
X2435714Y4503572D01*
X2400000Y4432143D01*
X2364285Y4396429D01*
X2292857Y4360715D01*
X2078571Y4360715D01*
X2007142Y4396429D01*
X1971428Y4432143D01*
X18017857Y46132143D02*
X17982142Y46096429D01*
X17875000Y46060715D01*
X17803571Y46060715D01*
X17696428Y46096429D01*
X17625000Y46167858D01*
X17589285Y46239286D01*
X17553571Y46382143D01*
X17553571Y46489286D01*
X17589285Y46632143D01*
X17625000Y46703572D01*
X17696428Y46775000D01*
X17803571Y46810715D01*
X17875000Y46810715D01*
X17982142Y46775000D01*
X18017857Y46739286D01*
X18303571Y46739286D02*
X18339285Y46775000D01*
X18410714Y46810715D01*
X18589285Y46810715D01*
X18660714Y46775000D01*
X18696428Y46739286D01*
X18732142Y46667858D01*
X18732142Y46596429D01*
X18696428Y46489286D01*
X18267857Y46060715D01*
X18732142Y46060715D01*
X19017857Y46739286D02*
X19053571Y46775000D01*
X19125000Y46810715D01*
X19303571Y46810715D01*
X19375000Y46775000D01*
X19410714Y46739286D01*
X19446428Y46667858D01*
X19446428Y46596429D01*
X19410714Y46489286D01*
X18982142Y46060715D01*
X19446428Y46060715D01*
X9975000Y54660715D02*
X9617857Y54660715D01*
X9617857Y55410715D01*
X10617857Y54660715D02*
X10189285Y54660715D01*
X10403571Y54660715D02*
X10403571Y55410715D01*
X10332142Y55303572D01*
X10260714Y55232143D01*
X10189285Y55196429D01*
X13267857Y75760715D02*
X13017857Y76117858D01*
X12839285Y75760715D02*
X12839285Y76510715D01*
X13125000Y76510715D01*
X13196428Y76475000D01*
X13232142Y76439286D01*
X13267857Y76367858D01*
X13267857Y76260715D01*
X13232142Y76189286D01*
X13196428Y76153572D01*
X13125000Y76117858D01*
X12839285Y76117858D01*
X13910714Y76260715D02*
X13910714Y75760715D01*
X13732142Y76546429D02*
X13553571Y76010715D01*
X14017857Y76010715D01*
X14696428Y75760715D02*
X14267857Y75760715D01*
X14482142Y75760715D02*
X14482142Y76510715D01*
X14410714Y76403572D01*
X14339285Y76332143D01*
X14267857Y76296429D01*
X53996428Y13210715D02*
X53996428Y12603572D01*
X54032142Y12532143D01*
X54067857Y12496429D01*
X54139285Y12460715D01*
X54282142Y12460715D01*
X54353571Y12496429D01*
X54389285Y12532143D01*
X54425000Y12603572D01*
X54425000Y13210715D01*
X54746428Y12496429D02*
X54853571Y12460715D01*
X55032142Y12460715D01*
X55103571Y12496429D01*
X55139285Y12532143D01*
X55175000Y12603572D01*
X55175000Y12675000D01*
X55139285Y12746429D01*
X55103571Y12782143D01*
X55032142Y12817858D01*
X54889285Y12853572D01*
X54817857Y12889286D01*
X54782142Y12925000D01*
X54746428Y12996429D01*
X54746428Y13067858D01*
X54782142Y13139286D01*
X54817857Y13175000D01*
X54889285Y13210715D01*
X55067857Y13210715D01*
X55175000Y13175000D01*
X55746428Y12853572D02*
X55853571Y12817858D01*
X55889285Y12782143D01*
X55925000Y12710715D01*
X55925000Y12603572D01*
X55889285Y12532143D01*
X55853571Y12496429D01*
X55782142Y12460715D01*
X55496428Y12460715D01*
X55496428Y13210715D01*
X55746428Y13210715D01*
X55817857Y13175000D01*
X55853571Y13139286D01*
X55889285Y13067858D01*
X55889285Y12996429D01*
X55853571Y12925000D01*
X55817857Y12889286D01*
X55746428Y12853572D01*
X55496428Y12853572D01*
X56639285Y12460715D02*
X56210714Y12460715D01*
X56425000Y12460715D02*
X56425000Y13210715D01*
X56353571Y13103572D01*
X56282142Y13032143D01*
X56210714Y12996429D01*
X37739285Y13146429D02*
X36989285Y13146429D01*
X36989285Y13325000D01*
X37025000Y13432143D01*
X37096428Y13503572D01*
X37167857Y13539286D01*
X37310714Y13575000D01*
X37417857Y13575000D01*
X37560714Y13539286D01*
X37632142Y13503572D01*
X37703571Y13432143D01*
X37739285Y13325000D01*
X37739285Y13146429D01*
X36989285Y14253572D02*
X36989285Y13896429D01*
X37346428Y13860715D01*
X37310714Y13896429D01*
X37275000Y13967858D01*
X37275000Y14146429D01*
X37310714Y14217858D01*
X37346428Y14253572D01*
X37417857Y14289286D01*
X37596428Y14289286D01*
X37667857Y14253572D01*
X37703571Y14217858D01*
X37739285Y14146429D01*
X37739285Y13967858D01*
X37703571Y13896429D01*
X37667857Y13860715D01*
X20139285Y72017858D02*
X19782142Y71767858D01*
X20139285Y71589286D02*
X19389285Y71589286D01*
X19389285Y71875000D01*
X19425000Y71946429D01*
X19460714Y71982143D01*
X19532142Y72017858D01*
X19639285Y72017858D01*
X19710714Y71982143D01*
X19746428Y71946429D01*
X19782142Y71875000D01*
X19782142Y71589286D01*
X19389285Y72696429D02*
X19389285Y72339286D01*
X19746428Y72303572D01*
X19710714Y72339286D01*
X19675000Y72410715D01*
X19675000Y72589286D01*
X19710714Y72660715D01*
X19746428Y72696429D01*
X19817857Y72732143D01*
X19996428Y72732143D01*
X20067857Y72696429D01*
X20103571Y72660715D01*
X20139285Y72589286D01*
X20139285Y72410715D01*
X20103571Y72339286D01*
X20067857Y72303572D01*
X20139285Y73089286D02*
X20139285Y73232143D01*
X20103571Y73303572D01*
X20067857Y73339286D01*
X19960714Y73410715D01*
X19817857Y73446429D01*
X19532142Y73446429D01*
X19460714Y73410715D01*
X19425000Y73375000D01*
X19389285Y73303572D01*
X19389285Y73160715D01*
X19425000Y73089286D01*
X19460714Y73053572D01*
X19532142Y73017858D01*
X19710714Y73017858D01*
X19782142Y73053572D01*
X19817857Y73089286D01*
X19853571Y73160715D01*
X19853571Y73303572D01*
X19817857Y73375000D01*
X19782142Y73410715D01*
X19710714Y73446429D01*
X24167857Y33610715D02*
X24667857Y32860715D01*
X24667857Y33610715D02*
X24167857Y32860715D01*
X25346428Y32860715D02*
X24917857Y32860715D01*
X25132142Y32860715D02*
X25132142Y33610715D01*
X25060714Y33503572D01*
X24989285Y33432143D01*
X24917857Y33396429D01*
X33714285Y7846429D02*
X32964285Y7846429D01*
X32964285Y8025000D01*
X33000000Y8132143D01*
X33071428Y8203572D01*
X33142857Y8239286D01*
X33285714Y8275000D01*
X33392857Y8275000D01*
X33535714Y8239286D01*
X33607142Y8203572D01*
X33678571Y8132143D01*
X33714285Y8025000D01*
X33714285Y7846429D01*
X33714285Y8989286D02*
X33714285Y8560715D01*
X33714285Y8775000D02*
X32964285Y8775000D01*
X33071428Y8703572D01*
X33142857Y8632143D01*
X33178571Y8560715D01*
X15039285Y8746429D02*
X14289285Y8746429D01*
X14289285Y8925000D01*
X14325000Y9032143D01*
X14396428Y9103572D01*
X14467857Y9139286D01*
X14610714Y9175000D01*
X14717857Y9175000D01*
X14860714Y9139286D01*
X14932142Y9103572D01*
X15003571Y9032143D01*
X15039285Y8925000D01*
X15039285Y8746429D01*
X14360714Y9460715D02*
X14325000Y9496429D01*
X14289285Y9567858D01*
X14289285Y9746429D01*
X14325000Y9817858D01*
X14360714Y9853572D01*
X14432142Y9889286D01*
X14503571Y9889286D01*
X14610714Y9853572D01*
X15039285Y9425000D01*
X15039285Y9889286D01*
X36739285Y13146429D02*
X35989285Y13146429D01*
X35989285Y13325000D01*
X36025000Y13432143D01*
X36096428Y13503572D01*
X36167857Y13539286D01*
X36310714Y13575000D01*
X36417857Y13575000D01*
X36560714Y13539286D01*
X36632142Y13503572D01*
X36703571Y13432143D01*
X36739285Y13325000D01*
X36739285Y13146429D01*
X36239285Y14217858D02*
X36739285Y14217858D01*
X35953571Y14039286D02*
X36489285Y13860715D01*
X36489285Y14325000D01*
X49617857Y83017858D02*
X49653571Y82982143D01*
X49689285Y82875000D01*
X49689285Y82803572D01*
X49653571Y82696429D01*
X49582142Y82625000D01*
X49510714Y82589286D01*
X49367857Y82553572D01*
X49260714Y82553572D01*
X49117857Y82589286D01*
X49046428Y82625000D01*
X48975000Y82696429D01*
X48939285Y82803572D01*
X48939285Y82875000D01*
X48975000Y82982143D01*
X49010714Y83017858D01*
X48939285Y83267858D02*
X48939285Y83732143D01*
X49225000Y83482143D01*
X49225000Y83589286D01*
X49260714Y83660715D01*
X49296428Y83696429D01*
X49367857Y83732143D01*
X49546428Y83732143D01*
X49617857Y83696429D01*
X49653571Y83660715D01*
X49689285Y83589286D01*
X49689285Y83375000D01*
X49653571Y83303572D01*
X49617857Y83267858D01*
X48939285Y83982143D02*
X48939285Y84482143D01*
X49689285Y84160715D01*
X11517857Y56760715D02*
X11267857Y57117858D01*
X11089285Y56760715D02*
X11089285Y57510715D01*
X11375000Y57510715D01*
X11446428Y57475000D01*
X11482142Y57439286D01*
X11517857Y57367858D01*
X11517857Y57260715D01*
X11482142Y57189286D01*
X11446428Y57153572D01*
X11375000Y57117858D01*
X11089285Y57117858D01*
X12160714Y57260715D02*
X12160714Y56760715D01*
X11982142Y57546429D02*
X11803571Y57010715D01*
X12267857Y57010715D01*
X12482142Y57510715D02*
X12982142Y57510715D01*
X12660714Y56760715D01*
X44617857Y56332143D02*
X44582142Y56296429D01*
X44475000Y56260715D01*
X44403571Y56260715D01*
X44296428Y56296429D01*
X44225000Y56367858D01*
X44189285Y56439286D01*
X44153571Y56582143D01*
X44153571Y56689286D01*
X44189285Y56832143D01*
X44225000Y56903572D01*
X44296428Y56975000D01*
X44403571Y57010715D01*
X44475000Y57010715D01*
X44582142Y56975000D01*
X44617857Y56939286D01*
X44867857Y57010715D02*
X45332142Y57010715D01*
X45082142Y56725000D01*
X45189285Y56725000D01*
X45260714Y56689286D01*
X45296428Y56653572D01*
X45332142Y56582143D01*
X45332142Y56403572D01*
X45296428Y56332143D01*
X45260714Y56296429D01*
X45189285Y56260715D01*
X44975000Y56260715D01*
X44903571Y56296429D01*
X44867857Y56332143D01*
X45975000Y56760715D02*
X45975000Y56260715D01*
X45796428Y57046429D02*
X45617857Y56510715D01*
X46082142Y56510715D01*
X40317857Y54632143D02*
X40282142Y54596429D01*
X40175000Y54560715D01*
X40103571Y54560715D01*
X39996428Y54596429D01*
X39925000Y54667858D01*
X39889285Y54739286D01*
X39853571Y54882143D01*
X39853571Y54989286D01*
X39889285Y55132143D01*
X39925000Y55203572D01*
X39996428Y55275000D01*
X40103571Y55310715D01*
X40175000Y55310715D01*
X40282142Y55275000D01*
X40317857Y55239286D01*
X40567857Y55310715D02*
X41032142Y55310715D01*
X40782142Y55025000D01*
X40889285Y55025000D01*
X40960714Y54989286D01*
X40996428Y54953572D01*
X41032142Y54882143D01*
X41032142Y54703572D01*
X40996428Y54632143D01*
X40960714Y54596429D01*
X40889285Y54560715D01*
X40675000Y54560715D01*
X40603571Y54596429D01*
X40567857Y54632143D01*
X41282142Y55310715D02*
X41746428Y55310715D01*
X41496428Y55025000D01*
X41603571Y55025000D01*
X41675000Y54989286D01*
X41710714Y54953572D01*
X41746428Y54882143D01*
X41746428Y54703572D01*
X41710714Y54632143D01*
X41675000Y54596429D01*
X41603571Y54560715D01*
X41389285Y54560715D01*
X41317857Y54596429D01*
X41282142Y54632143D01*
X839285Y72517858D02*
X482142Y72267858D01*
X839285Y72089286D02*
X89285Y72089286D01*
X89285Y72375000D01*
X125000Y72446429D01*
X160714Y72482143D01*
X232142Y72517858D01*
X339285Y72517858D01*
X410714Y72482143D01*
X446428Y72446429D01*
X482142Y72375000D01*
X482142Y72089286D01*
X89285Y73196429D02*
X89285Y72839286D01*
X446428Y72803572D01*
X410714Y72839286D01*
X375000Y72910715D01*
X375000Y73089286D01*
X410714Y73160715D01*
X446428Y73196429D01*
X517857Y73232143D01*
X696428Y73232143D01*
X767857Y73196429D01*
X803571Y73160715D01*
X839285Y73089286D01*
X839285Y72910715D01*
X803571Y72839286D01*
X767857Y72803572D01*
X89285Y73875000D02*
X89285Y73732143D01*
X125000Y73660715D01*
X160714Y73625000D01*
X267857Y73553572D01*
X410714Y73517858D01*
X696428Y73517858D01*
X767857Y73553572D01*
X803571Y73589286D01*
X839285Y73660715D01*
X839285Y73803572D01*
X803571Y73875000D01*
X767857Y73910715D01*
X696428Y73946429D01*
X517857Y73946429D01*
X446428Y73910715D01*
X410714Y73875000D01*
X375000Y73803572D01*
X375000Y73660715D01*
X410714Y73589286D01*
X446428Y73553572D01*
X517857Y73517858D01*
X37317857Y54632143D02*
X37282142Y54596429D01*
X37175000Y54560715D01*
X37103571Y54560715D01*
X36996428Y54596429D01*
X36925000Y54667858D01*
X36889285Y54739286D01*
X36853571Y54882143D01*
X36853571Y54989286D01*
X36889285Y55132143D01*
X36925000Y55203572D01*
X36996428Y55275000D01*
X37103571Y55310715D01*
X37175000Y55310715D01*
X37282142Y55275000D01*
X37317857Y55239286D01*
X37603571Y55239286D02*
X37639285Y55275000D01*
X37710714Y55310715D01*
X37889285Y55310715D01*
X37960714Y55275000D01*
X37996428Y55239286D01*
X38032142Y55167858D01*
X38032142Y55096429D01*
X37996428Y54989286D01*
X37567857Y54560715D01*
X38032142Y54560715D01*
X38389285Y54560715D02*
X38532142Y54560715D01*
X38603571Y54596429D01*
X38639285Y54632143D01*
X38710714Y54739286D01*
X38746428Y54882143D01*
X38746428Y55167858D01*
X38710714Y55239286D01*
X38675000Y55275000D01*
X38603571Y55310715D01*
X38460714Y55310715D01*
X38389285Y55275000D01*
X38353571Y55239286D01*
X38317857Y55167858D01*
X38317857Y54989286D01*
X38353571Y54917858D01*
X38389285Y54882143D01*
X38460714Y54846429D01*
X38603571Y54846429D01*
X38675000Y54882143D01*
X38710714Y54917858D01*
X38746428Y54989286D01*
X839285Y69917858D02*
X482142Y69667858D01*
X839285Y69489286D02*
X89285Y69489286D01*
X89285Y69775000D01*
X125000Y69846429D01*
X160714Y69882143D01*
X232142Y69917858D01*
X339285Y69917858D01*
X410714Y69882143D01*
X446428Y69846429D01*
X482142Y69775000D01*
X482142Y69489286D01*
X89285Y70596429D02*
X89285Y70239286D01*
X446428Y70203572D01*
X410714Y70239286D01*
X375000Y70310715D01*
X375000Y70489286D01*
X410714Y70560715D01*
X446428Y70596429D01*
X517857Y70632143D01*
X696428Y70632143D01*
X767857Y70596429D01*
X803571Y70560715D01*
X839285Y70489286D01*
X839285Y70310715D01*
X803571Y70239286D01*
X767857Y70203572D01*
X89285Y70882143D02*
X89285Y71382143D01*
X839285Y71060715D01*
X33417857Y15160715D02*
X33167857Y15517858D01*
X32989285Y15160715D02*
X32989285Y15910715D01*
X33275000Y15910715D01*
X33346428Y15875000D01*
X33382142Y15839286D01*
X33417857Y15767858D01*
X33417857Y15660715D01*
X33382142Y15589286D01*
X33346428Y15553572D01*
X33275000Y15517858D01*
X32989285Y15517858D01*
X33703571Y15839286D02*
X33739285Y15875000D01*
X33810714Y15910715D01*
X33989285Y15910715D01*
X34060714Y15875000D01*
X34096428Y15839286D01*
X34132142Y15767858D01*
X34132142Y15696429D01*
X34096428Y15589286D01*
X33667857Y15160715D01*
X34132142Y15160715D01*
X34810714Y15910715D02*
X34453571Y15910715D01*
X34417857Y15553572D01*
X34453571Y15589286D01*
X34525000Y15625000D01*
X34703571Y15625000D01*
X34775000Y15589286D01*
X34810714Y15553572D01*
X34846428Y15482143D01*
X34846428Y15303572D01*
X34810714Y15232143D01*
X34775000Y15196429D01*
X34703571Y15160715D01*
X34525000Y15160715D01*
X34453571Y15196429D01*
X34417857Y15232143D01*
X40339285Y72017858D02*
X39982142Y71767858D01*
X40339285Y71589286D02*
X39589285Y71589286D01*
X39589285Y71875000D01*
X39625000Y71946429D01*
X39660714Y71982143D01*
X39732142Y72017858D01*
X39839285Y72017858D01*
X39910714Y71982143D01*
X39946428Y71946429D01*
X39982142Y71875000D01*
X39982142Y71589286D01*
X39589285Y72660715D02*
X39589285Y72517858D01*
X39625000Y72446429D01*
X39660714Y72410715D01*
X39767857Y72339286D01*
X39910714Y72303572D01*
X40196428Y72303572D01*
X40267857Y72339286D01*
X40303571Y72375000D01*
X40339285Y72446429D01*
X40339285Y72589286D01*
X40303571Y72660715D01*
X40267857Y72696429D01*
X40196428Y72732143D01*
X40017857Y72732143D01*
X39946428Y72696429D01*
X39910714Y72660715D01*
X39875000Y72589286D01*
X39875000Y72446429D01*
X39910714Y72375000D01*
X39946428Y72339286D01*
X40017857Y72303572D01*
X40339285Y73446429D02*
X40339285Y73017858D01*
X40339285Y73232143D02*
X39589285Y73232143D01*
X39696428Y73160715D01*
X39767857Y73089286D01*
X39803571Y73017858D01*
X16092857Y39732143D02*
X16057142Y39696429D01*
X15950000Y39660715D01*
X15878571Y39660715D01*
X15771428Y39696429D01*
X15700000Y39767858D01*
X15664285Y39839286D01*
X15628571Y39982143D01*
X15628571Y40089286D01*
X15664285Y40232143D01*
X15700000Y40303572D01*
X15771428Y40375000D01*
X15878571Y40410715D01*
X15950000Y40410715D01*
X16057142Y40375000D01*
X16092857Y40339286D01*
X16378571Y40339286D02*
X16414285Y40375000D01*
X16485714Y40410715D01*
X16664285Y40410715D01*
X16735714Y40375000D01*
X16771428Y40339286D01*
X16807142Y40267858D01*
X16807142Y40196429D01*
X16771428Y40089286D01*
X16342857Y39660715D01*
X16807142Y39660715D01*
X17521428Y39660715D02*
X17092857Y39660715D01*
X17307142Y39660715D02*
X17307142Y40410715D01*
X17235714Y40303572D01*
X17164285Y40232143D01*
X17092857Y40196429D01*
X50892857Y56810715D02*
X50642857Y57167858D01*
X50464285Y56810715D02*
X50464285Y57560715D01*
X50750000Y57560715D01*
X50821428Y57525000D01*
X50857142Y57489286D01*
X50892857Y57417858D01*
X50892857Y57310715D01*
X50857142Y57239286D01*
X50821428Y57203572D01*
X50750000Y57167858D01*
X50464285Y57167858D01*
X51535714Y57310715D02*
X51535714Y56810715D01*
X51357142Y57596429D02*
X51178571Y57060715D01*
X51642857Y57060715D01*
X51964285Y56810715D02*
X52107142Y56810715D01*
X52178571Y56846429D01*
X52214285Y56882143D01*
X52285714Y56989286D01*
X52321428Y57132143D01*
X52321428Y57417858D01*
X52285714Y57489286D01*
X52250000Y57525000D01*
X52178571Y57560715D01*
X52035714Y57560715D01*
X51964285Y57525000D01*
X51928571Y57489286D01*
X51892857Y57417858D01*
X51892857Y57239286D01*
X51928571Y57167858D01*
X51964285Y57132143D01*
X52035714Y57096429D01*
X52178571Y57096429D01*
X52250000Y57132143D01*
X52285714Y57167858D01*
X52321428Y57239286D01*
X30217857Y83117858D02*
X30253571Y83082143D01*
X30289285Y82975000D01*
X30289285Y82903572D01*
X30253571Y82796429D01*
X30182142Y82725000D01*
X30110714Y82689286D01*
X29967857Y82653572D01*
X29860714Y82653572D01*
X29717857Y82689286D01*
X29646428Y82725000D01*
X29575000Y82796429D01*
X29539285Y82903572D01*
X29539285Y82975000D01*
X29575000Y83082143D01*
X29610714Y83117858D01*
X29539285Y83367858D02*
X29539285Y83832143D01*
X29825000Y83582143D01*
X29825000Y83689286D01*
X29860714Y83760715D01*
X29896428Y83796429D01*
X29967857Y83832143D01*
X30146428Y83832143D01*
X30217857Y83796429D01*
X30253571Y83760715D01*
X30289285Y83689286D01*
X30289285Y83475000D01*
X30253571Y83403572D01*
X30217857Y83367858D01*
X29539285Y84510715D02*
X29539285Y84153572D01*
X29896428Y84117858D01*
X29860714Y84153572D01*
X29825000Y84225000D01*
X29825000Y84403572D01*
X29860714Y84475000D01*
X29896428Y84510715D01*
X29967857Y84546429D01*
X30146428Y84546429D01*
X30217857Y84510715D01*
X30253571Y84475000D01*
X30289285Y84403572D01*
X30289285Y84225000D01*
X30253571Y84153572D01*
X30217857Y84117858D01*
X55250000Y98353572D02*
X55000000Y98353572D01*
X55000000Y97960715D02*
X55000000Y98710715D01*
X55357142Y98710715D01*
X56035714Y97960715D02*
X55607142Y97960715D01*
X55821428Y97960715D02*
X55821428Y98710715D01*
X55750000Y98603572D01*
X55678571Y98532143D01*
X55607142Y98496429D01*
M02*
