M48
; DRILL file {KiCad (5.1.5)-3} date 8/20/2020 12:00:57 PM
; FORMAT={-:-/ absolute / inch / decimal}
; #@! TF.CreationDate,2020-08-20T12:00:57-05:00
; #@! TF.GenerationSoftware,Kicad,Pcbnew,(5.1.5)-3
; #@! TF.FileFunction,Plated,1,2,PTH
FMAT,2
INCH
T1C0.0118
T2C0.0138
T3C0.0157
T4C0.0173
T5C0.0295
T6C0.0315
T7C0.0394
T8C0.0433
T9C0.1575
%
G90
G05
T1
X0.0197Y1.9961
X0.0315Y2.874
X0.0315Y2.8425
X0.0315Y2.8071
X0.0315Y2.7677
X0.0315Y2.7283
X0.0315Y2.689
X0.0551Y1.5512
X0.0591Y1.7244
X0.063Y1.8622
X0.0669Y2.6102
X0.0669Y2.5787
X0.0669Y2.5472
X0.0669Y2.5157
X0.0669Y2.4488
X0.0748Y2.874
X0.0748Y2.8425
X0.0748Y2.8071
X0.0748Y2.7677
X0.0748Y2.7283
X0.0748Y2.689
X0.0748Y2.0177
X0.0748Y1.9331
X0.0748Y1.4331
X0.0748Y1.3346
X0.0748Y0.1929
X0.1063Y2.6102
X0.1063Y2.5787
X0.1063Y2.5472
X0.1063Y2.5157
X0.1063Y2.4488
X0.1077Y2.6431
X0.122Y2.874
X0.122Y2.8425
X0.122Y2.8071
X0.122Y2.7677
X0.122Y2.7283
X0.1274Y0.6352
X0.128Y1.9429
X0.1299Y2.0197
X0.1299Y1.7598
X0.1312Y0.4229
X0.132Y0.5324
X0.1417Y2.5787
X0.1417Y2.5472
X0.1417Y2.5157
X0.1417Y2.4488
X0.1614Y2.6358
X0.1654Y2.2126
X0.1654Y0.8268
X0.1654Y0.7362
X0.1693Y2.874
X0.1693Y2.8425
X0.1693Y2.8071
X0.1693Y2.7677
X0.1693Y2.7283
X0.1693Y0.2559
X0.1772Y2.4488
X0.1811Y0.9961
X0.185Y2.5787
X0.185Y2.5472
X0.185Y2.5157
X0.189Y0.8976
X0.1969Y0.2047
X0.2008Y1.315
X0.2008Y0.6496
X0.2087Y2.4488
X0.2165Y2.874
X0.2165Y2.8425
X0.2165Y2.8071
X0.2165Y2.7677
X0.2165Y2.7283
X0.2165Y2.689
X0.2165Y0.3465
X0.2244Y2.6102
X0.2244Y2.5787
X0.2244Y2.5472
X0.2244Y2.5157
X0.2244Y2.1969
X0.2283Y0.5118
X0.2402Y1.063
X0.2402Y0.8268
X0.2402Y0.7362
X0.2421Y1.9331
X0.2441Y2.1142
X0.2441Y2.0787
X0.248Y2.0217
X0.248Y1.8484
X0.248Y0.8976
X0.2559Y2.3228
X0.2638Y2.874
X0.2638Y2.8425
X0.2638Y2.8071
X0.2638Y2.7677
X0.2638Y2.7283
X0.2638Y2.689
X0.2638Y2.6102
X0.2638Y2.5787
X0.2638Y2.5472
X0.2638Y2.5157
X0.2677Y0.2598
X0.2717Y0.1398
X0.2795Y0.4724
X0.2795Y0.3543
X0.2841Y1.7822
X0.2874Y2.1811
X0.2874Y1.0807
X0.2953Y0.5512
X0.2992Y2.6102
X0.2992Y2.5787
X0.2992Y2.5472
X0.2992Y2.5157
X0.3012Y1.2126
X0.3031Y2.874
X0.3031Y2.8425
X0.3031Y2.8071
X0.3031Y2.7677
X0.3031Y2.7283
X0.3031Y2.689
X0.3031Y2.3228
X0.3051Y1.3504
X0.311Y0.8937
X0.315Y0.9606
X0.3189Y0.7795
X0.3189Y0.6496
X0.3189Y0.2126
X0.3228Y1.7441
X0.3268Y2.1811
X0.3307Y1.9488
X0.3346Y2.0157
X0.3346Y1.1831
X0.3414Y1.6997
X0.3484Y0.5512
X0.3504Y0.1378
X0.3642Y1.0
X0.3701Y2.1811
X0.3701Y1.1457
X0.3701Y0.3268
X0.378Y2.3228
X0.3819Y2.9105
X0.3819Y0.2441
X0.3839Y1.311
X0.3858Y1.5315
X0.3858Y0.6378
X0.3878Y0.8366
X0.3898Y0.4685
X0.4016Y0.3898
X0.4094Y2.0157
X0.4094Y1.9528
X0.4114Y1.5892
X0.4134Y2.1811
X0.4291Y1.1116
X0.4331Y0.9311
X0.4331Y0.2913
X0.437Y3.1398
X0.437Y3.1043
X0.437Y3.0689
X0.437Y1.5079
X0.437Y0.1358
X0.4409Y0.5472
X0.4488Y1.1909
X0.4488Y0.752
X0.4488Y0.3543
X0.4528Y0.2205
X0.4567Y2.1811
X0.4567Y1.5472
X0.4646Y0.4685
X0.4724Y1.0138
X0.4764Y3.1398
X0.4764Y3.1043
X0.4764Y3.0689
X0.4764Y1.0984
X0.4786Y1.4348
X0.4843Y2.0157
X0.4843Y1.9528
X0.4961Y2.1811
X0.5039Y0.3898
X0.5157Y3.1398
X0.5157Y3.1043
X0.5157Y3.0689
X0.5157Y0.9803
X0.5197Y1.1831
X0.5266Y0.5827
X0.5269Y1.3195
X0.5276Y1.6457
X0.5276Y0.6732
X0.5305Y0.4921
X0.5354Y2.1811
X0.5406Y2.2874
X0.5433Y2.1181
X0.5433Y2.0157
X0.5433Y1.9528
X0.5472Y0.2165
X0.5492Y0.7224
X0.5512Y3.1398
X0.5512Y3.1043
X0.5512Y3.0689
X0.563Y1.2362
X0.5669Y1.4567
X0.5709Y2.1181
X0.5738Y0.3622
X0.5767Y1.1457
X0.5778Y1.5787
X0.5787Y2.3386
X0.5866Y3.1398
X0.5866Y3.1043
X0.5866Y3.0689
X0.5866Y1.9016
X0.5866Y1.8543
X0.5899Y0.4616
X0.5945Y2.1811
X0.5945Y0.7441
X0.5984Y2.311
X0.5984Y0.8602
X0.6024Y2.0315
X0.6102Y1.1929
X0.6119Y0.5394
X0.6142Y0.5807
X0.6142Y0.2165
X0.6161Y1.5433
X0.6181Y2.3386
X0.625Y3.1043
X0.625Y3.0689
X0.626Y3.1378
X0.6299Y2.0315
X0.6329Y1.0354
X0.6339Y1.8583
X0.6339Y1.7677
X0.6378Y2.311
X0.6378Y1.3425
X0.6392Y0.1417
X0.6396Y1.3819
X0.6447Y0.4703
X0.6457Y2.1811
X0.6526Y1.5787
X0.6526Y0.2717
X0.6575Y2.0315
X0.6575Y2.3386
X0.6614Y2.6654
X0.6614Y2.6378
X0.6614Y2.6102
X0.6683Y1.0118
X0.6772Y2.311
X0.6772Y1.815
X0.6772Y1.1024
X0.6817Y1.2014
X0.685Y0.5354
X0.688Y0.4803
X0.689Y2.5866
X0.689Y2.5551
X0.689Y1.5167
X0.6908Y2.5254
X0.6929Y2.1811
X0.6969Y2.8661
X0.6969Y2.8386
X0.6969Y2.3386
X0.7008Y2.4331
X0.7008Y2.0059
X0.7008Y1.626
X0.7028Y1.9626
X0.7047Y2.1181
X0.7047Y2.0906
X0.7047Y1.4528
X0.7126Y1.4055
X0.7126Y1.3661
X0.7165Y2.311
X0.7283Y1.8701
X0.7283Y1.815
X0.7313Y1.0906
X0.7323Y2.1811
X0.7323Y0.6043
X0.7352Y0.3937
X0.7352Y0.3386
X0.7362Y2.3386
X0.7402Y0.6772
X0.7431Y0.8701
X0.748Y1.2008
X0.7559Y2.0059
X0.7589Y0.311
X0.7638Y0.2283
X0.7717Y1.4528
X0.7795Y1.7638
X0.7913Y1.1654
X0.7913Y1.8976
X0.7913Y1.8386
X0.8022Y0.4094
X0.8071Y2.0039
X0.8228Y2.878
X0.8228Y2.8465
X0.8228Y2.811
X0.8228Y2.7717
X0.8228Y2.7323
X0.8228Y2.6929
X0.8245Y1.1063
X0.8268Y2.6142
X0.8268Y2.5827
X0.8268Y2.5512
X0.8268Y2.5197
X0.8268Y1.5787
X0.8268Y0.3307
X0.8291Y1.0534
X0.833Y0.4375
X0.8333Y0.8176
X0.8346Y2.1102
X0.8425Y1.3543
X0.8445Y0.7815
X0.8465Y1.563
X0.8465Y1.3858
X0.8465Y0.6654
X0.8465Y0.6024
X0.8504Y1.8976
X0.8504Y1.8386
X0.8543Y0.6969
X0.8543Y2.2362
X0.8622Y2.0039
X0.8661Y2.878
X0.8661Y2.8465
X0.8661Y2.811
X0.8661Y2.7717
X0.8661Y2.7323
X0.8661Y2.6929
X0.8661Y2.6142
X0.8661Y2.5827
X0.8661Y2.5512
X0.8661Y2.5197
X0.8668Y0.5749
X0.8707Y0.2815
X0.878Y2.216
X0.878Y0.7795
X0.8799Y1.5039
X0.8819Y1.4528
X0.8819Y0.6535
X0.8858Y1.5787
X0.8898Y2.4488
X0.8898Y1.0787
X0.8993Y2.311
X0.9016Y1.9764
X0.9055Y2.6142
X0.9055Y2.5827
X0.9055Y2.5512
X0.9055Y2.5197
X0.9055Y2.0098
X0.9055Y1.3543
X0.9075Y0.3169
X0.9094Y1.8976
X0.9094Y1.8386
X0.9094Y1.5787
X0.9134Y2.878
X0.9134Y2.8465
X0.9134Y2.811
X0.9134Y2.7717
X0.9134Y2.7323
X0.9173Y2.6496
X0.9213Y0.1496
X0.9252Y2.4488
X0.9252Y0.7283
X0.937Y1.3858
X0.939Y0.9843
X0.94Y0.8661
X0.9409Y2.5827
X0.9409Y2.5512
X0.9409Y2.5197
X0.9449Y2.1811
X0.9528Y0.5197
X0.9567Y2.2087
X0.9596Y1.9409
X0.9606Y2.878
X0.9606Y2.8465
X0.9606Y2.811
X0.9606Y2.7717
X0.9606Y2.7323
X0.9646Y2.6378
X0.9646Y2.4488
X0.9646Y1.3071
X0.9685Y2.1811
X0.9685Y1.8976
X0.9685Y1.8386
X0.9685Y1.7795
X0.9724Y0.7008
X0.9735Y0.8588
X0.9777Y0.571
X0.9777Y0.5394
X0.9803Y2.2087
X0.9803Y0.7884
X0.9843Y2.5827
X0.9843Y2.5512
X0.9843Y2.5197
X0.9882Y1.4961
X0.992Y2.1803
X0.9961Y0.0827
X1.002Y0.6175
X1.002Y0.6811
X1.0039Y2.2087
X1.0039Y2.4488
X1.0071Y1.0795
X1.0079Y2.878
X1.0079Y2.8465
X1.0079Y2.811
X1.0079Y2.7717
X1.0079Y2.7323
X1.0079Y2.6929
X1.0157Y1.5709
X1.0157Y0.9803
X1.0177Y1.3524
X1.0187Y0.8583
X1.0236Y2.6142
X1.0236Y2.5827
X1.0236Y2.5512
X1.0236Y2.5197
X1.0274Y1.1065
X1.0276Y2.0748
X1.0276Y1.8976
X1.0276Y1.8386
X1.0276Y1.7795
X1.0279Y0.563
X1.0295Y0.1772
X1.0423Y1.5709
X1.0472Y1.4862
X1.0472Y1.252
X1.0472Y1.2165
X1.0472Y1.1772
X1.0502Y0.685
X1.0512Y2.0433
X1.0551Y2.878
X1.0551Y2.8465
X1.0551Y2.811
X1.0551Y2.7717
X1.0551Y2.7323
X1.0551Y2.6929
X1.0597Y1.2998
X1.062Y0.8622
X1.063Y2.6142
X1.063Y2.5827
X1.063Y2.5512
X1.063Y2.5197
X1.0774Y1.5023
X1.0785Y2.0714
X1.0945Y2.878
X1.0945Y2.8465
X1.0945Y2.811
X1.0945Y2.7717
X1.0945Y2.7323
X1.0945Y2.6929
X1.0984Y2.6142
X1.0984Y2.5827
X1.0984Y2.5512
X1.0984Y2.5197
X1.1024Y1.8976
X1.1024Y1.8622
X1.1024Y1.8268
X1.1024Y1.7913
X1.1063Y0.5984
X1.1188Y0.9717
X1.122Y0.3937
X1.125Y0.3425
X1.126Y1.5709
X1.126Y1.3346
X1.1378Y1.8976
X1.1378Y1.8622
X1.1378Y1.8268
X1.1378Y1.7913
X1.1516Y1.504
X1.1535Y1.5709
X1.1555Y0.7776
X1.1565Y0.3425
X1.1614Y1.0866
X1.1654Y0.6929
X1.1654Y0.6535
X1.1732Y2.9144
X1.1732Y1.8976
X1.1732Y1.8622
X1.1732Y1.8268
X1.1732Y1.7913
X1.1732Y0.7244
X1.1772Y2.3346
X1.1772Y1.4789
X1.1811Y0.8031
X1.1841Y0.3425
X1.185Y1.5709
X1.1877Y0.7584
X1.1929Y0.9173
X1.2008Y1.0389
X1.2008Y0.9764
X1.2008Y1.2677
X1.2087Y1.8976
X1.2087Y1.8622
X1.2087Y1.8268
X1.2087Y1.7913
X1.2126Y1.4567
X1.2185Y2.2402
X1.2185Y2.2146
X1.2244Y3.1339
X1.2244Y3.0984
X1.2244Y3.0591
X1.2323Y1.2283
X1.2441Y1.8976
X1.2441Y1.8622
X1.2441Y1.8268
X1.2441Y1.7913
X1.247Y1.0748
X1.248Y2.2362
X1.248Y1.4843
X1.2511Y0.3476
X1.2518Y2.261
X1.2559Y1.1772
X1.2638Y3.1339
X1.2638Y3.0984
X1.2638Y3.0591
X1.2717Y0.9921
X1.2795Y1.8976
X1.2795Y1.8622
X1.2795Y1.8268
X1.2795Y1.7913
X1.2829Y0.7759
X1.2866Y1.1063
X1.2874Y0.6339
X1.2892Y0.8088
X1.2904Y0.4843
X1.2904Y0.7208
X1.3031Y0.5706
X1.3031Y3.1339
X1.3031Y3.0984
X1.3031Y3.0591
X1.3051Y0.187
X1.3071Y0.0827
X1.3071Y0.6052
X1.3091Y0.3799
X1.311Y0.8898
X1.311Y0.9252
X1.315Y1.8976
X1.315Y1.8622
X1.315Y1.8268
X1.315Y1.7913
X1.3297Y0.8465
X1.3346Y0.9606
X1.3399Y0.9252
X1.3425Y3.1339
X1.3425Y3.0984
X1.3425Y3.0591
X1.3433Y0.515
X1.3501Y0.569
X1.3557Y0.7717
X1.3583Y0.4567
X1.3701Y1.5709
X1.3724Y0.7087
X1.374Y0.185
X1.378Y3.1339
X1.378Y3.0984
X1.378Y3.0591
X1.378Y1.8976
X1.378Y1.8386
X1.378Y1.7795
X1.378Y0.0827
X1.4001Y1.5709
X1.4016Y0.5276
X1.4134Y3.1339
X1.4134Y3.0984
X1.4134Y3.0591
X1.437Y1.8976
X1.437Y1.8386
X1.437Y1.7795
X1.4508Y0.5787
X1.4528Y1.5709
X1.4685Y2.6339
X1.4685Y2.5787
X1.4685Y2.6063
X1.4722Y2.1447
X1.4764Y1.5709
X1.4803Y0.7008
X1.4843Y1.2165
X1.4882Y0.5118
X1.4921Y1.8976
X1.4921Y1.8386
X1.4921Y1.7795
X1.4921Y0.4567
X1.4931Y2.5108
X1.4941Y0.6339
X1.4965Y2.8701
X1.4965Y2.8465
X1.4965Y2.8228
X1.5Y2.563
X1.5Y2.5358
X1.502Y0.3878
X1.5023Y2.1441
X1.5039Y1.1457
X1.5079Y1.7126
X1.5118Y1.6575
X1.5118Y1.685
X1.5138Y1.248
X1.5148Y0.9488
X1.5157Y1.874
X1.5157Y1.5906
X1.5197Y0.7165
X1.5226Y1.063
X1.5226Y0.8504
X1.5236Y0.7835
X1.5276Y0.5079
X1.5394Y1.7756
X1.5472Y2.1516
X1.5512Y1.815
X1.563Y1.1772
X1.563Y1.2283
X1.5669Y1.3169
X1.5669Y1.0157
X1.5669Y0.9173
X1.5669Y0.4567
X1.5689Y0.3917
X1.5709Y0.2795
X1.5748Y1.9134
X1.5787Y1.7441
X1.5787Y1.2795
X1.5861Y1.1452
X1.5906Y2.878
X1.5906Y2.8465
X1.5906Y2.811
X1.5906Y2.7717
X1.5906Y2.7323
X1.5906Y2.6142
X1.5906Y2.5827
X1.5906Y2.5512
X1.5906Y2.5197
X1.5906Y1.5374
X1.5937Y2.1453
X1.5945Y2.3346
X1.5946Y2.3669
X1.5974Y0.4809
X1.5984Y2.4488
X1.5984Y1.815
X1.6004Y1.6161
X1.6024Y1.5
X1.6024Y1.4626
X1.6024Y0.5354
X1.6063Y1.7717
X1.6102Y0.8622
X1.6122Y1.6732
X1.6181Y2.3346
X1.6181Y1.0807
X1.6181Y0.9764
X1.6181Y2.3661
X1.622Y1.9134
X1.622Y1.5354
X1.6227Y2.1449
X1.6299Y2.6142
X1.6299Y2.5827
X1.6299Y2.5512
X1.6299Y2.5197
X1.6339Y2.878
X1.6339Y2.8465
X1.6339Y2.811
X1.6339Y2.7717
X1.6339Y2.7323
X1.6339Y2.4488
X1.6378Y1.8071
X1.6417Y2.3661
X1.6417Y2.3346
X1.6417Y1.5827
X1.6535Y2.0512
X1.6594Y1.7047
X1.6654Y1.874
X1.6654Y1.128
X1.6673Y1.3228
X1.6693Y2.6142
X1.6693Y2.5827
X1.6693Y2.5512
X1.6693Y2.5197
X1.6693Y2.4488
X1.6693Y1.3937
X1.6693Y1.2638
X1.6693Y1.2126
X1.6693Y0.7382
X1.6732Y2.649
X1.6791Y1.5472
X1.6811Y2.878
X1.6811Y2.8465
X1.6811Y2.811
X1.6811Y2.7717
X1.6811Y2.7323
X1.6929Y2.1614
X1.6929Y2.1102
X1.6969Y2.0591
X1.6988Y0.874
X1.7047Y2.5827
X1.7047Y2.5512
X1.7047Y2.5197
X1.7047Y2.4488
X1.7047Y0.4764
X1.7146Y1.4313
X1.7224Y0.2569
X1.7244Y1.9173
X1.7244Y1.002
X1.7283Y2.878
X1.7283Y2.8465
X1.7283Y2.811
X1.7283Y2.7717
X1.7283Y2.7323
X1.7283Y2.6378
X1.7323Y2.3465
X1.7402Y2.4488
X1.7441Y2.0079
X1.7441Y1.8386
X1.748Y2.5827
X1.748Y2.5512
X1.748Y2.5197
X1.748Y1.5276
X1.7514Y2.2153
X1.7559Y0.9213
X1.7579Y0.815
X1.7756Y2.878
X1.7756Y2.8465
X1.7756Y2.811
X1.7756Y2.7717
X1.7756Y2.7323
X1.7756Y2.6929
X1.7756Y2.4488
X1.7756Y0.5866
X1.7854Y1.7047
X1.7874Y2.6142
X1.7874Y2.5827
X1.7874Y2.5512
X1.7874Y2.5197
X1.7913Y2.2153
X1.7913Y1.6142
X1.7913Y1.5669
X1.7913Y1.4313
X1.8031Y0.9528
X1.8031Y0.7984
X1.8071Y2.3465
X1.815Y2.0059
X1.815Y1.9252
X1.8228Y2.878
X1.8228Y2.8465
X1.8228Y2.811
X1.8228Y2.7717
X1.8228Y2.7323
X1.8228Y2.6929
X1.8268Y2.6142
X1.8268Y2.5827
X1.8268Y2.5512
X1.8268Y2.5197
X1.8366Y0.5226
X1.8386Y0.7323
X1.8386Y0.6624
X1.8543Y2.1811
X1.8543Y2.1378
X1.8543Y2.0945
X1.8543Y1.0
X1.8588Y1.4966
X1.8622Y2.878
X1.8622Y2.8465
X1.8622Y2.811
X1.8622Y2.7717
X1.8622Y2.7323
X1.8622Y2.6929
X1.8622Y2.6142
X1.8622Y2.5827
X1.8622Y2.5512
X1.8622Y2.5197
X1.8622Y2.3465
X1.8661Y1.4313
X1.8701Y2.0079
X1.878Y0.1339
X1.8937Y2.1811
X1.8937Y2.1378
X1.8937Y2.0945
X1.8937Y0.2165
X1.8976Y1.0
X1.9094Y1.811
X1.9134Y0.6732
X1.9158Y1.3952
X1.9173Y2.9105
X1.9252Y0.4626
X1.9252Y0.3917
X1.9331Y2.0591
X1.937Y2.0945
X1.937Y0.0787
X1.937Y2.1811
X1.9409Y1.5669
X1.9449Y1.4961
X1.9449Y0.9173
X1.9567Y1.6969
X1.9606Y1.7677
X1.9646Y1.8976
X1.9803Y3.1378
X1.9803Y3.0984
X1.9803Y3.0551
X1.9803Y0.815
X1.9921Y1.0079
X1.9961Y2.185
X1.9961Y2.0984
X1.9961Y0.1772
X1.9988Y1.3605
X2.0079Y1.4291
X2.0118Y3.1378
X2.0118Y3.0984
X2.0118Y3.0551
X2.0197Y2.0354
X2.0236Y0.3937
X2.0315Y1.937
X2.0354Y2.1378
X2.0354Y2.185
X2.0354Y2.0984
X2.0433Y3.1378
X2.0433Y3.0984
X2.0433Y3.0551
X2.0709Y2.1378
X2.0709Y2.185
X2.0709Y2.0984
X2.0748Y3.1378
X2.0748Y3.0984
X2.0748Y3.0551
X2.0778Y0.9843
X2.0787Y0.3642
X2.0807Y0.4587
X2.0827Y0.2579
X2.0906Y1.122
X2.0906Y1.0472
X2.1024Y1.8937
X2.1063Y3.1378
X2.1063Y3.0984
X2.1063Y3.0551
X2.1063Y2.0394
X2.1102Y2.3596
X2.1181Y1.0866
X2.126Y0.748
X2.1417Y3.1378
X2.1417Y3.0984
X2.1417Y3.0551
X2.1457Y1.0472
X2.1486Y1.122
X2.1535Y2.0236
X2.1565Y0.9843
X2.1575Y2.1142
X2.1614Y1.4291
X2.1616Y0.1376
X2.1732Y3.1378
X2.1732Y3.0984
X2.1732Y3.0551
X2.1929Y0.6555
X2.2047Y1.0472
X2.2303Y1.6969
X2.2323Y1.4685
X2.2392Y0.9843
X2.2402Y2.5984
X2.2402Y2.5709
X2.2402Y2.5433
X2.2559Y2.1713
X2.2559Y1.0472
X2.2559Y0.748
X2.2579Y2.0315
X2.2598Y1.8386
X2.2717Y2.5827
X2.2717Y2.5512
X2.2717Y2.5236
X2.2756Y2.8898
X2.2756Y2.8622
X2.2756Y2.8346
X2.2756Y1.6102
X2.2756Y1.5276
X2.2756Y1.4094
X2.2756Y1.3189
X2.307Y3.311
X2.307Y3.2794
X2.307Y2.5669
X2.307Y2.5354
T3
X0.3858Y2.7559
X0.3858Y2.7087
X0.3858Y2.6575
X0.3858Y2.6063
X0.3858Y2.5551
X0.5827Y2.7559
X0.5827Y2.7087
X0.5827Y2.6575
X0.5827Y2.6063
X0.5827Y2.5551
X1.189Y2.7559
X1.189Y2.7087
X1.189Y2.6575
X1.189Y2.6063
X1.189Y2.5551
X1.3858Y2.7559
X1.3858Y2.7087
X1.3858Y2.6575
X1.3858Y2.6063
X1.3858Y2.5551
X1.9449Y2.7598
X1.9449Y2.7126
X1.9449Y2.6614
X1.9449Y2.6102
X1.9449Y2.5591
X2.1417Y2.7598
X2.1417Y2.7126
X2.1417Y2.6614
X2.1417Y2.6102
X2.1417Y2.5591
T4
X2.1693Y0.4587
X2.1693Y0.4075
X2.1693Y0.3563
X2.2087Y0.4331
X2.2087Y0.3819
T5
X1.878Y0.3209
X1.9567Y0.3209
X0.7425Y0.0827
X0.7638Y0.0827
X0.8425Y0.0827
X0.9213Y0.0827
X0.9425Y0.0827
X0.0827Y0.0827
X0.1614Y0.0827
X0.2402Y0.0827
X0.3189Y0.0827
X0.3976Y0.0827
X0.4764Y0.0827
X0.5551Y0.0827
X2.0157Y0.0827
X2.0945Y0.0827
X1.4291Y0.0827
X1.5079Y0.0827
X1.5866Y0.0827
X1.6654Y0.0827
X1.7441Y0.0827
X1.8228Y0.0827
T6
X0.0551Y1.2362
X0.0551Y1.1575
X0.0551Y1.0787
X0.0551Y1.0
X0.0551Y0.9213
X0.1339Y1.2362
X0.1339Y1.1575
X0.1339Y1.0787
X0.1339Y1.0
X0.1339Y0.9213
X1.5762Y3.6575
X1.7731Y3.6575
X0.1274Y3.6535
X0.3243Y3.6535
X0.8518Y3.654
X1.0487Y3.654
T7
X2.248Y0.1575
X2.248Y0.0575
X0.0748Y0.7898
X0.0748Y0.6898
X0.0748Y0.5898
X0.0748Y0.4898
X0.0748Y0.3898
T8
X1.1888Y2.8583
X1.2888Y2.8583
X1.3888Y2.8583
X1.0709Y2.4528
X1.1709Y2.4528
X1.2709Y2.4528
X1.9518Y2.8543
X2.0518Y2.8543
X2.1518Y2.8543
X0.3967Y2.8543
X0.4967Y2.8543
X0.5967Y2.8543
X0.2724Y2.4528
X0.3724Y2.4528
X0.4724Y2.4528
X1.8346Y2.4528
X1.9346Y2.4528
X2.0346Y2.4528
T9
X2.0423Y2.6575
X1.2864Y2.6535
X0.8701Y3.8268
X1.4567Y3.8268
X0.4843Y2.6555
T2
G00X2.1583Y0.5482
M15
G01X2.1976Y0.5482
M16
G05
G00X2.1583Y0.2667
M15
G01X2.1976Y0.2667
M16
G05
T0
M30
